<?xml version="1.0" encoding="UTF-8" standalone="no"?>
<!DOCTYPE svg PUBLIC "-//W3C//DTD SVG 1.1//EN" "http://www.w3.org/Graphics/SVG/1.1/DTD/svg11.dtd">
<svg xmlns="http://www.w3.org/2000/svg" version="1.1" viewBox="0 0 1024 1024">
<g stroke-width="2.00" fill="none" stroke-linecap="butt">
<path stroke="#23074a" vector-effect="non-scaling-stroke" d="
  M 408.53 267.35
  Q 407.54 268.43 406.21 268.14
  A 0.81 0.41 22.7 0 0 405.66 268.18
  Q 405.47 268.30 405.53 268.48
  A 0.66 0.39 -5.2 0 0 406.11 268.75
  Q 510.68 269.41 615.24 268.77
  Q 618.97 268.75 622.75 268.95
  Q 626.50 269.14 630.26 269.33"
/>
<path stroke="#3a0b6f" vector-effect="non-scaling-stroke" d="
  M 637.96 286.75
  Q 637.03 286.30 636.77 285.30
  A 0.85 0.73 87.1 0 0 636.20 284.70
  C 634.12 284.23 630.68 282.66 628.37 283.92
  A 1.51 1.28 -51.3 0 1 627.44 284.10
  Q 618.02 282.58 608.50 283.16
  A 0.76 0.50 68.3 0 1 607.93 282.76
  C 607.40 281.87 570.36 282.51 565.36 282.11
  Q 563.20 281.94 560.00 282.00
  Q 544.64 282.28 529.27 282.73
  C 517.60 283.06 505.23 282.93 493.19 283.14
  C 470.78 283.54 449.56 281.18 424.94 283.38
  Q 422.17 283.63 419.22 283.12
  C 411.75 281.82 404.21 283.03 397.43 282.92
  Q 392.87 282.86 388.31 282.82
  A 1.54 0.88 14.2 0 0 387.38 283.08
  L 384.17 285.77"
/>
<path stroke="#91346f" vector-effect="non-scaling-stroke" d="
  M 611.04 298.25
  Q 610.95 297.74 610.00 297.75
  Q 531.78 298.38 411.00 297.79"
/>
<path stroke="#ee755f" vector-effect="non-scaling-stroke" d="
  M 610.96 299.00
  Q 609.40 298.18 607.94 298.78
  Q 607.55 298.95 607.01 298.97
  L 602.50 299.21"
/>
<path stroke="#ef5753" vector-effect="non-scaling-stroke" d="
  M 602.50 299.21
  Q 599.25 299.49 592.00 299.50
  C 533.56 299.59 475.06 299.13 416.63 299.73
  C 411.17 299.79 407.37 304.30 404.44 308.69
  C 399.37 316.27 395.20 321.64 392.39 329.61
  C 389.69 337.29 387.65 345.34 388.50 353.75
  Q 390.44 372.96 400.18 388.67
  C 402.77 392.86 405.17 397.79 408.29 402.00"
/>
<path stroke="#ef6d58" vector-effect="non-scaling-stroke" d="
  M 408.29 402.00
  Q 412.26 406.13 412.96 411.75"
/>
<path stroke="#fc8452" vector-effect="non-scaling-stroke" d="
  M 491.54 488.50
  C 491.47 491.44 490.63 501.77 486.29 501.04
  A 0.61 0.55 7.0 0 1 485.77 500.44
  L 485.82 499.79
  A 0.60 0.52 -80.3 0 0 485.45 499.18
  C 484.63 498.94 480.35 496.69 480.14 496.81
  A 0.46 0.34 -29.8 0 1 479.57 496.74
  L 471.71 482.67
  A 2.46 2.40 -14.7 0 0 469.55 481.44
  Q 468.13 481.47 466.96 480.25"
/>
<path stroke="#f8746c" vector-effect="non-scaling-stroke" d="
  M 544.29 551.50
  Q 542.67 552.38 542.95 554.08
  A 0.64 0.59 74.7 0 1 542.60 554.76
  L 531.21 559.56
  A 1.23 1.18 62.7 0 0 530.69 561.31
  L 532.50 564.21"
/>
<path stroke="#ea6476" vector-effect="non-scaling-stroke" d="
  M 532.50 564.21
  Q 532.00 564.36 531.07 564.06"
/>
<path stroke="#fdc8a9" vector-effect="non-scaling-stroke" d="
  M 531.07 564.06
  Q 525.15 547.71 521.21 530.75"
/>
<path stroke="#ed8e56" vector-effect="non-scaling-stroke" d="
  M 521.21 530.75
  C 521.45 525.20 519.94 520.09 520.17 514.81
  C 520.41 509.32 520.27 503.77 521.15 498.45
  Q 522.86 488.08 524.50 481.25
  C 528.86 463.08 540.01 444.60 550.55 430.79"
/>
<path stroke="#fb894b" vector-effect="non-scaling-stroke" d="
  M 550.55 430.79
  L 547.95 436.55
  Q 547.78 436.94 548.00 436.57
  Q 548.40 435.90 548.61 436.73
  Q 548.70 437.10 548.81 436.74
  Q 549.30 435.20 549.81 437.07
  A 1.50 1.09 -47.3 0 1 549.70 438.00
  Q 548.94 439.58 550.56 440.19
  Q 553.27 441.21 553.95 443.46
  A 0.92 0.84 88.6 0 0 554.54 444.08
  Q 558.79 445.30 563.25 445.41
  C 568.34 445.52 563.98 450.90 563.32 453.01
  C 562.52 455.58 566.53 448.88 564.54 453.44
  Q 564.17 454.29 564.99 453.85
  C 568.58 451.95 571.01 448.83 573.30 446.73
  C 577.36 443.03 581.35 439.55 584.91 435.35
  Q 586.24 433.78 588.11 432.79
  Q 588.57 432.55 588.84 432.15
  C 594.44 423.94 600.88 417.42 606.96 408.75"
/>
<path stroke="#fb7b46" vector-effect="non-scaling-stroke" d="
  M 606.96 408.75
  C 608.44 406.07 611.87 404.02 612.56 401.32
  Q 613.09 399.20 614.78 397.82
  Q 619.52 393.93 621.41 388.30
  A 1.47 1.31 -9.8 0 1 622.00 387.56
  C 627.16 384.31 630.92 367.22 632.03 361.40
  C 632.86 357.07 633.06 352.80 633.53 348.42
  C 633.82 345.75 632.74 342.73 632.50 341.03
  Q 630.57 327.51 622.79 316.25"
/>
<path stroke="#fb7246" vector-effect="non-scaling-stroke" d="
  M 622.79 316.25
  Q 618.85 308.65 611.81 303.69
  Q 610.29 302.61 608.35 299.85
  A 1.07 0.89 70.3 0 0 607.57 299.39
  L 602.50 299.21"
/>
<path stroke="#fc5d39" vector-effect="non-scaling-stroke" d="
  M 622.79 316.25
  L 622.65 318.02
  A 0.80 0.59 -5.9 0 1 622.01 318.60
  C 616.79 319.64 612.76 317.52 608.73 316.60
  A 0.95 0.57 -54.3 0 0 607.99 316.92
  Q 607.65 317.29 607.21 316.73
  A 1.91 0.91 64.5 0 0 606.47 316.13
  C 599.68 313.59 588.94 314.60 582.56 316.06
  Q 581.57 316.29 581.48 316.76
  A 0.91 0.08 53.5 0 0 581.92 317.48
  Q 582.19 317.85 581.25 318.04"
/>
<path stroke="#fd6746" vector-effect="non-scaling-stroke" d="
  M 581.25 318.04
  C 568.21 313.47 554.62 313.52 540.50 313.55
  Q 502.50 313.64 464.50 313.44
  C 447.81 313.35 434.65 315.49 422.18 327.19
  C 409.74 338.85 403.89 354.97 407.40 371.70
  C 409.53 381.90 413.85 389.04 419.79 399.25"
/>
<path stroke="#fc6a3e" vector-effect="non-scaling-stroke" d="
  M 419.79 399.25
  Q 417.58 402.15 412.84 404.56
  Q 411.00 405.50 410.66 403.46
  Q 410.36 401.65 408.29 402.00"
/>
<path stroke="#e35c7b" vector-effect="non-scaling-stroke" d="
  M 503.96 529.25
  Q 506.97 539.38 508.96 549.75"
/>
<path stroke="#fd7c69" vector-effect="non-scaling-stroke" d="
  M 508.96 549.75
  Q 508.29 549.97 507.78 550.45
  A 0.92 0.82 -56.6 0 1 506.95 550.67
  Q 501.49 549.20 496.15 551.25
  A 1.60 1.47 40.0 0 1 495.21 551.29
  C 491.62 550.28 488.21 552.74 484.72 550.47
  A 1.12 0.73 -82.5 0 1 484.34 549.68
  Q 484.21 548.19 481.45 548.61
  A 1.03 1.02 3.6 0 0 480.62 549.34
  C 480.43 550.00 477.94 556.14 477.23 554.54
  A 1.18 0.55 -56.4 0 1 477.36 553.67
  Q 477.57 553.23 477.29 552.75"
/>
<path stroke="#fe6f46" vector-effect="non-scaling-stroke" d="
  M 581.25 318.04
  C 607.72 329.75 620.48 357.48 608.69 384.94
  Q 606.59 389.82 602.50 396.96"
/>
<path stroke="#fd7d4b" vector-effect="non-scaling-stroke" d="
  M 602.50 396.96
  L 586.40 420.41
  Q 584.19 423.62 583.94 419.70
  C 583.61 414.61 586.88 412.50 588.06 408.17
  Q 588.19 407.69 588.54 407.33
  C 593.62 402.13 598.07 395.03 600.77 387.26
  C 601.95 383.85 601.11 379.59 601.75 375.50
  Q 602.86 368.44 600.42 361.48
  A 0.96 0.85 -0.1 0 0 599.77 360.91
  Q 597.54 360.30 597.31 356.68"
/>
<path stroke="#ffbca9" vector-effect="non-scaling-stroke" d="
  M 597.31 356.68
  Q 580.89 363.78 566.00 373.54"
/>
<path stroke="#fcb49d" vector-effect="non-scaling-stroke" d="
  M 566.00 373.54
  C 538.47 390.57 504.19 420.70 496.00 453.46"
/>
<path stroke="#ffbca9" vector-effect="non-scaling-stroke" d="
  M 496.00 453.46
  Q 490.10 473.14 494.06 493.06
  C 496.55 505.60 500.71 516.48 504.46 528.25"
/>
<path stroke="#e45574" vector-effect="non-scaling-stroke" d="
  M 504.46 528.25
  L 503.96 529.25"
/>
<path stroke="#fe8059" vector-effect="non-scaling-stroke" d="
  M 503.96 529.25
  C 498.83 513.94 493.90 502.64 491.54 488.50"
/>
<path stroke="#fe7d4b" vector-effect="non-scaling-stroke" d="
  M 491.54 488.50
  Q 489.25 473.33 491.78 458.26
  C 492.67 452.97 495.55 448.48 497.22 443.46
  Q 498.98 438.17 499.52 437.05
  C 501.78 432.44 505.45 429.02 507.43 424.07
  Q 508.00 422.66 510.94 419.69
  C 513.30 417.30 515.86 412.53 518.77 409.47
  Q 533.27 394.26 549.79 381.25"
/>
<path stroke="#ff7446" vector-effect="non-scaling-stroke" d="
  M 549.79 381.25
  Q 569.50 367.72 590.98 357.27
  C 592.95 356.31 594.36 354.69 592.56 352.69
  Q 590.59 350.50 588.50 350.00
  Q 584.27 349.00 581.16 346.18
  C 574.77 340.40 554.60 341.38 545.93 341.12
  Q 512.24 340.10 478.53 340.01
  C 471.61 339.99 458.63 339.47 448.62 340.01
  Q 445.20 340.19 442.24 341.93
  Q 441.71 342.24 439.76 342.71
  C 433.94 344.11 427.81 350.69 424.82 355.68"
/>
<path stroke="#fe7d4b" vector-effect="non-scaling-stroke" d="
  M 424.82 355.68
  C 420.66 363.74 421.27 373.33 423.48 381.85
  C 424.53 385.89 427.27 389.30 427.64 394.28
  Q 427.80 396.54 428.65 398.09
  Q 432.98 406.06 437.78 413.74
  Q 439.33 416.21 438.94 417.69
  Q 438.36 419.87 435.10 420.76
  A 0.61 0.58 -23.8 0 1 434.45 420.53
  L 419.79 399.25"
/>
<path stroke="#fe773e" vector-effect="non-scaling-stroke" d="
  M 549.79 381.25
  Q 550.12 380.29 549.21 380.57
  A 1.66 1.00 -32.3 0 1 548.28 380.59
  C 544.82 379.28 551.70 380.33 549.26 378.27
  C 548.25 377.42 542.37 377.16 540.75 377.00
  C 537.11 376.64 534.44 377.40 531.49 377.38
  C 527.58 377.36 524.18 378.81 520.57 378.81
  Q 491.85 378.77 463.20 380.90
  Q 462.73 380.93 462.27 381.21
  C 460.05 382.55 457.97 381.56 456.12 381.57
  Q 449.68 381.59 442.19 381.78
  Q 441.41 381.80 440.69 381.49
  Q 437.60 380.16 434.54 378.93
  C 430.49 377.29 429.30 375.23 426.94 371.81
  Q 421.69 364.23 424.82 355.68"
/>
<path stroke="#cd3598" vector-effect="non-scaling-stroke" d="
  M 576.04 619.00
  L 588.04 635.75"
/>
<path stroke="#c840a3" vector-effect="non-scaling-stroke" d="
  M 588.04 635.75
  C 585.09 639.47 580.50 644.10 576.34 637.99
  Q 576.07 637.61 576.10 638.06
  Q 576.27 640.64 575.04 638.91
  Q 572.15 634.82 573.75 639.46"
/>
<path stroke="#cd3598" vector-effect="non-scaling-stroke" d="
  M 573.75 639.46
  L 572.75 638.79"
/>
<path stroke="#c02e9a" vector-effect="non-scaling-stroke" d="
  M 572.75 638.79
  L 570.85 636.85
  Q 570.74 636.73 570.08 636.46
  L 567.72 635.48
  Q 566.57 635.01 566.07 634.96
  C 563.24 634.71 561.12 634.89 557.68 635.34
  Q 548.40 636.55 538.98 632.19
  Q 537.35 631.43 537.94 629.73
  C 538.56 627.92 540.24 624.37 537.75 622.96"
/>
<path stroke="#fc733f" vector-effect="non-scaling-stroke" d="
  M 606.96 408.75
  L 606.24 408.82
  Q 605.72 408.87 606.17 408.48
  Q 606.68 408.05 605.97 407.69
  Q 605.54 407.47 605.18 407.12
  C 603.46 405.42 600.14 409.27 600.67 405.24
  Q 600.70 405.02 600.52 404.31
  L 600.19 402.93
  A 0.57 0.43 -10.9 0 1 600.69 402.38
  Q 602.20 402.13 601.53 400.92
  A 1.26 0.79 48.7 0 1 601.38 400.01
  L 601.86 398.65
  A 1.39 0.45 -26.6 0 1 602.52 398.00
  Q 603.07 397.66 602.50 396.96"
/>
<path stroke="#db458e" vector-effect="non-scaling-stroke" d="
  M 572.04 591.00
  L 569.89 595.02
  A 0.95 0.66 -72.8 0 1 569.25 595.52
  Q 566.17 595.76 564.30 598.10
  A 0.29 0.28 23.9 0 0 564.49 598.55
  C 566.33 598.93 563.36 601.20 562.99 601.41
  A 0.34 0.34 -32.9 0 0 562.88 601.91
  L 576.04 619.00"
/>
<path stroke="#e8478f" vector-effect="non-scaling-stroke" d="
  M 576.04 619.00
  Q 576.22 621.17 574.25 621.26
  Q 573.73 621.28 573.29 621.46
  Q 570.66 622.56 568.60 620.60
  A 0.69 0.57 -36.7 0 0 567.85 620.56
  Q 566.91 621.07 565.82 619.94
  Q 564.99 619.07 563.94 618.50
  C 562.41 617.66 561.65 616.03 560.49 615.04
  Q 558.43 613.28 557.25 611.50
  Q 554.09 606.73 548.75 604.75
  A 2.33 1.15 24.6 0 0 546.56 604.81
  Q 545.50 606.04 544.14 605.53
  A 1.46 1.42 -42.2 0 0 543.22 605.50
  C 541.79 605.95 541.33 604.50 541.27 603.31
  C 540.53 588.35 538.32 575.89 532.50 564.21"
/>
<path stroke="#ee864f" vector-effect="non-scaling-stroke" d="
  M 550.55 430.79
  C 564.05 410.33 579.20 390.86 591.94 368.44
  Q 593.62 365.47 593.71 363.25"
/>
<path stroke="#fdc0a2" vector-effect="non-scaling-stroke" d="
  M 597.31 356.68
  L 593.71 363.25"
/>
<path stroke="#f0c5ad" vector-effect="non-scaling-stroke" d="
  M 593.71 363.25
  Q 570.32 400.48 551.94 424.94
  C 527.79 457.06 511.92 489.70 521.21 530.75"
/>
<path stroke="#ec9bcc" vector-effect="non-scaling-stroke" d="
  M 531.07 564.06
  Q 543.65 592.42 537.75 622.96"
/>
<path stroke="#d392cd" vector-effect="non-scaling-stroke" d="
  M 537.75 622.96
  Q 535.27 632.96 531.25 642.46"
/>
<path stroke="#a990be" vector-effect="non-scaling-stroke" d="
  M 531.25 642.46
  C 514.37 678.04 484.56 708.51 450.70 728.33
  Q 444.49 731.96 438.25 735.65"
/>
<path stroke="#aaa3e0" vector-effect="non-scaling-stroke" d="
  M 438.25 735.65
  L 434.75 737.50
  Q 433.00 738.42 433.69 736.69
  L 435.04 733.25"
/>
<path stroke="#b99fdb" vector-effect="non-scaling-stroke" d="
  M 435.04 733.25
  L 442.85 715.97"
/>
<path stroke="#bd8fcf" vector-effect="non-scaling-stroke" d="
  M 442.85 715.97
  Q 456.82 690.29 473.48 666.24"
/>
<path stroke="#d193cd" vector-effect="non-scaling-stroke" d="
  M 473.48 666.24
  Q 483.53 652.82 492.00 638.29"
/>
<path stroke="#e498cb" vector-effect="non-scaling-stroke" d="
  M 492.00 638.29
  C 512.92 604.62 517.35 565.06 504.46 528.25"
/>
<path stroke="#fcf7f3" vector-effect="non-scaling-stroke" d="
  M 496.00 453.46
  C 498.13 450.59 500.09 450.05 501.09 446.31
  Q 501.61 444.32 502.18 443.21
  Q 506.86 433.92 512.65 425.28
  C 513.98 423.28 516.20 421.64 517.75 418.75
  Q 520.85 412.97 527.38 408.41
  C 531.23 405.73 533.19 401.42 537.02 398.66
  Q 540.10 396.44 541.65 394.91
  Q 545.48 391.14 549.90 388.06
  C 555.62 384.08 560.75 379.93 565.87 375.58
  A 1.02 0.64 -32.3 0 0 566.26 374.76
  L 566.00 373.54"
/>
<path stroke="#b62c98" vector-effect="non-scaling-stroke" d="
  M 492.00 638.29
  Q 490.15 638.61 489.69 640.44
  Q 489.08 642.85 486.44 642.69
  Q 484.13 642.54 481.97 643.32
  A 1.67 1.44 39.7 0 1 481.02 643.34
  Q 479.55 642.92 478.05 643.30
  A 0.55 0.33 81.3 0 0 477.82 643.86
  C 477.86 644.11 475.29 643.95 474.71 644.08
  Q 474.33 644.17 474.68 644.40
  Q 475.50 644.95 473.75 644.81
  Q 470.09 644.51 466.44 644.67
  A 0.26 0.22 -83.7 0 1 466.23 644.36
  L 466.32 643.99
  A 0.53 0.42 3.3 0 0 465.75 643.49
  L 454.50 643.95
  A 0.63 0.47 77.5 0 1 453.98 643.50
  C 453.39 641.76 444.40 647.54 443.50 648.21"
/>
<path stroke="#c53296" vector-effect="non-scaling-stroke" d="
  M 443.50 648.21
  Q 448.09 643.79 451.35 639.59
  Q 452.22 638.46 451.04 639.28
  L 440.45 646.63"
/>
<path stroke="#ba3ca3" vector-effect="non-scaling-stroke" d="
  M 440.45 646.63
  Q 440.69 645.16 441.59 644.27
  C 444.18 641.69 448.49 637.77 449.99 634.51
  Q 450.30 633.83 449.74 634.27
  L 448.38 635.31
  Q 448.20 635.44 448.31 635.26
  L 449.96 632.50"
/>
<path stroke="#db3894" vector-effect="non-scaling-stroke" d="
  M 449.96 632.50
  C 450.52 631.31 454.09 625.66 455.59 626.21
  A 0.89 0.51 26.5 0 0 456.36 626.17
  Q 459.34 623.53 463.20 622.66
  A 0.70 0.51 67.3 0 1 463.83 623.04
  C 464.99 625.22 487.22 622.62 489.57 622.22
  C 491.91 621.82 495.18 620.35 498.50 620.50
  Q 500.01 620.57 500.75 618.75
  Q 504.79 608.87 507.13 598.49"
/>
<path stroke="#e2448d" vector-effect="non-scaling-stroke" d="
  M 507.13 598.49
  Q 510.51 584.95 510.21 571.00"
/>
<path stroke="#e45184" vector-effect="non-scaling-stroke" d="
  M 510.21 571.00
  Q 510.28 560.33 508.96 549.75"
/>
<path stroke="#fd647a" vector-effect="non-scaling-stroke" d="
  M 510.21 571.00
  Q 510.43 568.92 509.44 569.27
  A 1.70 0.62 -28.2 0 1 508.52 569.40
  C 506.13 568.87 504.26 567.98 501.76 568.07
  Q 491.74 568.43 481.75 567.54
  A 1.29 0.83 17.5 0 0 480.84 567.79
  L 480.36 568.28
  Q 480.11 568.53 480.05 568.19
  C 479.86 567.01 476.31 567.65 475.03 567.23
  A 0.39 0.36 -63.7 0 1 474.86 566.66
  Q 475.74 565.30 473.68 565.30
  A 1.31 0.68 -54.2 0 0 472.88 565.70
  Q 472.46 566.10 471.91 565.99
  A 0.64 0.55 18.1 0 0 471.24 566.27
  Q 470.43 567.83 468.79 566.75"
/>
<path stroke="#b32c99" vector-effect="non-scaling-stroke" d="
  M 572.75 638.79
  L 573.77 641.85
  Q 573.91 642.30 574.02 642.44
  Q 574.48 643.05 573.81 642.85
  Q 573.53 642.78 573.67 643.01
  L 580.81 655.22"
/>
<path stroke="#a6249b" vector-effect="non-scaling-stroke" d="
  M 580.81 655.22
  L 583.29 661.25"
/>
<path stroke="#a6249b" vector-effect="non-scaling-stroke" d="
  M 583.29 661.25
  L 585.04 666.75"
/>
<path stroke="#a6249b" vector-effect="non-scaling-stroke" d="
  M 585.04 666.75
  Q 585.61 669.69 587.28 671.80"
/>
<path stroke="#93209d" vector-effect="non-scaling-stroke" d="
  M 587.28 671.80
  Q 583.48 668.45 577.50 669.75
  C 569.41 671.51 561.86 669.34 553.75 669.25
  Q 546.91 669.17 538.44 667.56
  C 537.58 667.40 537.04 667.91 535.88 667.57
  Q 528.83 665.48 522.72 661.16"
/>
<path stroke="#7c238c" vector-effect="non-scaling-stroke" d="
  M 522.72 661.16
  Q 528.81 651.89 532.31 643.56
  Q 532.79 642.42 531.25 642.46"
/>
<path stroke="#962d8b" vector-effect="non-scaling-stroke" d="
  M 613.25 643.46
  Q 612.15 644.07 612.08 645.14
  C 611.99 646.42 616.09 651.96 616.96 653.50"
/>
<path stroke="#92289c" vector-effect="non-scaling-stroke" d="
  M 616.96 653.50
  L 608.65 663.94
  A 0.55 0.45 37.6 0 1 607.96 663.96
  Q 607.15 663.37 606.21 664.75"
/>
<path stroke="#bb3ea2" vector-effect="non-scaling-stroke" d="
  M 606.21 664.75
  Q 597.85 649.80 588.04 635.75"
/>
<path stroke="#b63da3" vector-effect="non-scaling-stroke" d="
  M 586.54 659.50
  Q 586.06 659.15 585.71 659.50"
/>
<path stroke="#c03396" vector-effect="non-scaling-stroke" d="
  M 585.71 659.50
  Q 583.75 656.24 581.54 653.17
  C 579.00 649.65 582.85 657.24 583.00 657.50"
/>
<path stroke="#b32c99" vector-effect="non-scaling-stroke" d="
  M 583.00 657.50
  L 580.81 655.22"
/>
<path stroke="#8d33a8" vector-effect="non-scaling-stroke" d="
  M 606.21 664.75
  L 607.75 668.46"
/>
<path stroke="#9d45b0" vector-effect="non-scaling-stroke" d="
  M 607.75 668.46
  C 605.10 670.00 605.06 673.89 603.24 677.31
  A 1.57 0.83 -10.3 0 1 602.51 677.88
  Q 601.25 678.40 600.81 680.81
  C 600.10 684.72 593.70 686.87 593.96 681.25
  Q 593.98 680.87 593.71 680.34
  L 592.54 678.00"
/>
<path stroke="#ae36a4" vector-effect="non-scaling-stroke" d="
  M 592.54 678.00
  Q 592.02 674.26 590.25 670.96"
/>
<path stroke="#b147ae" vector-effect="non-scaling-stroke" d="
  M 590.25 670.96
  L 589.54 668.50"
/>
<path stroke="#b147ae" vector-effect="non-scaling-stroke" d="
  M 589.54 668.50
  C 590.45 669.36 592.11 673.69 591.79 670.87
  Q 591.76 670.59 591.53 670.20
  Q 591.24 669.73 591.33 669.22
  Q 591.47 668.48 591.43 668.26
  Q 591.16 666.91 590.10 666.09
  Q 589.63 665.73 589.45 665.37
  L 586.54 659.50"
/>
<path stroke="#bb3ea2" vector-effect="non-scaling-stroke" d="
  M 586.54 659.50
  Q 584.82 654.93 582.13 650.90
  C 580.25 648.09 577.15 642.83 573.75 639.46"
/>
<path stroke="#762fab" vector-effect="non-scaling-stroke" d="
  M 442.85 715.97
  Q 442.64 713.68 440.06 711.69
  C 438.17 710.22 437.40 704.71 436.45 704.15
  A 1.30 0.54 22.5 0 1 435.85 703.55
  Q 433.43 696.57 434.97 703.51
  Q 435.07 703.95 434.81 703.57
  Q 432.34 699.82 432.21 695.25"
/>
<path stroke="#7d1d9f" vector-effect="non-scaling-stroke" d="
  M 432.21 695.25
  Q 432.27 691.36 432.77 687.50
  Q 432.95 686.08 432.23 686.76
  Q 431.55 687.41 431.84 686.52
  C 432.02 685.95 434.01 676.31 432.29 680.25"
/>
<path stroke="#831f9d" vector-effect="non-scaling-stroke" d="
  M 432.29 680.25
  L 433.25 675.29"
/>
<path stroke="#90219d" vector-effect="non-scaling-stroke" d="
  M 433.25 675.29
  L 435.50 672.04"
/>
<path stroke="#483cbd" vector-effect="non-scaling-stroke" d="
  M 612.75 714.65
  Q 607.20 726.64 596.50 734.96"
/>
<path stroke="#484cc8" vector-effect="non-scaling-stroke" d="
  M 596.50 734.96
  L 592.40 738.44
  Q 591.65 739.07 591.95 738.26
  Q 592.10 737.86 592.89 737.46
  Q 593.59 737.11 592.82 737.24
  Q 584.51 738.62 576.16 738.69
  A 0.14 0.13 81.3 0 1 576.03 738.59
  L 576.00 738.50
  A 0.26 0.26 -10.2 0 0 575.74 738.32
  Q 567.30 738.68 560.75 738.25
  C 539.32 736.83 517.90 737.83 496.51 737.60
  C 487.60 737.50 476.11 738.45 466.50 737.75
  C 460.88 737.34 454.35 738.40 449.16 739.52
  C 443.88 740.66 438.58 740.96 433.32 742.36
  Q 428.19 743.73 423.79 741.00"
/>
<path stroke="#691e8e" vector-effect="non-scaling-stroke" d="
  M 522.72 661.16
  L 510.25 679.04"
/>
<path stroke="#5d1d91" vector-effect="non-scaling-stroke" d="
  M 510.25 679.04
  L 499.71 691.22"
/>
<path stroke="#531e94" vector-effect="non-scaling-stroke" d="
  M 499.71 691.22
  C 493.74 697.02 488.48 703.88 481.96 708.86
  Q 473.75 715.12 465.36 721.11"
/>
<path stroke="#53349f" vector-effect="non-scaling-stroke" d="
  M 465.36 721.11
  Q 460.66 722.96 456.82 726.20
  C 453.70 728.83 450.07 730.22 445.93 733.09
  Q 442.54 735.43 438.25 735.65"
/>
<path stroke="#7f30a9" vector-effect="non-scaling-stroke" d="
  M 428.50 698.54
  L 429.63 700.48
  A 1.07 0.39 63.5 0 0 430.28 701.10
  C 430.80 701.11 430.26 699.39 430.50 698.79"
/>
<path stroke="#6343bc" vector-effect="non-scaling-stroke" d="
  M 435.04 733.25
  Q 434.60 729.73 436.25 726.68
  A 0.44 0.41 25.6 0 0 436.02 726.09
  C 433.33 725.02 432.80 722.28 429.24 722.46
  Q 428.92 722.48 428.35 722.19
  L 425.73 720.88
  A 0.49 0.48 19.5 0 0 425.04 721.20
  L 424.93 721.68
  A 0.48 0.37 -77.1 0 1 424.44 722.08
  L 416.94 719.95
  A 1.58 1.39 35.6 0 0 415.84 720.06
  Q 413.85 721.15 411.29 721.00"
/>
<path stroke="#8f229d" vector-effect="non-scaling-stroke" d="
  M 473.48 666.24
  Q 469.45 669.57 464.77 671.62
  Q 464.33 671.81 464.81 671.84
  Q 468.46 672.05 464.98 672.67
  A 1.39 1.13 -71.4 0 0 464.22 673.15
  Q 462.80 674.93 459.94 673.81
  Q 456.30 672.40 449.75 673.25
  Q 448.21 673.45 447.97 672.56
  A 0.71 0.62 85.3 0 0 447.44 672.05
  L 440.29 671.12
  Q 440.11 671.09 440.27 670.97
  L 440.45 670.83
  Q 440.86 670.52 440.15 670.47
  Q 437.58 670.27 435.50 672.04"
/>
<path stroke="#a5259b" vector-effect="non-scaling-stroke" d="
  M 435.50 672.04
  L 437.12 667.25"
/>
<path stroke="#a5259b" vector-effect="non-scaling-stroke" d="
  M 437.12 667.25
  L 437.33 665.68
  A 1.45 0.81 -27.9 0 1 437.84 664.89
  Q 438.83 664.04 439.00 662.71"
/>
<path stroke="#a3269a" vector-effect="non-scaling-stroke" d="
  M 439.00 662.71
  C 439.57 659.54 442.96 659.06 442.97 656.81
  Q 442.97 656.26 442.57 656.66
  L 437.75 661.29"
/>
<path stroke="#a5259b" vector-effect="non-scaling-stroke" d="
  M 437.75 661.29
  Q 437.05 661.21 437.21 660.50"
/>
<path stroke="#aa2999" vector-effect="non-scaling-stroke" d="
  M 437.21 660.50
  C 437.35 660.15 439.42 657.66 439.01 657.45
  A 0.59 0.43 -60.0 0 0 438.36 657.74
  Q 437.92 658.50 437.00 658.71"
/>
<path stroke="#b22d98" vector-effect="non-scaling-stroke" d="
  M 437.00 658.71
  Q 438.57 655.33 441.00 652.50
  Q 442.00 651.33 442.75 648.54"
/>
<path stroke="#b22d98" vector-effect="non-scaling-stroke" d="
  M 442.75 648.54
  Q 443.18 648.50 443.50 648.21"
/>
<path stroke="#cc43a0" vector-effect="non-scaling-stroke" d="
  M 449.96 632.50
  L 448.40 633.57
  Q 448.09 633.78 448.07 633.43
  L 447.87 629.81
  Q 447.84 629.36 447.70 629.81
  Q 447.44 630.63 446.70 631.05
  A 0.77 0.59 49.6 0 1 445.91 630.88
  C 444.44 629.50 442.21 632.45 442.35 631.49
  A 0.44 0.43 9.7 0 0 442.00 631.00
  Q 440.23 630.67 439.46 629.00"
/>
<path stroke="#e23c92" vector-effect="non-scaling-stroke" d="
  M 439.46 629.00
  L 455.04 607.25"
/>
<path stroke="#c03396" vector-effect="non-scaling-stroke" d="
  M 442.75 648.54
  Q 441.72 648.65 441.38 649.51
  Q 441.14 650.11 440.90 650.36
  C 439.84 651.48 438.76 652.37 438.20 653.88
  Q 437.23 656.44 435.56 658.61
  A 1.82 1.09 78.4 0 0 435.25 659.50
  L 435.21 660.00"
/>
<path stroke="#c03396" vector-effect="non-scaling-stroke" d="
  M 435.21 660.00
  Q 433.63 660.52 433.25 662.29"
/>
<path stroke="#b63da3" vector-effect="non-scaling-stroke" d="
  M 440.45 646.63
  Q 436.74 652.27 433.27 657.97
  C 432.38 659.44 432.49 660.87 433.25 662.29"
/>
<path stroke="#b63da3" vector-effect="non-scaling-stroke" d="
  M 433.25 662.29
  Q 432.99 665.62 431.19 668.44
  Q 429.86 670.52 429.75 671.00
  Q 428.73 675.55 430.55 672.74
  A 1.82 0.94 76.0 0 0 430.77 671.81
  Q 430.78 670.71 431.71 670.00"
/>
<path stroke="#a935a5" vector-effect="non-scaling-stroke" d="
  M 431.71 670.00
  L 431.50 672.04"
/>
<path stroke="#a935a5" vector-effect="non-scaling-stroke" d="
  M 431.50 672.04
  L 431.21 672.50"
/>
<path stroke="#a935a5" vector-effect="non-scaling-stroke" d="
  M 431.21 672.50
  Q 429.01 675.76 427.89 679.51
  A 1.51 1.17 -14.1 0 1 427.31 680.25
  Q 426.27 680.94 426.70 681.99
  Q 426.91 682.51 426.89 682.94
  L 426.79 684.75"
/>
<path stroke="#a935a5" vector-effect="non-scaling-stroke" d="
  M 426.79 684.75
  C 426.53 686.93 425.21 689.11 426.46 691.75"
/>
<path stroke="#9744b1" vector-effect="non-scaling-stroke" d="
  M 426.46 691.75
  Q 424.93 693.83 425.75 696.25
  Q 425.91 696.73 425.69 698.81
  Q 425.53 700.29 426.26 700.05
  A 0.42 0.39 -17.2 0 1 426.79 700.30
  Q 427.22 701.79 428.53 699.92"
/>
<path stroke="#8f43b3" vector-effect="non-scaling-stroke" d="
  M 428.53 699.92
  Q 428.97 703.15 428.83 706.25
  Q 428.65 710.28 428.13 707.28
  Q 427.54 703.88 426.92 708.06
  A 0.61 0.61 14.6 0 1 426.10 708.54
  Q 423.50 707.54 421.21 706.08
  Q 417.91 703.97 416.73 703.01
  Q 413.70 700.53 412.79 696.54
  A 1.60 0.88 89.8 0 0 412.33 695.71
  L 407.96 692.25"
/>
<path stroke="#7a34af" vector-effect="non-scaling-stroke" d="
  M 407.96 692.25
  L 409.60 683.46"
/>
<path stroke="#9b33a5" vector-effect="non-scaling-stroke" d="
  M 409.60 683.46
  Q 413.77 669.02 421.54 656.00"
/>
<path stroke="#f44b8a" vector-effect="non-scaling-stroke" d="
  M 507.13 598.49
  C 505.80 593.64 503.08 595.67 499.86 595.42
  C 497.41 595.23 495.43 594.68 493.00 594.88
  Q 487.02 595.39 481.02 595.30
  C 478.03 595.26 475.43 593.78 472.06 593.91
  A 0.84 0.64 71.5 0 1 471.39 593.46
  Q 471.18 593.07 470.80 592.92
  A 1.02 0.74 -47.8 0 0 469.90 593.11
  Q 468.20 594.41 467.33 596.29
  C 465.75 599.67 464.89 600.75 462.41 602.93
  A 1.68 1.67 -13.3 0 0 461.89 603.77
  Q 460.89 607.33 458.77 609.82
  A 0.47 0.46 43.4 0 1 458.08 609.83
  Q 456.78 608.48 456.15 606.73
  A 0.28 0.23 -31.7 0 0 455.72 606.67
  L 455.04 607.25"
/>
<path stroke="#e9488b" vector-effect="non-scaling-stroke" d="
  M 455.04 607.25
  Q 453.89 604.83 451.42 605.46
  A 1.17 1.15 50.0 0 1 450.68 605.39
  Q 448.20 604.29 446.43 605.24
  A 0.92 0.59 81.7 0 0 446.09 605.99
  Q 446.09 606.74 444.99 606.60
  A 0.73 0.64 88.9 0 1 444.44 606.00
  Q 444.06 603.38 441.92 601.69"
/>
<path stroke="#b32c99" vector-effect="non-scaling-stroke" d="
  M 583.00 657.50
  L 586.21 664.00"
/>
<path stroke="#a935a5" vector-effect="non-scaling-stroke" d="
  M 586.21 664.00
  L 588.29 668.25"
/>
<path stroke="#a6249b" vector-effect="non-scaling-stroke" d="
  M 588.29 668.25
  L 589.46 672.00"
/>
<path stroke="#a6249b" vector-effect="non-scaling-stroke" d="
  M 589.46 672.00
  L 589.00 672.04"
/>
<path stroke="#a6249b" vector-effect="non-scaling-stroke" d="
  M 589.00 672.04
  Q 588.48 670.06 587.00 668.75"
/>
<path stroke="#a6249b" vector-effect="non-scaling-stroke" d="
  M 587.00 668.75
  Q 586.25 664.45 583.29 661.25"
/>
<path stroke="#a6249b" vector-effect="non-scaling-stroke" d="
  M 587.00 668.75
  Q 586.30 667.43 585.04 666.75"
/>
<path stroke="#93209d" vector-effect="non-scaling-stroke" d="
  M 587.28 671.80
  L 589.54 679.50"
/>
<path stroke="#822ea9" vector-effect="non-scaling-stroke" d="
  M 589.54 679.50
  Q 590.56 688.93 587.21 697.75"
/>
<path stroke="#741aa2" vector-effect="non-scaling-stroke" d="
  M 587.21 697.75
  C 586.94 695.65 586.36 697.95 586.05 698.02
  A 0.55 0.34 86.5 0 1 585.64 697.44
  L 585.64 694.19
  A 0.98 0.74 17.9 0 0 585.12 693.45
  Q 581.96 691.75 579.75 691.50
  Q 568.80 690.25 548.25 689.31
  C 541.16 688.98 534.31 687.53 527.25 687.42
  C 521.75 687.33 517.38 684.50 512.42 682.21
  A 0.83 0.82 -74.4 0 1 511.95 681.36
  Q 512.05 680.58 511.76 680.27
  A 0.99 0.35 -20.4 0 0 510.87 680.28
  Q 510.04 680.55 510.25 679.04"
/>
<path stroke="#a6249b" vector-effect="non-scaling-stroke" d="
  M 587.00 668.75
  Q 587.03 669.63 587.46 670.34
  A 1.46 1.37 34.4 0 1 587.66 671.25
  C 587.41 673.44 589.58 675.85 590.04 678.50"
/>
<path stroke="#a6249b" vector-effect="non-scaling-stroke" d="
  M 590.04 678.50
  L 590.25 681.21"
/>
<path stroke="#9533a7" vector-effect="non-scaling-stroke" d="
  M 590.25 681.21
  Q 589.65 680.50 589.54 679.50"
/>
<path stroke="#682291" vector-effect="non-scaling-stroke" d="
  M 634.46 688.25
  Q 634.01 688.39 633.55 688.32
  A 0.97 0.76 80.8 0 1 632.89 687.71
  Q 626.53 669.86 616.96 653.50"
/>
<path stroke="#5027ae" vector-effect="non-scaling-stroke" d="
  M 636.54 716.25
  L 636.18 714.54
  A 0.39 0.36 -20.2 0 0 635.63 714.31
  C 633.68 715.32 631.81 713.46 629.10 714.07
  Q 628.61 714.18 629.11 714.27
  Q 632.14 714.82 629.47 714.70
  C 627.52 714.61 626.78 714.26 624.25 714.75
  Q 620.60 715.46 612.75 714.65"
/>
<path stroke="#5c32b2" vector-effect="non-scaling-stroke" d="
  M 612.75 714.65
  L 613.96 710.50"
/>
<path stroke="#742faa" vector-effect="non-scaling-stroke" d="
  M 613.96 710.50
  C 617.69 696.38 614.48 681.11 607.75 668.46"
/>
<path stroke="#b63da3" vector-effect="non-scaling-stroke" d="
  M 585.96 661.75
  L 586.21 664.00"
/>
<path stroke="#b63da3" vector-effect="non-scaling-stroke" d="
  M 585.71 659.50
  L 586.21 661.50"
/>
<path stroke="#b63da3" vector-effect="non-scaling-stroke" d="
  M 586.21 661.50
  Q 586.00 661.54 585.96 661.75"
/>
<path stroke="#c03396" vector-effect="non-scaling-stroke" d="
  M 585.96 661.75
  Q 585.08 659.15 583.00 657.50"
/>
<path stroke="#ab46af" vector-effect="non-scaling-stroke" d="
  M 589.54 668.50
  L 586.21 661.50"
/>
<path stroke="#6c44ba" vector-effect="non-scaling-stroke" d="
  M 613.96 710.50
  Q 612.20 712.04 610.66 710.66
  A 0.88 0.80 54.8 0 0 609.84 710.48
  C 605.87 711.83 602.37 711.55 599.48 714.28
  A 0.12 0.11 31.6 0 0 599.53 714.47
  Q 599.68 714.52 599.72 714.64
  A 0.50 0.29 -25.0 0 1 599.41 715.08
  Q 597.35 716.11 595.18 716.88
  C 593.64 717.44 592.39 718.92 590.31 718.85
  Q 589.81 718.84 590.12 718.42
  Q 591.47 716.63 589.78 717.25
  Q 589.33 717.41 589.62 717.04
  Q 590.33 716.12 591.13 715.27
  C 592.78 713.50 594.71 713.62 594.92 710.56
  A 0.32 0.31 -9.3 0 0 594.48 710.25
  Q 590.79 711.80 587.92 714.59
  A 0.88 0.84 30.2 0 1 587.08 714.79
  Q 584.87 714.16 582.74 714.63
  Q 582.26 714.73 582.55 714.35
  Q 584.86 711.28 587.74 708.73
  C 587.99 708.51 588.99 706.19 587.57 707.58
  Q 586.37 708.75 585.07 709.79
  Q 584.35 710.36 585.06 709.58
  A 0.32 0.30 56.4 0 0 585.11 709.28
  C 584.82 708.53 586.76 706.78 585.52 707.55
  Q 585.32 707.68 585.41 707.45
  Q 587.93 701.11 584.33 706.64
  Q 583.94 707.24 584.06 706.56
  Q 584.19 705.84 585.00 705.00
  Q 586.76 703.17 586.79 699.90"
/>
<path stroke="#762dab" vector-effect="non-scaling-stroke" d="
  M 586.79 699.90
  Q 587.35 698.95 587.21 697.75"
/>
<path stroke="#9533a7" vector-effect="non-scaling-stroke" d="
  M 590.25 681.21
  L 591.29 686.25"
/>
<path stroke="#8341b2" vector-effect="non-scaling-stroke" d="
  M 591.29 686.25
  Q 591.49 691.28 590.75 696.25
  C 590.39 698.67 591.92 697.37 592.12 696.52
  Q 592.54 694.73 592.65 692.90
  C 592.88 689.21 593.53 686.20 592.04 682.50"
/>
<path stroke="#9533a7" vector-effect="non-scaling-stroke" d="
  M 592.04 682.50
  L 591.46 680.00"
/>
<path stroke="#9533a7" vector-effect="non-scaling-stroke" d="
  M 591.46 680.00
  L 591.29 677.25"
/>
<path stroke="#a935a5" vector-effect="non-scaling-stroke" d="
  M 590.25 670.96
  L 588.29 668.25"
/>
<path stroke="#9533a7" vector-effect="non-scaling-stroke" d="
  M 592.54 678.00
  Q 591.90 679.19 591.29 677.25"
/>
<path stroke="#a6249b" vector-effect="non-scaling-stroke" d="
  M 591.29 677.25
  L 589.46 672.00"
/>
<path stroke="#861e9d" vector-effect="non-scaling-stroke" d="
  M 432.29 680.25
  L 431.21 689.50"
/>
<path stroke="#8b209b" vector-effect="non-scaling-stroke" d="
  M 431.21 689.50
  L 430.54 692.00"
/>
<path stroke="#8b209b" vector-effect="non-scaling-stroke" d="
  M 430.54 692.00
  L 429.71 688.25"
/>
<path stroke="#99229b" vector-effect="non-scaling-stroke" d="
  M 429.71 688.25
  L 431.75 678.04"
/>
<path stroke="#792dab" vector-effect="non-scaling-stroke" d="
  M 432.21 695.25
  Q 431.89 694.80 431.29 694.75"
/>
<path stroke="#861e9d" vector-effect="non-scaling-stroke" d="
  M 431.29 694.75
  L 431.21 689.50"
/>
<path stroke="#99229b" vector-effect="non-scaling-stroke" d="
  M 433.25 675.29
  Q 432.10 676.44 431.75 678.04"
/>
<path stroke="#a6249b" vector-effect="non-scaling-stroke" d="
  M 431.75 678.04
  Q 431.49 678.09 431.29 678.25"
/>
<path stroke="#a6249b" vector-effect="non-scaling-stroke" d="
  M 431.29 678.25
  Q 431.33 676.04 432.25 674.00"
/>
<path stroke="#5431b6" vector-effect="non-scaling-stroke" d="
  M 573.75 715.46
  Q 566.07 720.34 556.50 720.75
  Q 519.85 722.33 486.75 721.56
  Q 476.04 721.31 465.36 721.11"
/>
<path stroke="#3c42c4" vector-effect="non-scaling-stroke" d="
  M 632.25 732.77
  Q 617.80 732.49 603.57 734.44
  C 601.32 734.75 599.05 733.96 596.50 734.96"
/>
<path stroke="#5e2fb3" vector-effect="non-scaling-stroke" d="
  M 586.79 699.90
  Q 582.51 709.59 573.75 715.46"
/>
<path stroke="#5e1aa7" vector-effect="non-scaling-stroke" d="
  M 573.75 715.46
  Q 575.01 713.34 577.07 712.02
  A 1.49 1.17 -13.7 0 0 577.66 711.27
  Q 578.26 709.32 576.70 710.02
  A 0.46 0.46 66.9 0 1 576.08 709.77
  C 575.04 707.16 573.24 708.00 571.07 707.61
  Q 567.48 706.97 570.24 705.53
  Q 570.68 705.30 570.22 705.14
  Q 566.35 703.75 561.96 704.02
  Q 561.29 704.06 561.81 703.65
  C 563.33 702.44 561.77 702.78 561.19 702.72
  Q 552.88 701.88 544.56 701.11
  A 1.08 0.31 -44.6 0 0 543.84 701.50
  C 542.17 702.95 524.08 700.17 523.20 700.01
  Q 520.55 699.53 518.57 701.11
  A 1.26 1.07 -57.1 0 1 517.70 701.37
  Q 512.51 700.68 507.42 699.43
  C 506.19 699.13 504.80 699.68 503.48 698.48
  A 0.14 0.13 -36.8 0 1 503.52 698.27
  L 503.74 698.15
  Q 504.18 697.90 503.54 697.72
  C 501.23 697.08 506.44 696.27 504.26 695.35
  A 0.33 0.30 -61.1 0 1 504.15 694.87
  C 504.41 694.47 502.51 694.02 501.95 693.74
  A 0.45 0.44 -60.0 0 1 501.79 693.10
  Q 502.96 691.27 499.71 691.22"
/>
<path stroke="#5e31b3" vector-effect="non-scaling-stroke" d="
  M 407.96 692.25
  Q 405.70 707.11 411.29 721.00"
/>
<path stroke="#4f34b8" vector-effect="non-scaling-stroke" d="
  M 411.29 721.00
  Q 415.45 732.30 423.79 741.00"
/>
<path stroke="#423abf" vector-effect="non-scaling-stroke" d="
  M 423.79 741.00
  L 426.69 744.81
  Q 427.33 745.66 426.19 745.56
  Q 417.73 744.84 409.53 746.74
  C 405.91 747.58 402.60 747.23 399.50 750.54"
/>
<path stroke="#345cd6" vector-effect="non-scaling-stroke" d="
  M 622.54 751.50
  Q 622.90 749.69 621.25 749.32
  A 1.29 1.28 -12.1 0 1 620.48 748.83
  C 619.42 747.43 613.06 747.84 616.60 748.39
  Q 616.91 748.43 616.60 748.43
  L 597.03 748.44
  Q 596.82 748.44 597.00 748.36
  Q 598.10 747.90 596.52 748.15
  Q 591.27 748.97 586.00 748.54
  Q 585.51 748.50 585.97 748.37
  Q 588.58 747.62 586.56 747.46
  Q 586.35 747.44 586.53 747.32
  Q 586.77 747.17 586.64 747.07
  C 586.52 746.97 580.82 747.15 580.06 747.10
  Q 579.59 747.07 579.10 747.27
  Q 576.83 748.19 574.46 747.56
  A 0.38 0.28 23.4 0 0 574.09 747.65
  Q 574.01 747.76 574.02 747.88
  A 0.30 0.20 83.2 0 1 573.85 748.21
  L 566.68 748.89
  Q 566.22 748.94 566.68 748.94
  Q 569.60 749.00 566.89 749.41
  Q 566.69 749.44 566.47 749.43
  C 544.98 748.96 523.50 748.85 502.01 748.45
  Q 477.83 747.99 453.74 750.24
  C 450.64 750.53 446.68 750.44 442.75 750.75
  C 438.95 751.05 433.95 750.39 429.46 749.45
  C 424.15 748.35 419.18 749.97 414.74 750.57
  Q 408.22 751.45 402.25 754.29"
/>
<path stroke="#8731a7" vector-effect="non-scaling-stroke" d="
  M 428.21 695.50
  L 428.50 698.54"
/>
<path stroke="#7b40b5" vector-effect="non-scaling-stroke" d="
  M 428.50 698.54
  L 428.53 699.92"
/>
<path stroke="#7f30a9" vector-effect="non-scaling-stroke" d="
  M 431.29 694.75
  C 431.20 695.48 431.91 702.38 430.50 698.79"
/>
<path stroke="#8b209b" vector-effect="non-scaling-stroke" d="
  M 430.50 698.79
  Q 430.56 697.46 429.77 696.99
  A 0.56 0.51 26.0 0 1 429.51 696.35
  Q 429.93 695.23 429.71 694.00"
/>
<path stroke="#ac2899" vector-effect="non-scaling-stroke" d="
  M 437.21 660.50
  Q 436.04 661.31 435.29 662.50"
/>
<path stroke="#b92f97" vector-effect="non-scaling-stroke" d="
  M 435.29 662.50
  Q 434.95 661.48 435.29 660.50"
/>
<path stroke="#b92f97" vector-effect="non-scaling-stroke" d="
  M 437.00 658.71
  Q 436.30 659.81 435.29 660.50"
/>
<path stroke="#c03396" vector-effect="non-scaling-stroke" d="
  M 435.29 660.50
  L 435.21 660.00"
/>
<path stroke="#a6249b" vector-effect="non-scaling-stroke" d="
  M 435.75 665.00
  L 431.50 672.04"
/>
<path stroke="#a6249b" vector-effect="non-scaling-stroke" d="
  M 437.12 667.25
  Q 434.87 668.64 434.54 671.25
  A 1.54 0.85 -32.2 0 1 434.10 672.05
  L 432.25 674.00"
/>
<path stroke="#a6249b" vector-effect="non-scaling-stroke" d="
  M 432.25 674.00
  C 432.91 671.39 435.74 667.12 435.75 665.00"
/>
<path stroke="#a5259b" vector-effect="non-scaling-stroke" d="
  M 439.00 662.71
  L 435.75 665.00"
/>
<path stroke="#a5259b" vector-effect="non-scaling-stroke" d="
  M 435.75 665.00
  L 436.29 663.48
  A 1.21 0.41 -16.8 0 1 437.04 662.94
  Q 438.00 662.57 437.75 661.29"
/>
<path stroke="#c13fa1" vector-effect="non-scaling-stroke" d="
  M 439.46 629.00
  L 437.39 631.70"
/>
<path stroke="#c43295" vector-effect="non-scaling-stroke" d="
  M 437.39 631.70
  C 435.83 630.87 424.69 624.77 427.28 622.72
  A 1.01 0.75 74.9 0 0 427.58 621.95
  L 427.46 619.25"
/>
<path stroke="#b32c99" vector-effect="non-scaling-stroke" d="
  M 435.29 662.50
  Q 435.03 664.61 433.55 666.09
  A 1.77 1.63 -18.9 0 0 433.10 666.92
  Q 432.72 668.60 431.71 670.00"
/>
<path stroke="#ae39a3" vector-effect="non-scaling-stroke" d="
  M 437.39 631.70
  Q 428.59 643.43 421.54 656.00"
/>
<path stroke="#9e2699" vector-effect="non-scaling-stroke" d="
  M 421.54 656.00
  L 417.00 651.71
  Q 416.56 651.30 416.21 651.19
  C 413.39 650.30 414.55 646.76 411.33 645.20
  A 1.03 1.03 -60.0 0 1 410.93 643.70
  Q 411.92 642.23 410.54 641.50"
/>
<path stroke="#6a21a5" vector-effect="non-scaling-stroke" d="
  M 409.60 683.46
  L 404.78 678.92
  A 1.20 0.83 -19.7 0 0 403.95 678.70
  C 403.09 678.77 399.14 673.36 398.52 672.42
  A 0.99 0.73 -12.0 0 0 397.75 672.07
  Q 397.09 672.07 397.44 671.31
  Q 396.69 669.36 395.08 668.23"
/>
<path stroke="#a6249b" vector-effect="non-scaling-stroke" d="
  M 431.04 674.75
  L 428.71 681.00"
/>
<path stroke="#a6249b" vector-effect="non-scaling-stroke" d="
  M 428.71 681.00
  C 427.21 682.16 428.38 683.82 426.79 684.75"
/>
<path stroke="#a6249b" vector-effect="non-scaling-stroke" d="
  M 429.04 687.50
  L 427.71 692.25"
/>
<path stroke="#9533a7" vector-effect="non-scaling-stroke" d="
  M 427.71 692.25
  Q 426.31 694.23 426.46 691.75"
/>
<path stroke="#a6249b" vector-effect="non-scaling-stroke" d="
  M 432.25 674.00
  L 431.04 674.75"
/>
<path stroke="#a6249b" vector-effect="non-scaling-stroke" d="
  M 431.04 674.75
  Q 431.35 673.64 431.21 672.50"
/>
<path stroke="#a6249b" vector-effect="non-scaling-stroke" d="
  M 591.46 680.00
  Q 590.65 680.01 590.46 679.00"
/>
<path stroke="#a6249b" vector-effect="non-scaling-stroke" d="
  M 589.00 672.04
  L 590.46 679.00"
/>
<path stroke="#a6249b" vector-effect="non-scaling-stroke" d="
  M 590.46 679.00
  L 590.04 678.50"
/>
<path stroke="#9533a7" vector-effect="non-scaling-stroke" d="
  M 592.04 682.50
  L 592.18 685.78
  A 0.62 0.38 88.1 0 1 591.81 686.43
  Q 591.57 686.43 591.29 686.25"
/>
<path stroke="#99229b" vector-effect="non-scaling-stroke" d="
  M 429.71 688.25
  L 429.29 689.00"
/>
<path stroke="#a6249b" vector-effect="non-scaling-stroke" d="
  M 429.29 689.00
  Q 429.38 688.18 429.04 687.50"
/>
<path stroke="#a6249b" vector-effect="non-scaling-stroke" d="
  M 429.04 687.50
  L 428.79 683.75"
/>
<path stroke="#8b209b" vector-effect="non-scaling-stroke" d="
  M 430.54 692.00
  L 430.39 693.89
  Q 430.36 694.26 430.20 693.90
  Q 429.88 693.15 429.71 694.00"
/>
<path stroke="#8b209b" vector-effect="non-scaling-stroke" d="
  M 429.71 694.00
  Q 429.36 693.85 429.21 693.50"
/>
<path stroke="#a6249b" vector-effect="non-scaling-stroke" d="
  M 431.29 678.25
  L 428.79 683.75"
/>
<path stroke="#a6249b" vector-effect="non-scaling-stroke" d="
  M 428.79 683.75
  Q 429.06 682.33 428.71 681.00"
/>
<path stroke="#3339a6" vector-effect="non-scaling-stroke" d="
  M 613.39 762.85
  L 607.50 763.29"
/>
<path stroke="#423a99" vector-effect="non-scaling-stroke" d="
  M 607.50 763.29
  Q 603.31 763.00 595.75 763.00
  Q 515.00 763.00 434.25 763.00
  Q 420.07 763.00 413.00 763.29"
/>
<path stroke="#3339a6" vector-effect="non-scaling-stroke" d="
  M 413.00 763.29
  Q 410.87 763.51 409.04 762.50"
/>
<path stroke="#99229b" vector-effect="non-scaling-stroke" d="
  M 429.29 689.00
  L 429.21 693.50"
/>
<path stroke="#99229b" vector-effect="non-scaling-stroke" d="
  M 429.21 693.50
  Q 428.24 694.22 428.21 695.50"
/>
<path stroke="#9533a7" vector-effect="non-scaling-stroke" d="
  M 428.21 695.50
  L 427.71 692.25"
/>
<path stroke="#490d63" vector-effect="non-scaling-stroke" d="
  M 413.00 763.29
  Q 412.45 764.94 414.25 764.80
  Q 422.64 764.14 431.00 765.00
  C 433.03 765.21 435.43 764.75 437.34 764.77
  C 461.49 765.02 485.61 764.64 509.75 764.84
  Q 556.36 765.24 602.97 765.00
  C 604.99 764.99 606.54 765.59 607.50 763.29"
/>
<path stroke="#2b0a4d" vector-effect="non-scaling-stroke" d="
  M 603.50 793.71
  Q 603.77 793.05 604.75 793.25
  Q 606.52 793.61 610.75 793.07
  Q 611.26 793.00 610.75 792.96
  C 601.89 792.33 593.13 791.74 584.06 791.78
  Q 496.49 792.10 408.92 792.00
  Q 407.46 792.00 406.11 792.36
  Q 404.78 792.71 403.36 793.13"
/>
</g>
<path fill="#34096c" d="
  M 408.53 267.35
  Q 407.54 268.43 406.21 268.14
  A 0.81 0.41 22.7 0 0 405.66 268.18
  Q 405.47 268.30 405.53 268.48
  A 0.66 0.39 -5.2 0 0 406.11 268.75
  Q 510.68 269.41 615.24 268.77
  Q 618.97 268.75 622.75 268.95
  Q 626.50 269.14 630.26 269.33
  C 636.48 272.31 640.72 279.92 637.96 286.75
  Q 637.03 286.30 636.77 285.30
  A 0.85 0.73 87.1 0 0 636.20 284.70
  C 634.12 284.23 630.68 282.66 628.37 283.92
  A 1.51 1.28 -51.3 0 1 627.44 284.10
  Q 618.02 282.58 608.50 283.16
  A 0.76 0.50 68.3 0 1 607.93 282.76
  C 607.40 281.87 570.36 282.51 565.36 282.11
  Q 563.20 281.94 560.00 282.00
  Q 544.64 282.28 529.27 282.73
  C 517.60 283.06 505.23 282.93 493.19 283.14
  C 470.78 283.54 449.56 281.18 424.94 283.38
  Q 422.17 283.63 419.22 283.12
  C 411.75 281.82 404.21 283.03 397.43 282.92
  Q 392.87 282.86 388.31 282.82
  A 1.54 0.88 14.2 0 0 387.38 283.08
  L 384.17 285.77
  Q 385.12 263.49 408.53 267.35
  Z"
/>
<path fill="#110428" d="
  M 408.53 267.35
  Q 581.61 267.08 623.75 267.25
  Q 626.48 267.26 630.26 269.33
  Q 626.50 269.14 622.75 268.95
  Q 618.97 268.75 615.24 268.77
  Q 510.68 269.41 406.11 268.75
  A 0.66 0.39 -5.2 0 1 405.53 268.48
  Q 405.47 268.30 405.66 268.18
  A 0.81 0.41 22.7 0 1 406.21 268.14
  Q 407.54 268.43 408.53 267.35
  Z"
/>
<path fill="#400d71" d="
  M 637.96 286.75
  C 633.47 300.19 622.68 297.40 611.04 298.25
  Q 610.95 297.74 610.00 297.75
  Q 531.78 298.38 411.00 297.79
  C 398.71 298.74 388.21 298.48 384.17 285.77
  L 387.38 283.08
  A 1.54 0.88 14.2 0 1 388.31 282.82
  Q 392.87 282.86 397.43 282.92
  C 404.21 283.03 411.75 281.82 419.22 283.12
  Q 422.17 283.63 424.94 283.38
  C 449.56 281.18 470.78 283.54 493.19 283.14
  C 505.23 282.93 517.60 283.06 529.27 282.73
  Q 544.64 282.28 560.00 282.00
  Q 563.20 281.94 565.36 282.11
  C 570.36 282.51 607.40 281.87 607.93 282.76
  A 0.76 0.50 68.3 0 0 608.50 283.16
  Q 618.02 282.58 627.44 284.10
  A 1.51 1.28 -51.3 0 0 628.37 283.92
  C 630.68 282.66 634.12 284.23 636.20 284.70
  A 0.85 0.73 87.1 0 1 636.77 285.30
  Q 637.03 286.30 637.96 286.75
  Z"
/>
<path fill="#e25a6c" d="
  M 611.04 298.25
  L 610.96 299.00
  Q 609.40 298.18 607.94 298.78
  Q 607.55 298.95 607.01 298.97
  L 602.50 299.21
  Q 599.25 299.49 592.00 299.50
  C 533.56 299.59 475.06 299.13 416.63 299.73
  C 411.17 299.79 407.37 304.30 404.44 308.69
  C 399.37 316.27 395.20 321.64 392.39 329.61
  C 389.69 337.29 387.65 345.34 388.50 353.75
  Q 390.44 372.96 400.18 388.67
  C 402.77 392.86 405.17 397.79 408.29 402.00
  Q 412.26 406.13 412.96 411.75
  C 398.82 393.59 386.65 372.10 386.25 348.75
  C 385.94 330.51 397.08 311.02 410.39 299.20
  C 411.00 298.66 411.09 298.58 411.00 297.79
  Q 531.78 298.38 610.00 297.75
  Q 610.95 297.74 611.04 298.25
  Z"
/>
<path fill="#fa9052" d="
  M 610.96 299.00
  C 627.12 313.25 637.63 334.60 635.18 356.00
  C 632.59 378.56 618.37 400.03 604.37 417.38
  C 586.63 439.37 567.60 461.39 552.06 483.81
  Q 542.96 496.94 537.50 513.25
  Q 537.02 514.70 536.94 521.18
  Q 536.94 521.63 536.68 522.11
  Q 535.87 523.59 536.45 525.31
  C 537.25 527.63 536.92 530.13 537.34 532.20
  C 537.93 535.05 538.39 537.87 539.54 540.56
  Q 541.90 546.04 544.29 551.50
  Q 542.67 552.38 542.95 554.08
  A 0.64 0.59 74.7 0 1 542.60 554.76
  L 531.21 559.56
  A 1.23 1.18 62.7 0 0 530.69 561.31
  L 532.50 564.21
  Q 532.00 564.36 531.07 564.06
  Q 525.15 547.71 521.21 530.75
  C 521.45 525.20 519.94 520.09 520.17 514.81
  C 520.41 509.32 520.27 503.77 521.15 498.45
  Q 522.86 488.08 524.50 481.25
  C 528.86 463.08 540.01 444.60 550.55 430.79
  L 547.95 436.55
  Q 547.78 436.94 548.00 436.57
  Q 548.40 435.90 548.61 436.73
  Q 548.70 437.10 548.81 436.74
  Q 549.30 435.20 549.81 437.07
  A 1.50 1.09 -47.3 0 1 549.70 438.00
  Q 548.94 439.58 550.56 440.19
  Q 553.27 441.21 553.95 443.46
  A 0.92 0.84 88.6 0 0 554.54 444.08
  Q 558.79 445.30 563.25 445.41
  C 568.34 445.52 563.98 450.90 563.32 453.01
  C 562.52 455.58 566.53 448.88 564.54 453.44
  Q 564.17 454.29 564.99 453.85
  C 568.58 451.95 571.01 448.83 573.30 446.73
  C 577.36 443.03 581.35 439.55 584.91 435.35
  Q 586.24 433.78 588.11 432.79
  Q 588.57 432.55 588.84 432.15
  C 594.44 423.94 600.88 417.42 606.96 408.75
  C 608.44 406.07 611.87 404.02 612.56 401.32
  Q 613.09 399.20 614.78 397.82
  Q 619.52 393.93 621.41 388.30
  A 1.47 1.31 -9.8 0 1 622.00 387.56
  C 627.16 384.31 630.92 367.22 632.03 361.40
  C 632.86 357.07 633.06 352.80 633.53 348.42
  C 633.82 345.75 632.74 342.73 632.50 341.03
  Q 630.57 327.51 622.79 316.25
  Q 618.85 308.65 611.81 303.69
  Q 610.29 302.61 608.35 299.85
  A 1.07 0.89 70.3 0 0 607.57 299.39
  L 602.50 299.21
  L 607.01 298.97
  Q 607.55 298.95 607.94 298.78
  Q 609.40 298.18 610.96 299.00
  Z"
/>
<path fill="#fb5439" d="
  M 602.50 299.21
  L 607.57 299.39
  A 1.07 0.89 70.3 0 1 608.35 299.85
  Q 610.29 302.61 611.81 303.69
  Q 618.85 308.65 622.79 316.25
  L 622.65 318.02
  A 0.80 0.59 -5.9 0 1 622.01 318.60
  C 616.79 319.64 612.76 317.52 608.73 316.60
  A 0.95 0.57 -54.3 0 0 607.99 316.92
  Q 607.65 317.29 607.21 316.73
  A 1.91 0.91 64.5 0 0 606.47 316.13
  C 599.68 313.59 588.94 314.60 582.56 316.06
  Q 581.57 316.29 581.48 316.76
  A 0.91 0.08 53.5 0 0 581.92 317.48
  Q 582.19 317.85 581.25 318.04
  C 568.21 313.47 554.62 313.52 540.50 313.55
  Q 502.50 313.64 464.50 313.44
  C 447.81 313.35 434.65 315.49 422.18 327.19
  C 409.74 338.85 403.89 354.97 407.40 371.70
  C 409.53 381.90 413.85 389.04 419.79 399.25
  Q 417.58 402.15 412.84 404.56
  Q 411.00 405.50 410.66 403.46
  Q 410.36 401.65 408.29 402.00
  C 405.17 397.79 402.77 392.86 400.18 388.67
  Q 390.44 372.96 388.50 353.75
  C 387.65 345.34 389.69 337.29 392.39 329.61
  C 395.20 321.64 399.37 316.27 404.44 308.69
  C 407.37 304.30 411.17 299.79 416.63 299.73
  C 475.06 299.13 533.56 299.59 592.00 299.50
  Q 599.25 299.49 602.50 299.21
  Z"
/>
<path fill="#ff7952" d="
  M 581.25 318.04
  C 607.72 329.75 620.48 357.48 608.69 384.94
  Q 606.59 389.82 602.50 396.96
  L 586.40 420.41
  Q 584.19 423.62 583.94 419.70
  C 583.61 414.61 586.88 412.50 588.06 408.17
  Q 588.19 407.69 588.54 407.33
  C 593.62 402.13 598.07 395.03 600.77 387.26
  C 601.95 383.85 601.11 379.59 601.75 375.50
  Q 602.86 368.44 600.42 361.48
  A 0.96 0.85 -0.1 0 0 599.77 360.91
  Q 597.54 360.30 597.31 356.68
  Q 580.89 363.78 566.00 373.54
  C 538.47 390.57 504.19 420.70 496.00 453.46
  Q 490.10 473.14 494.06 493.06
  C 496.55 505.60 500.71 516.48 504.46 528.25
  L 503.96 529.25
  C 498.83 513.94 493.90 502.64 491.54 488.50
  Q 489.25 473.33 491.78 458.26
  C 492.67 452.97 495.55 448.48 497.22 443.46
  Q 498.98 438.17 499.52 437.05
  C 501.78 432.44 505.45 429.02 507.43 424.07
  Q 508.00 422.66 510.94 419.69
  C 513.30 417.30 515.86 412.53 518.77 409.47
  Q 533.27 394.26 549.79 381.25
  Q 569.50 367.72 590.98 357.27
  C 592.95 356.31 594.36 354.69 592.56 352.69
  Q 590.59 350.50 588.50 350.00
  Q 584.27 349.00 581.16 346.18
  C 574.77 340.40 554.60 341.38 545.93 341.12
  Q 512.24 340.10 478.53 340.01
  C 471.61 339.99 458.63 339.47 448.62 340.01
  Q 445.20 340.19 442.24 341.93
  Q 441.71 342.24 439.76 342.71
  C 433.94 344.11 427.81 350.69 424.82 355.68
  C 420.66 363.74 421.27 373.33 423.48 381.85
  C 424.53 385.89 427.27 389.30 427.64 394.28
  Q 427.80 396.54 428.65 398.09
  Q 432.98 406.06 437.78 413.74
  Q 439.33 416.21 438.94 417.69
  Q 438.36 419.87 435.10 420.76
  A 0.61 0.58 -23.8 0 1 434.45 420.53
  L 419.79 399.25
  C 413.85 389.04 409.53 381.90 407.40 371.70
  C 403.89 354.97 409.74 338.85 422.18 327.19
  C 434.65 315.49 447.81 313.35 464.50 313.44
  Q 502.50 313.64 540.50 313.55
  C 554.62 313.52 568.21 313.47 581.25 318.04
  Z"
/>
<path fill="#fc6539" d="
  M 622.79 316.25
  Q 630.57 327.51 632.50 341.03
  C 632.74 342.73 633.82 345.75 633.53 348.42
  C 633.06 352.80 632.86 357.07 632.03 361.40
  C 630.92 367.22 627.16 384.31 622.00 387.56
  A 1.47 1.31 -9.8 0 0 621.41 388.30
  Q 619.52 393.93 614.78 397.82
  Q 613.09 399.20 612.56 401.32
  C 611.87 404.02 608.44 406.07 606.96 408.75
  L 606.24 408.82
  Q 605.72 408.87 606.17 408.48
  Q 606.68 408.05 605.97 407.69
  Q 605.54 407.47 605.18 407.12
  C 603.46 405.42 600.14 409.27 600.67 405.24
  Q 600.70 405.02 600.52 404.31
  L 600.19 402.93
  A 0.57 0.43 -10.9 0 1 600.69 402.38
  Q 602.20 402.13 601.53 400.92
  A 1.26 0.79 48.7 0 1 601.38 400.01
  L 601.86 398.65
  A 1.39 0.45 -26.6 0 1 602.52 398.00
  Q 603.07 397.66 602.50 396.96
  Q 606.59 389.82 608.69 384.94
  C 620.48 357.48 607.72 329.75 581.25 318.04
  Q 582.19 317.85 581.92 317.48
  A 0.91 0.08 53.5 0 1 581.48 316.76
  Q 581.57 316.29 582.56 316.06
  C 588.94 314.60 599.68 313.59 606.47 316.13
  A 1.91 0.91 64.5 0 1 607.21 316.73
  Q 607.65 317.29 607.99 316.92
  A 0.95 0.57 -54.3 0 1 608.73 316.60
  C 612.76 317.52 616.79 319.64 622.01 318.60
  A 0.80 0.59 -5.9 0 0 622.65 318.02
  L 622.79 316.25
  Z"
/>
<path fill="#ff6e39" d="
  M 549.79 381.25
  Q 550.12 380.29 549.21 380.57
  A 1.66 1.00 -32.3 0 1 548.28 380.59
  C 544.82 379.28 551.70 380.33 549.26 378.27
  C 548.25 377.42 542.37 377.16 540.75 377.00
  C 537.11 376.64 534.44 377.40 531.49 377.38
  C 527.58 377.36 524.18 378.81 520.57 378.81
  Q 491.85 378.77 463.20 380.90
  Q 462.73 380.93 462.27 381.21
  C 460.05 382.55 457.97 381.56 456.12 381.57
  Q 449.68 381.59 442.19 381.78
  Q 441.41 381.80 440.69 381.49
  Q 437.60 380.16 434.54 378.93
  C 430.49 377.29 429.30 375.23 426.94 371.81
  Q 421.69 364.23 424.82 355.68
  C 427.81 350.69 433.94 344.11 439.76 342.71
  Q 441.71 342.24 442.24 341.93
  Q 445.20 340.19 448.62 340.01
  C 458.63 339.47 471.61 339.99 478.53 340.01
  Q 512.24 340.10 545.93 341.12
  C 554.60 341.38 574.77 340.40 581.16 346.18
  Q 584.27 349.00 588.50 350.00
  Q 590.59 350.50 592.56 352.69
  C 594.36 354.69 592.95 356.31 590.98 357.27
  Q 569.50 367.72 549.79 381.25
  Z"
/>
<path fill="#fc8043" d="
  M 424.82 355.68
  Q 421.69 364.23 426.94 371.81
  C 429.30 375.23 430.49 377.29 434.54 378.93
  Q 437.60 380.16 440.69 381.49
  Q 441.41 381.80 442.19 381.78
  Q 449.68 381.59 456.12 381.57
  C 457.97 381.56 460.05 382.55 462.27 381.21
  Q 462.73 380.93 463.20 380.90
  Q 491.85 378.77 520.57 378.81
  C 524.18 378.81 527.58 377.36 531.49 377.38
  C 534.44 377.40 537.11 376.64 540.75 377.00
  C 542.37 377.16 548.25 377.42 549.26 378.27
  C 551.70 380.33 544.82 379.28 548.28 380.59
  A 1.66 1.00 -32.3 0 0 549.21 380.57
  Q 550.12 380.29 549.79 381.25
  Q 533.27 394.26 518.77 409.47
  C 515.86 412.53 513.30 417.30 510.94 419.69
  Q 508.00 422.66 507.43 424.07
  C 505.45 429.02 501.78 432.44 499.52 437.05
  Q 498.98 438.17 497.22 443.46
  C 495.55 448.48 492.67 452.97 491.78 458.26
  Q 489.25 473.33 491.54 488.50
  C 491.47 491.44 490.63 501.77 486.29 501.04
  A 0.61 0.55 7.0 0 1 485.77 500.44
  L 485.82 499.79
  A 0.60 0.52 -80.3 0 0 485.45 499.18
  C 484.63 498.94 480.35 496.69 480.14 496.81
  A 0.46 0.34 -29.8 0 1 479.57 496.74
  L 471.71 482.67
  A 2.46 2.40 -14.7 0 0 469.55 481.44
  Q 468.13 481.47 466.96 480.25
  C 449.12 456.24 430.44 434.95 412.96 411.75
  Q 412.26 406.13 408.29 402.00
  Q 410.36 401.65 410.66 403.46
  Q 411.00 405.50 412.84 404.56
  Q 417.58 402.15 419.79 399.25
  L 434.45 420.53
  A 0.61 0.58 -23.8 0 0 435.10 420.76
  Q 438.36 419.87 438.94 417.69
  Q 439.33 416.21 437.78 413.74
  Q 432.98 406.06 428.65 398.09
  Q 427.80 396.54 427.64 394.28
  C 427.27 389.30 424.53 385.89 423.48 381.85
  C 421.27 373.33 420.66 363.74 424.82 355.68
  Z"
/>
<path fill="#ffffff" d="
  M 597.31 356.68
  L 593.71 363.25
  Q 570.32 400.48 551.94 424.94
  C 527.79 457.06 511.92 489.70 521.21 530.75
  Q 525.15 547.71 531.07 564.06
  Q 543.65 592.42 537.75 622.96
  Q 535.27 632.96 531.25 642.46
  C 514.37 678.04 484.56 708.51 450.70 728.33
  Q 444.49 731.96 438.25 735.65
  L 434.75 737.50
  Q 433.00 738.42 433.69 736.69
  L 435.04 733.25
  L 442.85 715.97
  Q 456.82 690.29 473.48 666.24
  Q 483.53 652.82 492.00 638.29
  C 512.92 604.62 517.35 565.06 504.46 528.25
  C 500.71 516.48 496.55 505.60 494.06 493.06
  Q 490.10 473.14 496.00 453.46
  C 498.13 450.59 500.09 450.05 501.09 446.31
  Q 501.61 444.32 502.18 443.21
  Q 506.86 433.92 512.65 425.28
  C 513.98 423.28 516.20 421.64 517.75 418.75
  Q 520.85 412.97 527.38 408.41
  C 531.23 405.73 533.19 401.42 537.02 398.66
  Q 540.10 396.44 541.65 394.91
  Q 545.48 391.14 549.90 388.06
  C 555.62 384.08 560.75 379.93 565.87 375.58
  A 1.02 0.64 -32.3 0 0 566.26 374.76
  L 566.00 373.54
  Q 580.89 363.78 597.31 356.68
  Z"
/>
<path fill="#fb8144" d="
  M 597.31 356.68
  Q 597.54 360.30 599.77 360.91
  A 0.96 0.85 -0.1 0 1 600.42 361.48
  Q 602.86 368.44 601.75 375.50
  C 601.11 379.59 601.95 383.85 600.77 387.26
  C 598.07 395.03 593.62 402.13 588.54 407.33
  Q 588.19 407.69 588.06 408.17
  C 586.88 412.50 583.61 414.61 583.94 419.70
  Q 584.19 423.62 586.40 420.41
  L 602.50 396.96
  Q 603.07 397.66 602.52 398.00
  A 1.39 0.45 -26.6 0 0 601.86 398.65
  L 601.38 400.01
  A 1.26 0.79 48.7 0 0 601.53 400.92
  Q 602.20 402.13 600.69 402.38
  A 0.57 0.43 -10.9 0 0 600.19 402.93
  L 600.52 404.31
  Q 600.70 405.02 600.67 405.24
  C 600.14 409.27 603.46 405.42 605.18 407.12
  Q 605.54 407.47 605.97 407.69
  Q 606.68 408.05 606.17 408.48
  Q 605.72 408.87 606.24 408.82
  L 606.96 408.75
  C 600.88 417.42 594.44 423.94 588.84 432.15
  Q 588.57 432.55 588.11 432.79
  Q 586.24 433.78 584.91 435.35
  C 581.35 439.55 577.36 443.03 573.30 446.73
  C 571.01 448.83 568.58 451.95 564.99 453.85
  Q 564.17 454.29 564.54 453.44
  C 566.53 448.88 562.52 455.58 563.32 453.01
  C 563.98 450.90 568.34 445.52 563.25 445.41
  Q 558.79 445.30 554.54 444.08
  A 0.92 0.84 88.6 0 1 553.95 443.46
  Q 553.27 441.21 550.56 440.19
  Q 548.94 439.58 549.70 438.00
  A 1.50 1.09 -47.3 0 0 549.81 437.07
  Q 549.30 435.20 548.81 436.74
  Q 548.70 437.10 548.61 436.73
  Q 548.40 435.90 548.00 436.57
  Q 547.78 436.94 547.95 436.55
  L 550.55 430.79
  C 564.05 410.33 579.20 390.86 591.94 368.44
  Q 593.62 365.47 593.71 363.25
  L 597.31 356.68
  Z"
/>
<path fill="#e08b5a" d="
  M 593.71 363.25
  Q 593.62 365.47 591.94 368.44
  C 579.20 390.86 564.05 410.33 550.55 430.79
  C 540.01 444.60 528.86 463.08 524.50 481.25
  Q 522.86 488.08 521.15 498.45
  C 520.27 503.77 520.41 509.32 520.17 514.81
  C 519.94 520.09 521.45 525.20 521.21 530.75
  C 511.92 489.70 527.79 457.06 551.94 424.94
  Q 570.32 400.48 593.71 363.25
  Z"
/>
<path fill="#f9efe7" d="
  M 566.00 373.54
  L 566.26 374.76
  A 1.02 0.64 -32.3 0 1 565.87 375.58
  C 560.75 379.93 555.62 384.08 549.90 388.06
  Q 545.48 391.14 541.65 394.91
  Q 540.10 396.44 537.02 398.66
  C 533.19 401.42 531.23 405.73 527.38 408.41
  Q 520.85 412.97 517.75 418.75
  C 516.20 421.64 513.98 423.28 512.65 425.28
  Q 506.86 433.92 502.18 443.21
  Q 501.61 444.32 501.09 446.31
  C 500.09 450.05 498.13 450.59 496.00 453.46
  C 504.19 420.70 538.47 390.57 566.00 373.54
  Z"
/>
<path fill="#fc8760" d="
  M 491.54 488.50
  C 493.90 502.64 498.83 513.94 503.96 529.25
  Q 506.97 539.38 508.96 549.75
  Q 508.29 549.97 507.78 550.45
  A 0.92 0.82 -56.6 0 1 506.95 550.67
  Q 501.49 549.20 496.15 551.25
  A 1.60 1.47 40.0 0 1 495.21 551.29
  C 491.62 550.28 488.21 552.74 484.72 550.47
  A 1.12 0.73 -82.5 0 1 484.34 549.68
  Q 484.21 548.19 481.45 548.61
  A 1.03 1.02 3.6 0 0 480.62 549.34
  C 480.43 550.00 477.94 556.14 477.23 554.54
  A 1.18 0.55 -56.4 0 1 477.36 553.67
  Q 477.57 553.23 477.29 552.75
  Q 482.98 541.94 484.75 533.00
  C 488.52 513.97 478.36 496.55 466.96 480.25
  Q 468.13 481.47 469.55 481.44
  A 2.46 2.40 -14.7 0 1 471.71 482.67
  L 479.57 496.74
  A 0.46 0.34 -29.8 0 0 480.14 496.81
  C 480.35 496.69 484.63 498.94 485.45 499.18
  A 0.60 0.52 -80.3 0 1 485.82 499.79
  L 485.77 500.44
  A 0.61 0.55 7.0 0 0 486.29 501.04
  C 490.63 501.77 491.47 491.44 491.54 488.50
  Z"
/>
<path fill="#c93196" d="
  M 504.46 528.25
  C 517.35 565.06 512.92 604.62 492.00 638.29
  Q 490.15 638.61 489.69 640.44
  Q 489.08 642.85 486.44 642.69
  Q 484.13 642.54 481.97 643.32
  A 1.67 1.44 39.7 0 1 481.02 643.34
  Q 479.55 642.92 478.05 643.30
  A 0.55 0.33 81.3 0 0 477.82 643.86
  C 477.86 644.11 475.29 643.95 474.71 644.08
  Q 474.33 644.17 474.68 644.40
  Q 475.50 644.95 473.75 644.81
  Q 470.09 644.51 466.44 644.67
  A 0.26 0.22 -83.7 0 1 466.23 644.36
  L 466.32 643.99
  A 0.53 0.42 3.3 0 0 465.75 643.49
  L 454.50 643.95
  A 0.63 0.47 77.5 0 1 453.98 643.50
  C 453.39 641.76 444.40 647.54 443.50 648.21
  Q 448.09 643.79 451.35 639.59
  Q 452.22 638.46 451.04 639.28
  L 440.45 646.63
  Q 440.69 645.16 441.59 644.27
  C 444.18 641.69 448.49 637.77 449.99 634.51
  Q 450.30 633.83 449.74 634.27
  L 448.38 635.31
  Q 448.20 635.44 448.31 635.26
  L 449.96 632.50
  C 450.52 631.31 454.09 625.66 455.59 626.21
  A 0.89 0.51 26.5 0 0 456.36 626.17
  Q 459.34 623.53 463.20 622.66
  A 0.70 0.51 67.3 0 1 463.83 623.04
  C 464.99 625.22 487.22 622.62 489.57 622.22
  C 491.91 621.82 495.18 620.35 498.50 620.50
  Q 500.01 620.57 500.75 618.75
  Q 504.79 608.87 507.13 598.49
  Q 510.51 584.95 510.21 571.00
  Q 510.28 560.33 508.96 549.75
  Q 506.97 539.38 503.96 529.25
  L 504.46 528.25
  Z"
/>
<path fill="#fe7171" d="
  M 508.96 549.75
  Q 510.28 560.33 510.21 571.00
  Q 510.43 568.92 509.44 569.27
  A 1.70 0.62 -28.2 0 1 508.52 569.40
  C 506.13 568.87 504.26 567.98 501.76 568.07
  Q 491.74 568.43 481.75 567.54
  A 1.29 0.83 17.5 0 0 480.84 567.79
  L 480.36 568.28
  Q 480.11 568.53 480.05 568.19
  C 479.86 567.01 476.31 567.65 475.03 567.23
  A 0.39 0.36 -63.7 0 1 474.86 566.66
  Q 475.74 565.30 473.68 565.30
  A 1.31 0.68 -54.2 0 0 472.88 565.70
  Q 472.46 566.10 471.91 565.99
  A 0.64 0.55 18.1 0 0 471.24 566.27
  Q 470.43 567.83 468.79 566.75
  L 477.29 552.75
  Q 477.57 553.23 477.36 553.67
  A 1.18 0.55 -56.4 0 0 477.23 554.54
  C 477.94 556.14 480.43 550.00 480.62 549.34
  A 1.03 1.02 3.6 0 1 481.45 548.61
  Q 484.21 548.19 484.34 549.68
  A 1.12 0.73 -82.5 0 0 484.72 550.47
  C 488.21 552.74 491.62 550.28 495.21 551.29
  A 1.60 1.47 40.0 0 0 496.15 551.25
  Q 501.49 549.20 506.95 550.67
  A 0.92 0.82 -56.6 0 0 507.78 550.45
  Q 508.29 549.97 508.96 549.75
  Z"
/>
<path fill="#f65785" d="
  M 544.29 551.50
  Q 556.22 572.61 572.04 591.00
  L 569.89 595.02
  A 0.95 0.66 -72.8 0 1 569.25 595.52
  Q 566.17 595.76 564.30 598.10
  A 0.29 0.28 23.9 0 0 564.49 598.55
  C 566.33 598.93 563.36 601.20 562.99 601.41
  A 0.34 0.34 -32.9 0 0 562.88 601.91
  L 576.04 619.00
  Q 576.22 621.17 574.25 621.26
  Q 573.73 621.28 573.29 621.46
  Q 570.66 622.56 568.60 620.60
  A 0.69 0.57 -36.7 0 0 567.85 620.56
  Q 566.91 621.07 565.82 619.94
  Q 564.99 619.07 563.94 618.50
  C 562.41 617.66 561.65 616.03 560.49 615.04
  Q 558.43 613.28 557.25 611.50
  Q 554.09 606.73 548.75 604.75
  A 2.33 1.15 24.6 0 0 546.56 604.81
  Q 545.50 606.04 544.14 605.53
  A 1.46 1.42 -42.2 0 0 543.22 605.50
  C 541.79 605.95 541.33 604.50 541.27 603.31
  C 540.53 588.35 538.32 575.89 532.50 564.21
  L 530.69 561.31
  A 1.23 1.18 62.7 0 1 531.21 559.56
  L 542.60 554.76
  A 0.64 0.59 74.7 0 0 542.95 554.08
  Q 542.67 552.38 544.29 551.50
  Z"
/>
<path fill="#d93799" d="
  M 531.07 564.06
  Q 532.00 564.36 532.50 564.21
  C 538.32 575.89 540.53 588.35 541.27 603.31
  C 541.33 604.50 541.79 605.95 543.22 605.50
  A 1.46 1.42 -42.2 0 1 544.14 605.53
  Q 545.50 606.04 546.56 604.81
  A 2.33 1.15 24.6 0 1 548.75 604.75
  Q 554.09 606.73 557.25 611.50
  Q 558.43 613.28 560.49 615.04
  C 561.65 616.03 562.41 617.66 563.94 618.50
  Q 564.99 619.07 565.82 619.94
  Q 566.91 621.07 567.85 620.56
  A 0.69 0.57 -36.7 0 1 568.60 620.60
  Q 570.66 622.56 573.29 621.46
  Q 573.73 621.28 574.25 621.26
  Q 576.22 621.17 576.04 619.00
  L 588.04 635.75
  C 585.09 639.47 580.50 644.10 576.34 637.99
  Q 576.07 637.61 576.10 638.06
  Q 576.27 640.64 575.04 638.91
  Q 572.15 634.82 573.75 639.46
  L 572.75 638.79
  L 570.85 636.85
  Q 570.74 636.73 570.08 636.46
  L 567.72 635.48
  Q 566.57 635.01 566.07 634.96
  C 563.24 634.71 561.12 634.89 557.68 635.34
  Q 548.40 636.55 538.98 632.19
  Q 537.35 631.43 537.94 629.73
  C 538.56 627.92 540.24 624.37 537.75 622.96
  Q 543.65 592.42 531.07 564.06
  Z"
/>
<path fill="#fb5783" d="
  M 510.21 571.00
  Q 510.51 584.95 507.13 598.49
  C 505.80 593.64 503.08 595.67 499.86 595.42
  C 497.41 595.23 495.43 594.68 493.00 594.88
  Q 487.02 595.39 481.02 595.30
  C 478.03 595.26 475.43 593.78 472.06 593.91
  A 0.84 0.64 71.5 0 1 471.39 593.46
  Q 471.18 593.07 470.80 592.92
  A 1.02 0.74 -47.8 0 0 469.90 593.11
  Q 468.20 594.41 467.33 596.29
  C 465.75 599.67 464.89 600.75 462.41 602.93
  A 1.68 1.67 -13.3 0 0 461.89 603.77
  Q 460.89 607.33 458.77 609.82
  A 0.47 0.46 43.4 0 1 458.08 609.83
  Q 456.78 608.48 456.15 606.73
  A 0.28 0.23 -31.7 0 0 455.72 606.67
  L 455.04 607.25
  Q 453.89 604.83 451.42 605.46
  A 1.17 1.15 50.0 0 1 450.68 605.39
  Q 448.20 604.29 446.43 605.24
  A 0.92 0.59 81.7 0 0 446.09 605.99
  Q 446.09 606.74 444.99 606.60
  A 0.73 0.64 88.9 0 1 444.44 606.00
  Q 444.06 603.38 441.92 601.69
  Q 456.20 584.90 468.79 566.75
  Q 470.43 567.83 471.24 566.27
  A 0.64 0.55 18.1 0 1 471.91 565.99
  Q 472.46 566.10 472.88 565.70
  A 1.31 0.68 -54.2 0 1 473.68 565.30
  Q 475.74 565.30 474.86 566.66
  A 0.39 0.36 -63.7 0 0 475.03 567.23
  C 476.31 567.65 479.86 567.01 480.05 568.19
  Q 480.11 568.53 480.36 568.28
  L 480.84 567.79
  A 1.29 0.83 17.5 0 1 481.75 567.54
  Q 491.74 568.43 501.76 568.07
  C 504.26 567.98 506.13 568.87 508.52 569.40
  A 1.70 0.62 -28.2 0 0 509.44 569.27
  Q 510.43 568.92 510.21 571.00
  Z"
/>
<path fill="#c03396" d="
  M 572.04 591.00
  C 586.23 607.99 601.05 624.96 613.25 643.46
  Q 612.15 644.07 612.08 645.14
  C 611.99 646.42 616.09 651.96 616.96 653.50
  L 608.65 663.94
  A 0.55 0.45 37.6 0 1 607.96 663.96
  Q 607.15 663.37 606.21 664.75
  Q 597.85 649.80 588.04 635.75
  L 576.04 619.00
  L 562.88 601.91
  A 0.34 0.34 -32.9 0 1 562.99 601.41
  C 563.36 601.20 566.33 598.93 564.49 598.55
  A 0.29 0.28 23.9 0 1 564.30 598.10
  Q 566.17 595.76 569.25 595.52
  A 0.95 0.66 -72.8 0 0 569.89 595.02
  L 572.04 591.00
  Z"
/>
<path fill="#ed3f91" d="
  M 507.13 598.49
  Q 504.79 608.87 500.75 618.75
  Q 500.01 620.57 498.50 620.50
  C 495.18 620.35 491.91 621.82 489.57 622.22
  C 487.22 622.62 464.99 625.22 463.83 623.04
  A 0.70 0.51 67.3 0 0 463.20 622.66
  Q 459.34 623.53 456.36 626.17
  A 0.89 0.51 26.5 0 1 455.59 626.21
  C 454.09 625.66 450.52 631.31 449.96 632.50
  L 448.40 633.57
  Q 448.09 633.78 448.07 633.43
  L 447.87 629.81
  Q 447.84 629.36 447.70 629.81
  Q 447.44 630.63 446.70 631.05
  A 0.77 0.59 49.6 0 1 445.91 630.88
  C 444.44 629.50 442.21 632.45 442.35 631.49
  A 0.44 0.43 9.7 0 0 442.00 631.00
  Q 440.23 630.67 439.46 629.00
  L 455.04 607.25
  L 455.72 606.67
  A 0.28 0.23 -31.7 0 1 456.15 606.73
  Q 456.78 608.48 458.08 609.83
  A 0.47 0.46 43.4 0 0 458.77 609.82
  Q 460.89 607.33 461.89 603.77
  A 1.68 1.67 -13.3 0 1 462.41 602.93
  C 464.89 600.75 465.75 599.67 467.33 596.29
  Q 468.20 594.41 469.90 593.11
  A 1.02 0.74 -47.8 0 1 470.80 592.92
  Q 471.18 593.07 471.39 593.46
  A 0.84 0.64 71.5 0 0 472.06 593.91
  C 475.43 593.78 478.03 595.26 481.02 595.30
  Q 487.02 595.39 493.00 594.88
  C 495.43 594.68 497.41 595.23 499.86 595.42
  C 503.08 595.67 505.80 593.64 507.13 598.49
  Z"
/>
<path fill="#d63892" d="
  M 441.92 601.69
  Q 444.06 603.38 444.44 606.00
  A 0.73 0.64 88.9 0 0 444.99 606.60
  Q 446.09 606.74 446.09 605.99
  A 0.92 0.59 81.7 0 1 446.43 605.24
  Q 448.20 604.29 450.68 605.39
  A 1.17 1.15 50.0 0 0 451.42 605.46
  Q 453.89 604.83 455.04 607.25
  L 439.46 629.00
  L 437.39 631.70
  C 435.83 630.87 424.69 624.77 427.28 622.72
  A 1.01 0.75 74.9 0 0 427.58 621.95
  L 427.46 619.25
  L 441.92 601.69
  Z"
/>
<path fill="#b12b97" d="
  M 427.46 619.25
  L 427.58 621.95
  A 1.01 0.75 74.9 0 1 427.28 622.72
  C 424.69 624.77 435.83 630.87 437.39 631.70
  Q 428.59 643.43 421.54 656.00
  L 417.00 651.71
  Q 416.56 651.30 416.21 651.19
  C 413.39 650.30 414.55 646.76 411.33 645.20
  A 1.03 1.03 -60.0 0 1 410.93 643.70
  Q 411.92 642.23 410.54 641.50
  Q 418.48 629.98 427.46 619.25
  Z"
/>
<path fill="#a6249b" d="
  M 537.75 622.96
  C 540.24 624.37 538.56 627.92 537.94 629.73
  Q 537.35 631.43 538.98 632.19
  Q 548.40 636.55 557.68 635.34
  C 561.12 634.89 563.24 634.71 566.07 634.96
  Q 566.57 635.01 567.72 635.48
  L 570.08 636.46
  Q 570.74 636.73 570.85 636.85
  L 572.75 638.79
  L 573.77 641.85
  Q 573.91 642.30 574.02 642.44
  Q 574.48 643.05 573.81 642.85
  Q 573.53 642.78 573.67 643.01
  L 580.81 655.22
  L 583.29 661.25
  L 585.04 666.75
  Q 585.61 669.69 587.28 671.80
  Q 583.48 668.45 577.50 669.75
  C 569.41 671.51 561.86 669.34 553.75 669.25
  Q 546.91 669.17 538.44 667.56
  C 537.58 667.40 537.04 667.91 535.88 667.57
  Q 528.83 665.48 522.72 661.16
  Q 528.81 651.89 532.31 643.56
  Q 532.79 642.42 531.25 642.46
  Q 535.27 632.96 537.75 622.96
  Z"
/>
<path fill="#ab46af" d="
  M 439.46 629.00
  Q 440.23 630.67 442.00 631.00
  A 0.44 0.43 9.7 0 1 442.35 631.49
  C 442.21 632.45 444.44 629.50 445.91 630.88
  A 0.77 0.59 49.6 0 0 446.70 631.05
  Q 447.44 630.63 447.70 629.81
  Q 447.84 629.36 447.87 629.81
  L 448.07 633.43
  Q 448.09 633.78 448.40 633.57
  L 449.96 632.50
  L 448.31 635.26
  Q 448.20 635.44 448.38 635.31
  L 449.74 634.27
  Q 450.30 633.83 449.99 634.51
  C 448.49 637.77 444.18 641.69 441.59 644.27
  Q 440.69 645.16 440.45 646.63
  Q 436.74 652.27 433.27 657.97
  C 432.38 659.44 432.49 660.87 433.25 662.29
  Q 432.99 665.62 431.19 668.44
  Q 429.86 670.52 429.75 671.00
  Q 428.73 675.55 430.55 672.74
  A 1.82 0.94 76.0 0 0 430.77 671.81
  Q 430.78 670.71 431.71 670.00
  L 431.50 672.04
  L 431.21 672.50
  Q 429.01 675.76 427.89 679.51
  A 1.51 1.17 -14.1 0 1 427.31 680.25
  Q 426.27 680.94 426.70 681.99
  Q 426.91 682.51 426.89 682.94
  L 426.79 684.75
  C 426.53 686.93 425.21 689.11 426.46 691.75
  Q 424.93 693.83 425.75 696.25
  Q 425.91 696.73 425.69 698.81
  Q 425.53 700.29 426.26 700.05
  A 0.42 0.39 -17.2 0 1 426.79 700.30
  Q 427.22 701.79 428.53 699.92
  Q 428.97 703.15 428.83 706.25
  Q 428.65 710.28 428.13 707.28
  Q 427.54 703.88 426.92 708.06
  A 0.61 0.61 14.6 0 1 426.10 708.54
  Q 423.50 707.54 421.21 706.08
  Q 417.91 703.97 416.73 703.01
  Q 413.70 700.53 412.79 696.54
  A 1.60 0.88 89.8 0 0 412.33 695.71
  L 407.96 692.25
  L 409.60 683.46
  Q 413.77 669.02 421.54 656.00
  Q 428.59 643.43 437.39 631.70
  L 439.46 629.00
  Z"
/>
<path fill="#b648ad" d="
  M 588.04 635.75
  Q 597.85 649.80 606.21 664.75
  L 607.75 668.46
  C 605.10 670.00 605.06 673.89 603.24 677.31
  A 1.57 0.83 -10.3 0 1 602.51 677.88
  Q 601.25 678.40 600.81 680.81
  C 600.10 684.72 593.70 686.87 593.96 681.25
  Q 593.98 680.87 593.71 680.34
  L 592.54 678.00
  Q 592.02 674.26 590.25 670.96
  L 589.54 668.50
  C 590.45 669.36 592.11 673.69 591.79 670.87
  Q 591.76 670.59 591.53 670.20
  Q 591.24 669.73 591.33 669.22
  Q 591.47 668.48 591.43 668.26
  Q 591.16 666.91 590.10 666.09
  Q 589.63 665.73 589.45 665.37
  L 586.54 659.50
  Q 584.82 654.93 582.13 650.90
  C 580.25 648.09 577.15 642.83 573.75 639.46
  Q 572.15 634.82 575.04 638.91
  Q 576.27 640.64 576.10 638.06
  Q 576.07 637.61 576.34 637.99
  C 580.50 644.10 585.09 639.47 588.04 635.75
  Z"
/>
<path fill="#a3269a" d="
  M 492.00 638.29
  Q 483.53 652.82 473.48 666.24
  Q 469.45 669.57 464.77 671.62
  Q 464.33 671.81 464.81 671.84
  Q 468.46 672.05 464.98 672.67
  A 1.39 1.13 -71.4 0 0 464.22 673.15
  Q 462.80 674.93 459.94 673.81
  Q 456.30 672.40 449.75 673.25
  Q 448.21 673.45 447.97 672.56
  A 0.71 0.62 85.3 0 0 447.44 672.05
  L 440.29 671.12
  Q 440.11 671.09 440.27 670.97
  L 440.45 670.83
  Q 440.86 670.52 440.15 670.47
  Q 437.58 670.27 435.50 672.04
  L 437.12 667.25
  L 437.33 665.68
  A 1.45 0.81 -27.9 0 1 437.84 664.89
  Q 438.83 664.04 439.00 662.71
  C 439.57 659.54 442.96 659.06 442.97 656.81
  Q 442.97 656.26 442.57 656.66
  L 437.75 661.29
  Q 437.05 661.21 437.21 660.50
  C 437.35 660.15 439.42 657.66 439.01 657.45
  A 0.59 0.43 -60.0 0 0 438.36 657.74
  Q 437.92 658.50 437.00 658.71
  Q 438.57 655.33 441.00 652.50
  Q 442.00 651.33 442.75 648.54
  Q 443.18 648.50 443.50 648.21
  C 444.40 647.54 453.39 641.76 453.98 643.50
  A 0.63 0.47 77.5 0 0 454.50 643.95
  L 465.75 643.49
  A 0.53 0.42 3.3 0 1 466.32 643.99
  L 466.23 644.36
  A 0.26 0.22 -83.7 0 0 466.44 644.67
  Q 470.09 644.51 473.75 644.81
  Q 475.50 644.95 474.68 644.40
  Q 474.33 644.17 474.71 644.08
  C 475.29 643.95 477.86 644.11 477.82 643.86
  A 0.55 0.33 81.3 0 1 478.05 643.30
  Q 479.55 642.92 481.02 643.34
  A 1.67 1.44 39.7 0 0 481.97 643.32
  Q 484.13 642.54 486.44 642.69
  Q 489.08 642.85 489.69 640.44
  Q 490.15 638.61 492.00 638.29
  Z"
/>
<path fill="#c03396" d="
  M 443.50 648.21
  Q 443.18 648.50 442.75 648.54
  Q 441.72 648.65 441.38 649.51
  Q 441.14 650.11 440.90 650.36
  C 439.84 651.48 438.76 652.37 438.20 653.88
  Q 437.23 656.44 435.56 658.61
  A 1.82 1.09 78.4 0 0 435.25 659.50
  L 435.21 660.00
  Q 433.63 660.52 433.25 662.29
  C 432.49 660.87 432.38 659.44 433.27 657.97
  Q 436.74 652.27 440.45 646.63
  L 451.04 639.28
  Q 452.22 638.46 451.35 639.59
  Q 448.09 643.79 443.50 648.21
  Z"
/>
<path fill="#c03396" d="
  M 572.75 638.79
  L 573.75 639.46
  C 577.15 642.83 580.25 648.09 582.13 650.90
  Q 584.82 654.93 586.54 659.50
  Q 586.06 659.15 585.71 659.50
  Q 583.75 656.24 581.54 653.17
  C 579.00 649.65 582.85 657.24 583.00 657.50
  L 580.81 655.22
  L 573.67 643.01
  Q 573.53 642.78 573.81 642.85
  Q 574.48 643.05 574.02 642.44
  Q 573.91 642.30 573.77 641.85
  L 572.75 638.79
  Z"
/>
<path fill="#8b209b" d="
  M 410.54 641.50
  Q 411.92 642.23 410.93 643.70
  A 1.03 1.03 -60.0 0 0 411.33 645.20
  C 414.55 646.76 413.39 650.30 416.21 651.19
  Q 416.56 651.30 417.00 651.71
  L 421.54 656.00
  Q 413.77 669.02 409.60 683.46
  L 404.78 678.92
  A 1.20 0.83 -19.7 0 0 403.95 678.70
  C 403.09 678.77 399.14 673.36 398.52 672.42
  A 0.99 0.73 -12.0 0 0 397.75 672.07
  Q 397.09 672.07 397.44 671.31
  Q 396.69 669.36 395.08 668.23
  Q 401.56 654.19 410.54 641.50
  Z"
/>
<path fill="#52217d" d="
  M 531.25 642.46
  Q 532.79 642.42 532.31 643.56
  Q 528.81 651.89 522.72 661.16
  L 510.25 679.04
  L 499.71 691.22
  C 493.74 697.02 488.48 703.88 481.96 708.86
  Q 473.75 715.12 465.36 721.11
  Q 460.66 722.96 456.82 726.20
  C 453.70 728.83 450.07 730.22 445.93 733.09
  Q 442.54 735.43 438.25 735.65
  Q 444.49 731.96 450.70 728.33
  C 484.56 708.51 514.37 678.04 531.25 642.46
  Z"
/>
<path fill="#6b277f" d="
  M 613.25 643.46
  Q 627.72 664.03 634.46 688.25
  Q 634.01 688.39 633.55 688.32
  A 0.97 0.76 80.8 0 1 632.89 687.71
  Q 626.53 669.86 616.96 653.50
  C 616.09 651.96 611.99 646.42 612.08 645.14
  Q 612.15 644.07 613.25 643.46
  Z"
/>
<path fill="#c03396" d="
  M 442.75 648.54
  Q 442.00 651.33 441.00 652.50
  Q 438.57 655.33 437.00 658.71
  Q 436.30 659.81 435.29 660.50
  L 435.21 660.00
  L 435.25 659.50
  A 1.82 1.09 78.4 0 1 435.56 658.61
  Q 437.23 656.44 438.20 653.88
  C 438.76 652.37 439.84 651.48 440.90 650.36
  Q 441.14 650.11 441.38 649.51
  Q 441.72 648.65 442.75 648.54
  Z"
/>
<path fill="#c03396" d="
  M 585.71 659.50
  L 586.21 661.50
  Q 586.00 661.54 585.96 661.75
  Q 585.08 659.15 583.00 657.50
  C 582.85 657.24 579.00 649.65 581.54 653.17
  Q 583.75 656.24 585.71 659.50
  Z"
/>
<path fill="#641da2" d="
  M 616.96 653.50
  Q 626.53 669.86 632.89 687.71
  A 0.97 0.76 80.8 0 0 633.55 688.32
  Q 634.01 688.39 634.46 688.25
  Q 638.30 702.02 636.54 716.25
  L 636.18 714.54
  A 0.39 0.36 -20.2 0 0 635.63 714.31
  C 633.68 715.32 631.81 713.46 629.10 714.07
  Q 628.61 714.18 629.11 714.27
  Q 632.14 714.82 629.47 714.70
  C 627.52 714.61 626.78 714.26 624.25 714.75
  Q 620.60 715.46 612.75 714.65
  L 613.96 710.50
  C 617.69 696.38 614.48 681.11 607.75 668.46
  L 606.21 664.75
  Q 607.15 663.37 607.96 663.96
  A 0.55 0.45 37.6 0 0 608.65 663.94
  L 616.96 653.50
  Z"
/>
<path fill="#a6249b" d="
  M 580.81 655.22
  L 583.00 657.50
  L 586.21 664.00
  L 588.29 668.25
  L 589.46 672.00
  L 589.00 672.04
  Q 588.48 670.06 587.00 668.75
  Q 586.25 664.45 583.29 661.25
  L 580.81 655.22
  Z"
/>
<path fill="#a3269a" d="
  M 439.00 662.71
  L 435.75 665.00
  L 436.29 663.48
  A 1.21 0.41 -16.8 0 1 437.04 662.94
  Q 438.00 662.57 437.75 661.29
  L 442.57 656.66
  Q 442.97 656.26 442.97 656.81
  C 442.96 659.06 439.57 659.54 439.00 662.71
  Z"
/>
<path fill="#b12b97" d="
  M 437.21 660.50
  Q 436.04 661.31 435.29 662.50
  Q 434.95 661.48 435.29 660.50
  Q 436.30 659.81 437.00 658.71
  Q 437.92 658.50 438.36 657.74
  A 0.59 0.43 -60.0 0 1 439.01 657.45
  C 439.42 657.66 437.35 660.15 437.21 660.50
  Z"
/>
<path fill="#c03396" d="
  M 583.00 657.50
  Q 585.08 659.15 585.96 661.75
  L 586.21 664.00
  L 583.00 657.50
  Z"
/>
<path fill="#ab46af" d="
  M 586.54 659.50
  L 589.45 665.37
  Q 589.63 665.73 590.10 666.09
  Q 591.16 666.91 591.43 668.26
  Q 591.47 668.48 591.33 669.22
  Q 591.24 669.73 591.53 670.20
  Q 591.76 670.59 591.79 670.87
  C 592.11 673.69 590.45 669.36 589.54 668.50
  L 586.21 661.50
  L 585.71 659.50
  Q 586.06 659.15 586.54 659.50
  Z"
/>
<path fill="#c03396" d="
  M 435.21 660.00
  L 435.29 660.50
  Q 434.95 661.48 435.29 662.50
  Q 435.03 664.61 433.55 666.09
  A 1.77 1.63 -18.9 0 0 433.10 666.92
  Q 432.72 668.60 431.71 670.00
  Q 430.78 670.71 430.77 671.81
  A 1.82 0.94 76.0 0 1 430.55 672.74
  Q 428.73 675.55 429.75 671.00
  Q 429.86 670.52 431.19 668.44
  Q 432.99 665.62 433.25 662.29
  Q 433.63 660.52 435.21 660.00
  Z"
/>
<path fill="#a6249b" d="
  M 437.21 660.50
  Q 437.05 661.21 437.75 661.29
  Q 438.00 662.57 437.04 662.94
  A 1.21 0.41 -16.8 0 0 436.29 663.48
  L 435.75 665.00
  L 431.50 672.04
  L 431.71 670.00
  Q 432.72 668.60 433.10 666.92
  A 1.77 1.63 -18.9 0 1 433.55 666.09
  Q 435.03 664.61 435.29 662.50
  Q 436.04 661.31 437.21 660.50
  Z"
/>
<path fill="#801b9f" d="
  M 522.72 661.16
  Q 528.83 665.48 535.88 667.57
  C 537.04 667.91 537.58 667.40 538.44 667.56
  Q 546.91 669.17 553.75 669.25
  C 561.86 669.34 569.41 671.51 577.50 669.75
  Q 583.48 668.45 587.28 671.80
  L 589.54 679.50
  Q 590.56 688.93 587.21 697.75
  C 586.94 695.65 586.36 697.95 586.05 698.02
  A 0.55 0.34 86.5 0 1 585.64 697.44
  L 585.64 694.19
  A 0.98 0.74 17.9 0 0 585.12 693.45
  Q 581.96 691.75 579.75 691.50
  Q 568.80 690.25 548.25 689.31
  C 541.16 688.98 534.31 687.53 527.25 687.42
  C 521.75 687.33 517.38 684.50 512.42 682.21
  A 0.83 0.82 -74.4 0 1 511.95 681.36
  Q 512.05 680.58 511.76 680.27
  A 0.99 0.35 -20.4 0 0 510.87 680.28
  Q 510.04 680.55 510.25 679.04
  L 522.72 661.16
  Z"
/>
<path fill="#a6249b" d="
  M 583.29 661.25
  Q 586.25 664.45 587.00 668.75
  Q 586.30 667.43 585.04 666.75
  L 583.29 661.25
  Z"
/>
<path fill="#ab46af" d="
  M 586.21 661.50
  L 589.54 668.50
  L 590.25 670.96
  L 588.29 668.25
  L 586.21 664.00
  L 585.96 661.75
  Q 586.00 661.54 586.21 661.50
  Z"
/>
<path fill="#a6249b" d="
  M 439.00 662.71
  Q 438.83 664.04 437.84 664.89
  A 1.45 0.81 -27.9 0 0 437.33 665.68
  L 437.12 667.25
  Q 434.87 668.64 434.54 671.25
  A 1.54 0.85 -32.2 0 1 434.10 672.05
  L 432.25 674.00
  C 432.91 671.39 435.74 667.12 435.75 665.00
  L 439.00 662.71
  Z"
/>
<path fill="#a6249b" d="
  M 435.75 665.00
  C 435.74 667.12 432.91 671.39 432.25 674.00
  L 431.04 674.75
  Q 431.35 673.64 431.21 672.50
  L 431.50 672.04
  L 435.75 665.00
  Z"
/>
<path fill="#7a1e9f" d="
  M 473.48 666.24
  Q 456.82 690.29 442.85 715.97
  Q 442.64 713.68 440.06 711.69
  C 438.17 710.22 437.40 704.71 436.45 704.15
  A 1.30 0.54 22.5 0 1 435.85 703.55
  Q 433.43 696.57 434.97 703.51
  Q 435.07 703.95 434.81 703.57
  Q 432.34 699.82 432.21 695.25
  Q 432.27 691.36 432.77 687.50
  Q 432.95 686.08 432.23 686.76
  Q 431.55 687.41 431.84 686.52
  C 432.02 685.95 434.01 676.31 432.29 680.25
  L 433.25 675.29
  L 435.50 672.04
  Q 437.58 670.27 440.15 670.47
  Q 440.86 670.52 440.45 670.83
  L 440.27 670.97
  Q 440.11 671.09 440.29 671.12
  L 447.44 672.05
  A 0.71 0.62 85.3 0 1 447.97 672.56
  Q 448.21 673.45 449.75 673.25
  Q 456.30 672.40 459.94 673.81
  Q 462.80 674.93 464.22 673.15
  A 1.39 1.13 -71.4 0 1 464.98 672.67
  Q 468.46 672.05 464.81 671.84
  Q 464.33 671.81 464.77 671.62
  Q 469.45 669.57 473.48 666.24
  Z"
/>
<path fill="#a6249b" d="
  M 585.04 666.75
  Q 586.30 667.43 587.00 668.75
  Q 587.03 669.63 587.46 670.34
  A 1.46 1.37 34.4 0 1 587.66 671.25
  C 587.41 673.44 589.58 675.85 590.04 678.50
  L 590.25 681.21
  Q 589.65 680.50 589.54 679.50
  L 587.28 671.80
  Q 585.61 669.69 585.04 666.75
  Z"
/>
<path fill="#a6249b" d="
  M 437.12 667.25
  L 435.50 672.04
  L 433.25 675.29
  Q 432.10 676.44 431.75 678.04
  Q 431.49 678.09 431.29 678.25
  Q 431.33 676.04 432.25 674.00
  L 434.10 672.05
  A 1.54 0.85 -32.2 0 0 434.54 671.25
  Q 434.87 668.64 437.12 667.25
  Z"
/>
<path fill="#4922ae" d="
  M 395.08 668.23
  Q 396.69 669.36 397.44 671.31
  Q 397.09 672.07 397.75 672.07
  A 0.99 0.73 -12.0 0 1 398.52 672.42
  C 399.14 673.36 403.09 678.77 403.95 678.70
  A 1.20 0.83 -19.7 0 1 404.78 678.92
  L 409.60 683.46
  L 407.96 692.25
  Q 405.70 707.11 411.29 721.00
  Q 415.45 732.30 423.79 741.00
  L 426.69 744.81
  Q 427.33 745.66 426.19 745.56
  Q 417.73 744.84 409.53 746.74
  C 405.91 747.58 402.60 747.23 399.50 750.54
  C 382.14 725.01 382.07 695.64 395.08 668.23
  Z"
/>
<path fill="#a6249b" d="
  M 588.29 668.25
  L 590.25 670.96
  Q 592.02 674.26 592.54 678.00
  Q 591.90 679.19 591.29 677.25
  L 589.46 672.00
  L 588.29 668.25
  Z"
/>
<path fill="#8341b2" d="
  M 607.75 668.46
  C 614.48 681.11 617.69 696.38 613.96 710.50
  Q 612.20 712.04 610.66 710.66
  A 0.88 0.80 54.8 0 0 609.84 710.48
  C 605.87 711.83 602.37 711.55 599.48 714.28
  A 0.12 0.11 31.6 0 0 599.53 714.47
  Q 599.68 714.52 599.72 714.64
  A 0.50 0.29 -25.0 0 1 599.41 715.08
  Q 597.35 716.11 595.18 716.88
  C 593.64 717.44 592.39 718.92 590.31 718.85
  Q 589.81 718.84 590.12 718.42
  Q 591.47 716.63 589.78 717.25
  Q 589.33 717.41 589.62 717.04
  Q 590.33 716.12 591.13 715.27
  C 592.78 713.50 594.71 713.62 594.92 710.56
  A 0.32 0.31 -9.3 0 0 594.48 710.25
  Q 590.79 711.80 587.92 714.59
  A 0.88 0.84 30.2 0 1 587.08 714.79
  Q 584.87 714.16 582.74 714.63
  Q 582.26 714.73 582.55 714.35
  Q 584.86 711.28 587.74 708.73
  C 587.99 708.51 588.99 706.19 587.57 707.58
  Q 586.37 708.75 585.07 709.79
  Q 584.35 710.36 585.06 709.58
  A 0.32 0.30 56.4 0 0 585.11 709.28
  C 584.82 708.53 586.76 706.78 585.52 707.55
  Q 585.32 707.68 585.41 707.45
  Q 587.93 701.11 584.33 706.64
  Q 583.94 707.24 584.06 706.56
  Q 584.19 705.84 585.00 705.00
  Q 586.76 703.17 586.79 699.90
  Q 587.35 698.95 587.21 697.75
  Q 590.56 688.93 589.54 679.50
  Q 589.65 680.50 590.25 681.21
  L 591.29 686.25
  Q 591.49 691.28 590.75 696.25
  C 590.39 698.67 591.92 697.37 592.12 696.52
  Q 592.54 694.73 592.65 692.90
  C 592.88 689.21 593.53 686.20 592.04 682.50
  L 591.46 680.00
  L 591.29 677.25
  Q 591.90 679.19 592.54 678.00
  L 593.71 680.34
  Q 593.98 680.87 593.96 681.25
  C 593.70 686.87 600.10 684.72 600.81 680.81
  Q 601.25 678.40 602.51 677.88
  A 1.57 0.83 -10.3 0 0 603.24 677.31
  C 605.06 673.89 605.10 670.00 607.75 668.46
  Z"
/>
<path fill="#a6249b" d="
  M 587.00 668.75
  Q 588.48 670.06 589.00 672.04
  L 590.46 679.00
  L 590.04 678.50
  C 589.58 675.85 587.41 673.44 587.66 671.25
  A 1.46 1.37 34.4 0 0 587.46 670.34
  Q 587.03 669.63 587.00 668.75
  Z"
/>
<path fill="#a6249b" d="
  M 589.00 672.04
  L 589.46 672.00
  L 591.29 677.25
  L 591.46 680.00
  Q 590.65 680.01 590.46 679.00
  L 589.00 672.04
  Z"
/>
<path fill="#a6249b" d="
  M 431.21 672.50
  Q 431.35 673.64 431.04 674.75
  L 428.71 681.00
  C 427.21 682.16 428.38 683.82 426.79 684.75
  L 426.89 682.94
  Q 426.91 682.51 426.70 681.99
  Q 426.27 680.94 427.31 680.25
  A 1.51 1.17 -14.1 0 0 427.89 679.51
  Q 429.01 675.76 431.21 672.50
  Z"
/>
<path fill="#a6249b" d="
  M 432.25 674.00
  Q 431.33 676.04 431.29 678.25
  L 428.79 683.75
  Q 429.06 682.33 428.71 681.00
  L 431.04 674.75
  L 432.25 674.00
  Z"
/>
<path fill="#8b209b" d="
  M 433.25 675.29
  L 432.29 680.25
  L 431.21 689.50
  L 430.54 692.00
  L 429.71 688.25
  L 431.75 678.04
  Q 432.10 676.44 433.25 675.29
  Z"
/>
<path fill="#a6249b" d="
  M 431.75 678.04
  L 429.71 688.25
  L 429.29 689.00
  Q 429.38 688.18 429.04 687.50
  L 428.79 683.75
  L 431.29 678.25
  Q 431.49 678.09 431.75 678.04
  Z"
/>
<path fill="#a6249b" d="
  M 590.04 678.50
  L 590.46 679.00
  Q 590.65 680.01 591.46 680.00
  L 592.04 682.50
  L 592.18 685.78
  A 0.62 0.38 88.1 0 1 591.81 686.43
  Q 591.57 686.43 591.29 686.25
  L 590.25 681.21
  L 590.04 678.50
  Z"
/>
<path fill="#801b9f" d="
  M 432.21 695.25
  Q 431.89 694.80 431.29 694.75
  L 431.21 689.50
  L 432.29 680.25
  C 434.01 676.31 432.02 685.95 431.84 686.52
  Q 431.55 687.41 432.23 686.76
  Q 432.95 686.08 432.77 687.50
  Q 432.27 691.36 432.21 695.25
  Z"
/>
<path fill="#6818a4" d="
  M 510.25 679.04
  Q 510.04 680.55 510.87 680.28
  A 0.99 0.35 -20.4 0 1 511.76 680.27
  Q 512.05 680.58 511.95 681.36
  A 0.83 0.82 -74.4 0 0 512.42 682.21
  C 517.38 684.50 521.75 687.33 527.25 687.42
  C 534.31 687.53 541.16 688.98 548.25 689.31
  Q 568.80 690.25 579.75 691.50
  Q 581.96 691.75 585.12 693.45
  A 0.98 0.74 17.9 0 1 585.64 694.19
  L 585.64 697.44
  A 0.55 0.34 86.5 0 0 586.05 698.02
  C 586.36 697.95 586.94 695.65 587.21 697.75
  Q 587.35 698.95 586.79 699.90
  Q 582.51 709.59 573.75 715.46
  Q 575.01 713.34 577.07 712.02
  A 1.49 1.17 -13.7 0 0 577.66 711.27
  Q 578.26 709.32 576.70 710.02
  A 0.46 0.46 66.9 0 1 576.08 709.77
  C 575.04 707.16 573.24 708.00 571.07 707.61
  Q 567.48 706.97 570.24 705.53
  Q 570.68 705.30 570.22 705.14
  Q 566.35 703.75 561.96 704.02
  Q 561.29 704.06 561.81 703.65
  C 563.33 702.44 561.77 702.78 561.19 702.72
  Q 552.88 701.88 544.56 701.11
  A 1.08 0.31 -44.6 0 0 543.84 701.50
  C 542.17 702.95 524.08 700.17 523.20 700.01
  Q 520.55 699.53 518.57 701.11
  A 1.26 1.07 -57.1 0 1 517.70 701.37
  Q 512.51 700.68 507.42 699.43
  C 506.19 699.13 504.80 699.68 503.48 698.48
  A 0.14 0.13 -36.8 0 1 503.52 698.27
  L 503.74 698.15
  Q 504.18 697.90 503.54 697.72
  C 501.23 697.08 506.44 696.27 504.26 695.35
  A 0.33 0.30 -61.1 0 1 504.15 694.87
  C 504.41 694.47 502.51 694.02 501.95 693.74
  A 0.45 0.44 -60.0 0 1 501.79 693.10
  Q 502.96 691.27 499.71 691.22
  L 510.25 679.04
  Z"
/>
<path fill="#a6249b" d="
  M 428.71 681.00
  Q 429.06 682.33 428.79 683.75
  L 429.04 687.50
  L 427.71 692.25
  Q 426.31 694.23 426.46 691.75
  C 425.21 689.11 426.53 686.93 426.79 684.75
  C 428.38 683.82 427.21 682.16 428.71 681.00
  Z"
/>
<path fill="#8341b2" d="
  M 592.04 682.50
  C 593.53 686.20 592.88 689.21 592.65 692.90
  Q 592.54 694.73 592.12 696.52
  C 591.92 697.37 590.39 698.67 590.75 696.25
  Q 591.49 691.28 591.29 686.25
  Q 591.57 686.43 591.81 686.43
  A 0.62 0.38 88.1 0 0 592.18 685.78
  L 592.04 682.50
  Z"
/>
<path fill="#a6249b" d="
  M 429.04 687.50
  Q 429.38 688.18 429.29 689.00
  L 429.21 693.50
  Q 428.24 694.22 428.21 695.50
  L 427.71 692.25
  L 429.04 687.50
  Z"
/>
<path fill="#8b209b" d="
  M 429.71 688.25
  L 430.54 692.00
  L 430.39 693.89
  Q 430.36 694.26 430.20 693.90
  Q 429.88 693.15 429.71 694.00
  Q 429.36 693.85 429.21 693.50
  L 429.29 689.00
  L 429.71 688.25
  Z"
/>
<path fill="#8b209b" d="
  M 431.21 689.50
  L 431.29 694.75
  C 431.20 695.48 431.91 702.38 430.50 698.79
  Q 430.56 697.46 429.77 696.99
  A 0.56 0.51 26.0 0 1 429.51 696.35
  Q 429.93 695.23 429.71 694.00
  Q 429.88 693.15 430.20 693.90
  Q 430.36 694.26 430.39 693.89
  L 430.54 692.00
  L 431.21 689.50
  Z"
/>
<path fill="#541baa" d="
  M 499.71 691.22
  Q 502.96 691.27 501.79 693.10
  A 0.45 0.44 -60.0 0 0 501.95 693.74
  C 502.51 694.02 504.41 694.47 504.15 694.87
  A 0.33 0.30 -61.1 0 0 504.26 695.35
  C 506.44 696.27 501.23 697.08 503.54 697.72
  Q 504.18 697.90 503.74 698.15
  L 503.52 698.27
  A 0.14 0.13 -36.8 0 0 503.48 698.48
  C 504.80 699.68 506.19 699.13 507.42 699.43
  Q 512.51 700.68 517.70 701.37
  A 1.26 1.07 -57.1 0 0 518.57 701.11
  Q 520.55 699.53 523.20 700.01
  C 524.08 700.17 542.17 702.95 543.84 701.50
  A 1.08 0.31 -44.6 0 1 544.56 701.11
  Q 552.88 701.88 561.19 702.72
  C 561.77 702.78 563.33 702.44 561.81 703.65
  Q 561.29 704.06 561.96 704.02
  Q 566.35 703.75 570.22 705.14
  Q 570.68 705.30 570.24 705.53
  Q 567.48 706.97 571.07 707.61
  C 573.24 708.00 575.04 707.16 576.08 709.77
  A 0.46 0.46 66.9 0 0 576.70 710.02
  Q 578.26 709.32 577.66 711.27
  A 1.49 1.17 -13.7 0 1 577.07 712.02
  Q 575.01 713.34 573.75 715.46
  Q 566.07 720.34 556.50 720.75
  Q 519.85 722.33 486.75 721.56
  Q 476.04 721.31 465.36 721.11
  Q 473.75 715.12 481.96 708.86
  C 488.48 703.88 493.74 697.02 499.71 691.22
  Z"
/>
<path fill="#8341b2" d="
  M 426.46 691.75
  Q 426.31 694.23 427.71 692.25
  L 428.21 695.50
  L 428.50 698.54
  L 428.53 699.92
  Q 427.22 701.79 426.79 700.30
  A 0.42 0.39 -17.2 0 0 426.26 700.05
  Q 425.53 700.29 425.69 698.81
  Q 425.91 696.73 425.75 696.25
  Q 424.93 693.83 426.46 691.75
  Z"
/>
<path fill="#723fb7" d="
  M 407.96 692.25
  L 412.33 695.71
  A 1.60 0.88 89.8 0 1 412.79 696.54
  Q 413.70 700.53 416.73 703.01
  Q 417.91 703.97 421.21 706.08
  Q 423.50 707.54 426.10 708.54
  A 0.61 0.61 14.6 0 0 426.92 708.06
  Q 427.54 703.88 428.13 707.28
  Q 428.65 710.28 428.83 706.25
  Q 428.97 703.15 428.53 699.92
  L 428.50 698.54
  L 429.63 700.48
  A 1.07 0.39 63.5 0 0 430.28 701.10
  C 430.80 701.11 430.26 699.39 430.50 698.79
  C 431.91 702.38 431.20 695.48 431.29 694.75
  Q 431.89 694.80 432.21 695.25
  Q 432.34 699.82 434.81 703.57
  Q 435.07 703.95 434.97 703.51
  Q 433.43 696.57 435.85 703.55
  A 1.30 0.54 22.5 0 0 436.45 704.15
  C 437.40 704.71 438.17 710.22 440.06 711.69
  Q 442.64 713.68 442.85 715.97
  L 435.04 733.25
  Q 434.60 729.73 436.25 726.68
  A 0.44 0.41 25.6 0 0 436.02 726.09
  C 433.33 725.02 432.80 722.28 429.24 722.46
  Q 428.92 722.48 428.35 722.19
  L 425.73 720.88
  A 0.49 0.48 19.5 0 0 425.04 721.20
  L 424.93 721.68
  A 0.48 0.37 -77.1 0 1 424.44 722.08
  L 416.94 719.95
  A 1.58 1.39 35.6 0 0 415.84 720.06
  Q 413.85 721.15 411.29 721.00
  Q 405.70 707.11 407.96 692.25
  Z"
/>
<path fill="#8b209b" d="
  M 429.21 693.50
  Q 429.36 693.85 429.71 694.00
  Q 429.93 695.23 429.51 696.35
  A 0.56 0.51 26.0 0 0 429.77 696.99
  Q 430.56 697.46 430.50 698.79
  C 430.26 699.39 430.80 701.11 430.28 701.10
  A 1.07 0.39 63.5 0 1 429.63 700.48
  L 428.50 698.54
  L 428.21 695.50
  Q 428.24 694.22 429.21 693.50
  Z"
/>
<path fill="#5446c1" d="
  M 586.79 699.90
  Q 586.76 703.17 585.00 705.00
  Q 584.19 705.84 584.06 706.56
  Q 583.94 707.24 584.33 706.64
  Q 587.93 701.11 585.41 707.45
  Q 585.32 707.68 585.52 707.55
  C 586.76 706.78 584.82 708.53 585.11 709.28
  A 0.32 0.30 56.4 0 1 585.06 709.58
  Q 584.35 710.36 585.07 709.79
  Q 586.37 708.75 587.57 707.58
  C 588.99 706.19 587.99 708.51 587.74 708.73
  Q 584.86 711.28 582.55 714.35
  Q 582.26 714.73 582.74 714.63
  Q 584.87 714.16 587.08 714.79
  A 0.88 0.84 30.2 0 0 587.92 714.59
  Q 590.79 711.80 594.48 710.25
  A 0.32 0.31 -9.3 0 1 594.92 710.56
  C 594.71 713.62 592.78 713.50 591.13 715.27
  Q 590.33 716.12 589.62 717.04
  Q 589.33 717.41 589.78 717.25
  Q 591.47 716.63 590.12 718.42
  Q 589.81 718.84 590.31 718.85
  C 592.39 718.92 593.64 717.44 595.18 716.88
  Q 597.35 716.11 599.41 715.08
  A 0.50 0.29 -25.0 0 0 599.72 714.64
  Q 599.68 714.52 599.53 714.47
  A 0.12 0.11 31.6 0 1 599.48 714.28
  C 602.37 711.55 605.87 711.83 609.84 710.48
  A 0.88 0.80 54.8 0 1 610.66 710.66
  Q 612.20 712.04 613.96 710.50
  L 612.75 714.65
  Q 607.20 726.64 596.50 734.96
  L 592.40 738.44
  Q 591.65 739.07 591.95 738.26
  Q 592.10 737.86 592.89 737.46
  Q 593.59 737.11 592.82 737.24
  Q 584.51 738.62 576.16 738.69
  A 0.14 0.13 81.3 0 1 576.03 738.59
  L 576.00 738.50
  A 0.26 0.26 -10.2 0 0 575.74 738.32
  Q 567.30 738.68 560.75 738.25
  C 539.32 736.83 517.90 737.83 496.51 737.60
  C 487.60 737.50 476.11 738.45 466.50 737.75
  C 460.88 737.34 454.35 738.40 449.16 739.52
  C 443.88 740.66 438.58 740.96 433.32 742.36
  Q 428.19 743.73 423.79 741.00
  Q 415.45 732.30 411.29 721.00
  Q 413.85 721.15 415.84 720.06
  A 1.58 1.39 35.6 0 1 416.94 719.95
  L 424.44 722.08
  A 0.48 0.37 -77.1 0 0 424.93 721.68
  L 425.04 721.20
  A 0.49 0.48 19.5 0 1 425.73 720.88
  L 428.35 722.19
  Q 428.92 722.48 429.24 722.46
  C 432.80 722.28 433.33 725.02 436.02 726.09
  A 0.44 0.41 25.6 0 1 436.25 726.68
  Q 434.60 729.73 435.04 733.25
  L 433.69 736.69
  Q 433.00 738.42 434.75 737.50
  L 438.25 735.65
  Q 442.54 735.43 445.93 733.09
  C 450.07 730.22 453.70 728.83 456.82 726.20
  Q 460.66 722.96 465.36 721.11
  Q 476.04 721.31 486.75 721.56
  Q 519.85 722.33 556.50 720.75
  Q 566.07 720.34 573.75 715.46
  Q 582.51 709.59 586.79 699.90
  Z"
/>
<path fill="#3c31b9" d="
  M 636.54 716.25
  Q 635.53 724.81 632.25 732.77
  Q 617.80 732.49 603.57 734.44
  C 601.32 734.75 599.05 733.96 596.50 734.96
  Q 607.20 726.64 612.75 714.65
  Q 620.60 715.46 624.25 714.75
  C 626.78 714.26 627.52 714.61 629.47 714.70
  Q 632.14 714.82 629.11 714.27
  Q 628.61 714.18 629.10 714.07
  C 631.81 713.46 633.68 715.32 635.63 714.31
  A 0.39 0.36 -20.2 0 1 636.18 714.54
  L 636.54 716.25
  Z"
/>
<path fill="#3b52cf" d="
  M 632.25 732.77
  Q 628.64 742.78 622.54 751.50
  Q 622.90 749.69 621.25 749.32
  A 1.29 1.28 -12.1 0 1 620.48 748.83
  C 619.42 747.43 613.06 747.84 616.60 748.39
  Q 616.91 748.43 616.60 748.43
  L 597.03 748.44
  Q 596.82 748.44 597.00 748.36
  Q 598.10 747.90 596.52 748.15
  Q 591.27 748.97 586.00 748.54
  Q 585.51 748.50 585.97 748.37
  Q 588.58 747.62 586.56 747.46
  Q 586.35 747.44 586.53 747.32
  Q 586.77 747.17 586.64 747.07
  C 586.52 746.97 580.82 747.15 580.06 747.10
  Q 579.59 747.07 579.10 747.27
  Q 576.83 748.19 574.46 747.56
  A 0.38 0.28 23.4 0 0 574.09 747.65
  Q 574.01 747.76 574.02 747.88
  A 0.30 0.20 83.2 0 1 573.85 748.21
  L 566.68 748.89
  Q 566.22 748.94 566.68 748.94
  Q 569.60 749.00 566.89 749.41
  Q 566.69 749.44 566.47 749.43
  C 544.98 748.96 523.50 748.85 502.01 748.45
  Q 477.83 747.99 453.74 750.24
  C 450.64 750.53 446.68 750.44 442.75 750.75
  C 438.95 751.05 433.95 750.39 429.46 749.45
  C 424.15 748.35 419.18 749.97 414.74 750.57
  Q 408.22 751.45 402.25 754.29
  L 399.50 750.54
  C 402.60 747.23 405.91 747.58 409.53 746.74
  Q 417.73 744.84 426.19 745.56
  Q 427.33 745.66 426.69 744.81
  L 423.79 741.00
  Q 428.19 743.73 433.32 742.36
  C 438.58 740.96 443.88 740.66 449.16 739.52
  C 454.35 738.40 460.88 737.34 466.50 737.75
  C 476.11 738.45 487.60 737.50 496.51 737.60
  C 517.90 737.83 539.32 736.83 560.75 738.25
  Q 567.30 738.68 575.74 738.32
  A 0.26 0.26 -10.2 0 1 576.00 738.50
  L 576.03 738.59
  A 0.14 0.13 81.3 0 0 576.16 738.69
  Q 584.51 738.62 592.82 737.24
  Q 593.59 737.11 592.89 737.46
  Q 592.10 737.86 591.95 738.26
  Q 591.65 739.07 592.40 738.44
  L 596.50 734.96
  C 599.05 733.96 601.32 734.75 603.57 734.44
  Q 617.80 732.49 632.25 732.77
  Z"
/>
<path fill="#2c66dc" d="
  M 622.54 751.50
  L 613.39 762.85
  L 607.50 763.29
  Q 603.31 763.00 595.75 763.00
  Q 515.00 763.00 434.25 763.00
  Q 420.07 763.00 413.00 763.29
  Q 410.87 763.51 409.04 762.50
  L 402.25 754.29
  Q 408.22 751.45 414.74 750.57
  C 419.18 749.97 424.15 748.35 429.46 749.45
  C 433.95 750.39 438.95 751.05 442.75 750.75
  C 446.68 750.44 450.64 750.53 453.74 750.24
  Q 477.83 747.99 502.01 748.45
  C 523.50 748.85 544.98 748.96 566.47 749.43
  Q 566.69 749.44 566.89 749.41
  Q 569.60 749.00 566.68 748.94
  Q 566.22 748.94 566.68 748.89
  L 573.85 748.21
  A 0.30 0.20 83.2 0 0 574.02 747.88
  Q 574.01 747.76 574.09 747.65
  A 0.38 0.28 23.4 0 1 574.46 747.56
  Q 576.83 748.19 579.10 747.27
  Q 579.59 747.07 580.06 747.10
  C 580.82 747.15 586.52 746.97 586.64 747.07
  Q 586.77 747.17 586.53 747.32
  Q 586.35 747.44 586.56 747.46
  Q 588.58 747.62 585.97 748.37
  Q 585.51 748.50 586.00 748.54
  Q 591.27 748.97 596.52 748.15
  Q 598.10 747.90 597.00 748.36
  Q 596.82 748.44 597.03 748.44
  L 616.60 748.43
  Q 616.91 748.43 616.60 748.39
  C 613.06 747.84 619.42 747.43 620.48 748.83
  A 1.29 1.28 -12.1 0 0 621.25 749.32
  Q 622.90 749.69 622.54 751.50
  Z"
/>
<path fill="#390b6f" d="
  M 409.04 762.50
  Q 410.87 763.51 413.00 763.29
  Q 412.45 764.94 414.25 764.80
  Q 422.64 764.14 431.00 765.00
  C 433.03 765.21 435.43 764.75 437.34 764.77
  C 461.49 765.02 485.61 764.64 509.75 764.84
  Q 556.36 765.24 602.97 765.00
  C 604.99 764.99 606.54 765.59 607.50 763.29
  L 613.39 762.85
  Q 617.74 763.04 622.00 763.06
  C 624.69 763.08 629.40 764.92 631.78 766.27
  C 640.91 771.44 640.47 780.53 634.00 788.39
  C 627.98 795.69 611.35 793.77 603.50 793.71
  Q 603.77 793.05 604.75 793.25
  Q 606.52 793.61 610.75 793.07
  Q 611.26 793.00 610.75 792.96
  C 601.89 792.33 593.13 791.74 584.06 791.78
  Q 496.49 792.10 408.92 792.00
  Q 407.46 792.00 406.11 792.36
  Q 404.78 792.71 403.36 793.13
  C 401.62 793.25 392.92 793.00 391.86 789.74
  A 1.94 1.14 89.6 0 0 391.37 788.92
  Q 383.56 781.97 386.18 771.56
  A 0.75 0.66 -82.8 0 1 386.81 771.00
  L 387.15 770.99
  A 0.98 0.75 15.5 0 0 387.74 770.75
  Q 395.68 762.35 406.75 763.25
  Q 408.54 763.40 409.04 762.50
  Z"
/>
<path fill="#580e56" d="
  M 607.50 763.29
  C 606.54 765.59 604.99 764.99 602.97 765.00
  Q 556.36 765.24 509.75 764.84
  C 485.61 764.64 461.49 765.02 437.34 764.77
  C 435.43 764.75 433.03 765.21 431.00 765.00
  Q 422.64 764.14 414.25 764.80
  Q 412.45 764.94 413.00 763.29
  Q 420.07 763.00 434.25 763.00
  Q 515.00 763.00 595.75 763.00
  Q 603.31 763.00 607.50 763.29
  Z"
/>
<path fill="#1c082a" d="
  M 603.50 793.71
  C 541.38 793.52 471.61 793.35 417.00 793.75
  Q 408.89 793.81 403.36 793.13
  Q 404.78 792.71 406.11 792.36
  Q 407.46 792.00 408.92 792.00
  Q 496.49 792.10 584.06 791.78
  C 593.13 791.74 601.89 792.33 610.75 792.96
  Q 611.26 793.00 610.75 793.07
  Q 606.52 793.61 604.75 793.25
  Q 603.77 793.05 603.50 793.71
  Z"
/>
</svg>
