<?xml version="1.0" encoding="UTF-8"?>
<!DOCTYPE svg PUBLIC "-//W3C//DTD SVG 1.1//EN" "http://www.w3.org/Graphics/SVG/1.1/DTD/svg11.dtd">
<svg xmlns="http://www.w3.org/2000/svg" version="1.1" width="1024px" height="1024px" style="shape-rendering:geometricPrecision; text-rendering:geometricPrecision; image-rendering:optimizeQuality; fill-rule:evenodd; clip-rule:evenodd" xmlns:xlink="http://www.w3.org/1999/xlink">
<g><path style="opacity:1" fill="#0f0f0f" d="M 406.5,180.5 C 413.078,181.46 419.745,181.793 426.5,181.5C 426.5,243.833 426.5,306.167 426.5,368.5C 419.5,368.5 412.5,368.5 405.5,368.5C 405.171,305.762 405.504,243.095 406.5,180.5 Z"/></g>
<g><path style="opacity:1" fill="#010000" d="M 629.5,181.5 C 629.5,243.5 629.5,305.5 629.5,367.5C 623.5,367.5 617.5,367.5 611.5,367.5C 611.832,306.331 611.499,245.331 610.5,184.5C 609.323,182.897 609.489,181.564 611,180.5C 617.282,181.243 623.448,181.576 629.5,181.5 Z"/></g>
<g><path style="opacity:0.998" fill="#040404" d="M 435.5,203.5 C 441.513,204.569 447.513,204.569 453.5,203.5C 455.197,203.899 456.863,204.399 458.5,205C 457.973,259.24 457.639,313.74 457.5,368.5C 449.66,368.964 441.993,368.464 434.5,367C 435.498,312.572 435.831,258.072 435.5,203.5 Z"/></g>
<g><path style="opacity:0.999" fill="#010101" d="M 600.5,204.5 C 600.5,258.833 600.5,313.167 600.5,367.5C 593.087,368.128 586.087,367.461 579.5,365.5C 579.719,312.208 579.386,258.875 578.5,205.5C 585.169,204.76 591.835,204.093 598.5,203.5C 599.416,203.543 600.083,203.876 600.5,204.5 Z"/></g>
<g><path style="opacity:0.597" fill="#484849" d="M 600.5,204.5 C 601.499,258.997 601.832,313.664 601.5,368.5C 593.833,368.5 586.167,368.5 578.5,368.5C 578.263,367.209 578.596,366.209 579.5,365.5C 586.087,367.461 593.087,368.128 600.5,367.5C 600.5,313.167 600.5,258.833 600.5,204.5 Z"/></g>
<g><path style="opacity:1" fill="#121212" d="M 376.5,244.5 C 383.5,244.5 390.5,244.5 397.5,244.5C 397.5,285.833 397.5,327.167 397.5,368.5C 390.5,368.5 383.5,368.5 376.5,368.5C 376.5,327.167 376.5,285.833 376.5,244.5 Z"/></g>
<g><path style="opacity:1" fill="#040404" d="M 569.5,244.5 C 569.5,285.5 569.5,326.5 569.5,367.5C 535.5,367.5 501.5,367.5 467.5,367.5C 467.5,326.833 467.5,286.167 467.5,245.5C 475.833,245.5 484.167,245.5 492.5,245.5C 492.168,279.337 492.502,313.004 493.5,346.5C 509.833,346.5 526.167,346.5 542.5,346.5C 542.5,312.5 542.5,278.5 542.5,244.5C 551.5,244.5 560.5,244.5 569.5,244.5 Z"/></g>
<g><path style="opacity:0.654" fill="#424141" d="M 466.5,245.5 C 475.318,244.507 484.318,244.173 493.5,244.5C 493.5,278.5 493.5,312.5 493.5,346.5C 492.502,313.004 492.168,279.337 492.5,245.5C 484.167,245.5 475.833,245.5 467.5,245.5C 467.167,245.5 466.833,245.5 466.5,245.5 Z"/></g>
<g><path style="opacity:0.842" fill="#302f31" d="M 629.5,181.5 C 630.499,243.664 630.832,305.998 630.5,368.5C 623.833,368.5 617.167,368.5 610.5,368.5C 610.5,307.167 610.5,245.833 610.5,184.5C 611.499,245.331 611.832,306.331 611.5,367.5C 617.5,367.5 623.5,367.5 629.5,367.5C 629.5,305.5 629.5,243.5 629.5,181.5 Z"/></g>
<g><path style="opacity:0.999" fill="#080808" d="M 339.5,289.5 C 349.083,289.182 358.583,289.515 368,290.5C 368.667,444.5 368.667,598.5 368,752.5C 358.553,752.487 349.053,752.82 339.5,753.5C 339.5,598.833 339.5,444.167 339.5,289.5 Z"/></g>
<g><path style="opacity:0.851" fill="#454344" d="M 658.5,245.5 C 659.499,286.33 659.832,327.33 659.5,368.5C 652.833,368.5 646.167,368.5 639.5,368.5C 639.5,327.167 639.5,285.833 639.5,244.5C 646.022,244.177 652.355,244.51 658.5,245.5 Z"/></g>
<g><path style="opacity:1" fill="#000000" d="M 658.5,245.5 C 658.5,286.167 658.5,326.833 658.5,367.5C 652.5,367.5 646.5,367.5 640.5,367.5C 640.333,327.499 640.5,287.499 641,247.5C 646.536,245.575 652.369,244.908 658.5,245.5 Z"/></g>
<g><path style="opacity:1" fill="#0d0d0d" d="M 330.5,447.5 C 320.833,447.5 311.167,447.5 301.5,447.5C 301.824,440.646 301.491,433.979 300.5,427.5C 300.333,390.165 300.5,352.832 301,315.5C 310.756,314.349 320.589,314.182 330.5,315C 330.658,359.27 330.658,403.437 330.5,447.5 Z"/></g>
<g><path style="opacity:0.999" fill="#050505" d="M 734.5,315.5 C 734.5,353.167 734.5,390.833 734.5,428.5C 734.5,434.833 734.5,441.167 734.5,447.5C 724.833,447.5 715.167,447.5 705.5,447.5C 705.319,403.51 704.986,359.676 704.5,316C 709.497,314.856 714.663,314.356 720,314.5C 725.012,314.501 729.845,314.834 734.5,315.5 Z"/></g>
<g><path style="opacity:0.721" fill="#414142" d="M 569.5,244.5 C 570.499,285.663 570.832,326.997 570.5,368.5C 535.833,368.5 501.167,368.5 466.5,368.5C 466.5,327.5 466.5,286.5 466.5,245.5C 466.833,245.5 467.167,245.5 467.5,245.5C 467.5,286.167 467.5,326.833 467.5,367.5C 501.5,367.5 535.5,367.5 569.5,367.5C 569.5,326.5 569.5,285.5 569.5,244.5 Z"/></g>
<g><path style="opacity:1" fill="#040303" d="M 658.5,378.5 C 658.5,507.5 658.5,636.5 658.5,765.5C 648.985,765.173 639.652,765.506 630.5,766.5C 630.5,782.5 630.5,798.5 630.5,814.5C 623.208,814.644 616.041,814.644 609,814.5C 608.5,798.503 608.333,782.503 608.5,766.5C 580.005,765.502 551.338,765.169 522.5,765.5C 522.5,781.833 522.5,798.167 522.5,814.5C 515.245,814.187 508.079,814.52 501,815.5C 500.825,799.593 500.325,783.759 499.5,768C 499.833,767.667 500.167,767.333 500.5,767C 475.836,766.5 451.169,766.333 426.5,766.5C 426.5,782.5 426.5,798.5 426.5,814.5C 419.5,814.5 412.5,814.5 405.5,814.5C 405.5,798.167 405.5,781.833 405.5,765.5C 396.167,765.5 386.833,765.5 377.5,765.5C 377.5,636.5 377.5,507.5 377.5,378.5C 471.167,378.5 564.833,378.5 658.5,378.5 Z"/></g>
<g><path style="opacity:0.845" fill="#333234" d="M 668.5,290.5 C 677.652,289.506 686.985,289.173 696.5,289.5C 696.5,444.167 696.5,598.833 696.5,753.5C 686.838,752.2 677.171,752.2 667.5,753.5C 667.167,598.999 667.5,444.666 668.5,290.5 Z"/></g>
<g><path style="opacity:1" fill="#000000" d="M 668.5,290.5 C 677.5,290.5 686.5,290.5 695.5,290.5C 695.5,444.167 695.5,597.833 695.5,751.5C 686.779,751.804 678.112,751.471 669.5,750.5C 668.5,597.168 668.167,443.835 668.5,290.5 Z"/></g>
<g><path style="opacity:0.875" fill="#cb837d" d="M 300.5,427.5 C 274.672,428.498 248.672,428.831 222.5,428.5C 222.5,434.833 222.5,441.167 222.5,447.5C 248.833,447.5 275.167,447.5 301.5,447.5C 311.167,447.5 320.833,447.5 330.5,447.5C 294.337,448.498 258.004,448.832 221.5,448.5C 221.81,442.242 221.476,436.076 220.5,430C 221.669,428.164 223.336,426.998 225.5,426.5C 250.203,426.336 275.203,426.67 300.5,427.5 Z"/></g>
<g><path style="opacity:0.539" fill="#be8785" d="M 734.5,315.5 C 735.333,352.664 735.833,389.998 736,427.5C 761.506,426.322 787.006,426.322 812.5,427.5C 812.5,427.833 812.5,428.167 812.5,428.5C 786.5,428.5 760.5,428.5 734.5,428.5C 734.5,390.833 734.5,353.167 734.5,315.5 Z"/></g>
<g><path style="opacity:1" fill="#ab1411" d="M 300.5,427.5 C 301.491,433.979 301.824,440.646 301.5,447.5C 275.167,447.5 248.833,447.5 222.5,447.5C 222.5,441.167 222.5,434.833 222.5,428.5C 248.672,428.831 274.672,428.498 300.5,427.5 Z"/></g>
<g><path style="opacity:1" fill="#e3100a" d="M 274.5,429.5 C 282.833,429.5 291.167,429.5 299.5,429.5C 299.5,435.167 299.5,440.833 299.5,446.5C 288.5,446.5 277.5,446.5 266.5,446.5C 262.688,445.676 258.688,445.176 254.5,445C 255.5,444.667 256.5,444.333 257.5,444C 255.616,443.784 253.949,443.117 252.5,442C 254.895,441.319 257.228,440.485 259.5,439.5C 258.833,438.833 258.167,438.167 257.5,437.5C 259.624,436.851 261.624,436.017 263.5,435C 262.833,434.333 262.167,433.667 261.5,433C 265.848,431.417 270.182,430.251 274.5,429.5 Z"/></g>
<g><path style="opacity:1" fill="#bf0c05" d="M 251.5,429.5 C 247.934,430.596 244.268,431.762 240.5,433C 241.5,433.833 242.5,434.667 243.5,435.5C 242.833,436.167 242.167,436.833 241.5,437.5C 243.012,438.249 244.012,439.416 244.5,441C 242.654,442.091 241.987,443.424 242.5,445C 243.737,445.232 244.737,445.732 245.5,446.5C 238.492,446.666 231.492,446.5 224.5,446C 223.527,440.593 223.193,435.093 223.5,429.5C 232.833,429.5 242.167,429.5 251.5,429.5 Z"/></g>
<g><path style="opacity:1" fill="#ce0e07" d="M 251.5,429.5 C 259.167,429.5 266.833,429.5 274.5,429.5C 270.182,430.251 265.848,431.417 261.5,433C 262.167,433.667 262.833,434.333 263.5,435C 261.624,436.017 259.624,436.851 257.5,437.5C 258.167,438.167 258.833,438.833 259.5,439.5C 257.228,440.485 254.895,441.319 252.5,442C 253.949,443.117 255.616,443.784 257.5,444C 256.5,444.333 255.5,444.667 254.5,445C 258.688,445.176 262.688,445.676 266.5,446.5C 259.5,446.5 252.5,446.5 245.5,446.5C 244.737,445.732 243.737,445.232 242.5,445C 241.987,443.424 242.654,442.091 244.5,441C 244.012,439.416 243.012,438.249 241.5,437.5C 242.167,436.833 242.833,436.167 243.5,435.5C 242.5,434.667 241.5,433.833 240.5,433C 244.268,431.762 247.934,430.596 251.5,429.5 Z"/></g>
<g><path style="opacity:1" fill="#a31212" d="M 734.5,428.5 C 760.5,428.5 786.5,428.5 812.5,428.5C 812.5,434.833 812.5,441.167 812.5,447.5C 786.5,447.5 760.5,447.5 734.5,447.5C 734.5,441.167 734.5,434.833 734.5,428.5 Z"/></g>
<g><path style="opacity:1" fill="#cd0e07" d="M 764.5,429.5 C 771.167,429.5 777.833,429.5 784.5,429.5C 790.005,430.845 795.672,432.012 801.5,433C 801.167,433.333 800.833,433.667 800.5,434C 803.213,436.773 802.546,438.606 798.5,439.5C 800.624,440.149 802.624,440.983 804.5,442C 802.109,442.691 802.109,443.691 804.5,445C 801.305,445.181 798.305,445.681 795.5,446.5C 775.5,446.5 755.5,446.5 735.5,446.5C 735.179,441.305 735.513,436.305 736.5,431.5C 736.5,436.167 736.5,440.833 736.5,445.5C 749.837,445.667 763.171,445.5 776.5,445C 775.5,444.667 774.5,444.333 773.5,444C 774.949,442.883 776.616,442.216 778.5,442C 775.475,441.867 772.808,440.867 770.5,439C 771.833,438.333 773.167,437.667 774.5,437C 771.978,435.314 772.311,433.981 775.5,433C 771.732,431.762 768.066,430.596 764.5,429.5 Z"/></g>
<g><path style="opacity:1" fill="#ba0d07" d="M 784.5,429.5 C 793.5,429.5 802.5,429.5 811.5,429.5C 811.5,435.167 811.5,440.833 811.5,446.5C 806.167,446.5 800.833,446.5 795.5,446.5C 798.305,445.681 801.305,445.181 804.5,445C 802.109,443.691 802.109,442.691 804.5,442C 802.624,440.983 800.624,440.149 798.5,439.5C 802.546,438.606 803.213,436.773 800.5,434C 800.833,433.667 801.167,433.333 801.5,433C 795.672,432.012 790.005,430.845 784.5,429.5 Z"/></g>
<g><path style="opacity:1" fill="#e70f0a" d="M 764.5,429.5 C 768.066,430.596 771.732,431.762 775.5,433C 772.311,433.981 771.978,435.314 774.5,437C 773.167,437.667 771.833,438.333 770.5,439C 772.808,440.867 775.475,441.867 778.5,442C 776.616,442.216 774.949,442.883 773.5,444C 774.5,444.333 775.5,444.667 776.5,445C 763.171,445.5 749.837,445.667 736.5,445.5C 736.5,440.833 736.5,436.167 736.5,431.5C 745.44,429.528 754.773,428.861 764.5,429.5 Z"/></g>
<g><path style="opacity:0.326" fill="#d8978f" d="M 812.5,427.5 C 813.491,434.313 813.825,441.313 813.5,448.5C 777.329,448.832 741.329,448.498 705.5,447.5C 715.167,447.5 724.833,447.5 734.5,447.5C 760.5,447.5 786.5,447.5 812.5,447.5C 812.5,441.167 812.5,434.833 812.5,428.5C 812.5,428.167 812.5,427.833 812.5,427.5 Z"/></g>
<g><path style="opacity:1" fill="#741011" d="M 648.5,388.5 C 648.833,469.668 648.499,550.668 647.5,631.5C 647.5,631.167 647.5,630.833 647.5,630.5C 647.5,549.833 647.5,469.167 647.5,388.5C 561.167,388.5 474.833,388.5 388.5,388.5C 387.501,469.332 387.167,550.332 387.5,631.5C 386.501,550.335 386.167,469.002 386.5,387.5C 474.002,387.167 561.335,387.501 648.5,388.5 Z"/></g>
<g><path style="opacity:1" fill="#fa1111" d="M 646.5,391.5 C 646.5,470.833 646.5,550.167 646.5,629.5C 560.833,629.5 475.167,629.5 389.5,629.5C 389.168,549.929 389.502,470.429 390.5,391C 475.903,390.17 561.237,390.336 646.5,391.5 Z"/></g>
<g><path style="opacity:1" fill="#93171a" d="M 565.5,443.5 C 567.062,443.733 568.395,444.4 569.5,445.5C 570.167,446.5 570.833,447.5 571.5,448.5C 568.911,447.581 566.911,445.914 565.5,443.5 Z"/></g>
<g><path style="opacity:1" fill="#d31b1b" d="M 477.5,430.5 C 476.833,431.167 476.167,431.833 475.5,432.5C 465.727,436.873 457.06,442.873 449.5,450.5C 449.993,448.194 450.326,445.861 450.5,443.5C 457.765,441.435 464.098,437.768 469.5,432.5C 472.08,431.451 474.746,430.784 477.5,430.5 Z"/></g>
<g><path style="opacity:1" fill="#b01a1d" d="M 557.5,437.5 C 561.615,437.62 564.281,439.62 565.5,443.5C 562.467,441.984 559.8,439.984 557.5,437.5 Z"/></g>
<g><path style="opacity:1" fill="#430806" d="M 482.5,429.5 C 480.572,431.294 478.238,432.294 475.5,432.5C 476.167,431.833 476.833,431.167 477.5,430.5C 479.042,429.699 480.708,429.366 482.5,429.5 Z"/></g>
<g><path style="opacity:1" fill="#b31a21" d="M 544.5,430.5 C 546.655,430.372 548.655,430.872 550.5,432C 553.336,433.391 555.669,435.224 557.5,437.5C 552.671,435.922 548.338,433.588 544.5,430.5 Z"/></g>
<g><path style="opacity:1" fill="#050101" d="M 521.5,425.5 C 529.123,425.931 536.457,427.598 543.5,430.5C 543.833,430.5 544.167,430.5 544.5,430.5C 548.338,433.588 552.671,435.922 557.5,437.5C 559.8,439.984 562.467,441.984 565.5,443.5C 566.911,445.914 568.911,447.581 571.5,448.5C 573.203,451.516 575.203,454.183 577.5,456.5C 577.338,458.527 577.505,460.527 578,462.5C 578.333,462.167 578.667,461.833 579,461.5C 579.653,463.564 580.82,465.231 582.5,466.5C 577.922,469.066 573.589,472.066 569.5,475.5C 567.565,476.79 565.565,478.123 563.5,479.5C 562.614,480.325 562.281,481.325 562.5,482.5C 564.216,482.371 565.883,482.038 567.5,481.5C 571.595,480.476 575.595,479.142 579.5,477.5C 580.485,475.228 581.319,472.895 582,470.5C 583.316,473.028 584.483,473.028 585.5,470.5C 586.134,472.772 587.468,474.439 589.5,475.5C 591.136,478.712 592.47,482.045 593.5,485.5C 595.055,490.712 596.055,496.045 596.5,501.5C 596.673,510.195 596.34,518.862 595.5,527.5C 595.131,531.894 594.465,536.227 593.5,540.5C 588.581,548.669 583.914,557.002 579.5,565.5C 577.413,566.585 576.08,568.251 575.5,570.5C 572.5,572.833 569.833,575.5 567.5,578.5C 563.293,580.435 559.627,583.102 556.5,586.5C 554.326,586.75 552.659,587.75 551.5,589.5C 549.033,589.755 547.033,590.755 545.5,592.5C 543.716,592.893 542.05,593.559 540.5,594.5C 535.57,595.259 530.903,596.592 526.5,598.5C 517.851,599.203 509.185,599.536 500.5,599.5C 498.708,599.634 497.042,599.301 495.5,598.5C 493.162,596.96 490.495,596.294 487.5,596.5C 483.697,594.875 479.697,593.542 475.5,592.5C 468.392,589.776 462.059,585.776 456.5,580.5C 453.167,576.5 449.5,572.833 445.5,569.5C 439.821,560.811 434.655,551.811 430,542.5C 429.005,538.855 428.172,535.188 427.5,531.5C 426.629,521.194 426.296,510.86 426.5,500.5C 426.993,498.194 427.326,495.861 427.5,493.5C 428.282,485.097 430.948,477.43 435.5,470.5C 437.075,466.922 439.075,463.589 441.5,460.5C 444.573,458.431 446.906,455.764 448.5,452.5C 448.328,451.508 448.662,450.842 449.5,450.5C 457.06,442.873 465.727,436.873 475.5,432.5C 478.238,432.294 480.572,431.294 482.5,429.5C 484.515,428.076 486.848,427.41 489.5,427.5C 500.087,425.904 510.754,425.237 521.5,425.5 Z"/></g>
<g><path style="opacity:1" fill="#d68383" d="M 548.5,443.5 C 549.5,443.5 550.5,443.5 551.5,443.5C 549.048,448.405 546.548,453.405 544,458.5C 542.989,459.337 541.822,459.67 540.5,459.5C 543.132,454.235 545.799,448.902 548.5,443.5 Z"/></g>
<g><path style="opacity:1" fill="#c5777e" d="M 511.5,431.5 C 512.126,438.584 511.459,445.25 509.5,451.5C 508.509,445.021 508.176,438.354 508.5,431.5C 509.5,431.5 510.5,431.5 511.5,431.5 Z"/></g>
<g><path style="opacity:1" fill="#7c474b" d="M 511.5,431.5 C 512.491,438.313 512.825,445.313 512.5,452.5C 511.209,452.737 510.209,452.404 509.5,451.5C 511.459,445.25 512.126,438.584 511.5,431.5 Z"/></g>
<g><path style="opacity:1" fill="#b11a21" d="M 521.5,425.5 C 521.5,425.167 521.5,424.833 521.5,424.5C 529.558,424.345 536.891,426.345 543.5,430.5C 536.457,427.598 529.123,425.931 521.5,425.5 Z"/></g>
<g><path style="opacity:1" fill="#300502" d="M 521.5,424.5 C 521.5,424.833 521.5,425.167 521.5,425.5C 510.754,425.237 500.087,425.904 489.5,427.5C 491.562,426.224 493.896,425.39 496.5,425C 504.827,424.5 513.16,424.334 521.5,424.5 Z"/></g>
<g><path style="opacity:1" fill="#d58784" d="M 471.5,443.5 C 475.554,447.918 478.887,452.918 481.5,458.5C 481.167,459.5 480.5,460.167 479.5,460.5C 477.254,456.341 474.754,452.341 472,448.5C 471.506,446.866 471.34,445.199 471.5,443.5 Z"/></g>
<g><path style="opacity:1" fill="#ef1718" d="M 388.5,389.5 C 474.84,388.836 560.84,389.503 646.5,391.5C 561.237,390.336 475.903,390.17 390.5,391C 389.502,470.429 389.168,549.929 389.5,629.5C 475.167,629.5 560.833,629.5 646.5,629.5C 646.5,629.833 646.5,630.167 646.5,630.5C 560.5,630.5 474.5,630.5 388.5,630.5C 388.5,550.167 388.5,469.833 388.5,389.5 Z"/></g>
<g><path style="opacity:1" fill="#4a0507" d="M 448.5,452.5 C 446.906,455.764 444.573,458.431 441.5,460.5C 443.094,457.236 445.427,454.569 448.5,452.5 Z"/></g>
<g><path style="opacity:1" fill="#a8160f" d="M 301.5,458.5 C 301.5,464.833 301.5,471.167 301.5,477.5C 301.5,477.833 301.5,478.167 301.5,478.5C 301.167,478.5 300.833,478.5 300.5,478.5C 300.5,478.167 300.5,477.833 300.5,477.5C 300.823,471.31 300.49,465.31 299.5,459.5C 293.5,459.5 287.5,459.5 281.5,459.5C 273.5,459.5 265.5,459.5 257.5,459.5C 246.489,459.548 235.489,459.881 224.5,460.5C 224.5,465.5 224.5,470.5 224.5,475.5C 230.034,475.668 235.367,476.335 240.5,477.5C 234.5,477.5 228.5,477.5 222.5,477.5C 222.5,471.167 222.5,464.833 222.5,458.5C 248.833,458.5 275.167,458.5 301.5,458.5 Z"/></g>
<g><path style="opacity:1" fill="#030001" d="M 301.5,458.5 C 311.167,458.5 320.833,458.5 330.5,458.5C 330.5,459.5 330.5,460.5 330.5,461.5C 330.5,466.833 330.5,472.167 330.5,477.5C 320.833,477.5 311.167,477.5 301.5,477.5C 301.5,471.167 301.5,464.833 301.5,458.5 Z"/></g>
<g><path style="opacity:1" fill="#090809" d="M 705.5,458.5 C 714.833,458.5 724.167,458.5 733.5,458.5C 733.5,464.833 733.5,471.167 733.5,477.5C 724.318,477.173 715.318,477.507 706.5,478.5C 705.18,475.572 704.514,472.239 704.5,468.5C 704.502,464.982 704.835,461.649 705.5,458.5 Z"/></g>
<g><path style="opacity:1" fill="#c40c05" d="M 257.5,459.5 C 253.678,460.288 250.344,462.121 247.5,465C 247.152,467.055 247.819,469.055 249.5,471C 247.043,472.512 247.043,473.846 249.5,475C 254.661,475.732 259.661,476.566 264.5,477.5C 256.5,477.5 248.5,477.5 240.5,477.5C 235.367,476.335 230.034,475.668 224.5,475.5C 224.5,470.5 224.5,465.5 224.5,460.5C 235.489,459.881 246.489,459.548 257.5,459.5 Z"/></g>
<g><path style="opacity:1" fill="#e41a19" d="M 569.5,445.5 C 573.383,445.751 575.383,447.751 575.5,451.5C 576.5,451.5 577.5,451.5 578.5,451.5C 579.063,454.374 580.063,457.04 581.5,459.5C 582.5,459.5 583.5,459.5 584.5,459.5C 584.33,460.822 584.663,461.989 585.5,463C 587.587,462.782 589.587,462.949 591.5,463.5C 590.511,464.468 589.844,465.635 589.5,467C 592.004,473.344 594.004,479.844 595.5,486.5C 594.833,486.167 594.167,485.833 593.5,485.5C 592.47,482.045 591.136,478.712 589.5,475.5C 587.135,468.135 583.135,461.802 577.5,456.5C 575.203,454.183 573.203,451.516 571.5,448.5C 570.833,447.5 570.167,446.5 569.5,445.5 Z"/></g>
<g><path style="opacity:1" fill="#d51109" d="M 257.5,459.5 C 265.5,459.5 273.5,459.5 281.5,459.5C 274.991,460.329 268.324,460.995 261.5,461.5C 261.753,463.827 261.086,465.827 259.5,467.5C 260.242,468.287 261.075,468.953 262,469.5C 261.872,471.445 262.038,473.278 262.5,475C 274.791,476.343 287.124,476.843 299.5,476.5C 299.5,470.833 299.5,465.167 299.5,459.5C 300.49,465.31 300.823,471.31 300.5,477.5C 288.5,477.5 276.5,477.5 264.5,477.5C 259.661,476.566 254.661,475.732 249.5,475C 247.043,473.846 247.043,472.512 249.5,471C 247.819,469.055 247.152,467.055 247.5,465C 250.344,462.121 253.678,460.288 257.5,459.5 Z"/></g>
<g><path style="opacity:1" fill="#e80f09" d="M 281.5,459.5 C 287.5,459.5 293.5,459.5 299.5,459.5C 299.5,465.167 299.5,470.833 299.5,476.5C 287.124,476.843 274.791,476.343 262.5,475C 262.038,473.278 261.872,471.445 262,469.5C 261.075,468.953 260.242,468.287 259.5,467.5C 261.086,465.827 261.753,463.827 261.5,461.5C 268.324,460.995 274.991,460.329 281.5,459.5 Z"/></g>
<g><path style="opacity:1" fill="#c15e4f" d="M 705.5,458.5 C 740.998,457.336 776.664,457.169 812.5,458C 813.148,461.416 813.482,464.916 813.5,468.5C 813.453,472.267 812.786,475.767 811.5,479C 785.663,479.83 759.997,479.663 734.5,478.5C 734.824,471.646 734.491,464.979 733.5,458.5C 724.167,458.5 714.833,458.5 705.5,458.5 Z"/></g>
<g><path style="opacity:1" fill="#ba0d06" d="M 788.5,459.5 C 795.833,459.5 803.167,459.5 810.5,459.5C 810.5,465.5 810.5,471.5 810.5,477.5C 803.5,477.5 796.5,477.5 789.5,477.5C 793.312,476.676 797.312,476.176 801.5,476C 803.956,473.841 803.29,473.008 799.5,473.5C 799.5,472.5 799.5,471.5 799.5,470.5C 800.675,470.719 801.675,470.386 802.5,469.5C 801.335,468.416 800.002,467.583 798.5,467C 799.5,465.333 800.5,463.667 801.5,462C 797.094,460.959 792.761,460.126 788.5,459.5 Z"/></g>
<g><path style="opacity:1" fill="#da1009" d="M 775.5,459.5 C 779.997,460.486 784.664,461.32 789.5,462C 788.919,462.893 788.585,463.893 788.5,465C 789.378,466.8 790.045,468.633 790.5,470.5C 789.325,470.281 788.325,470.614 787.5,471.5C 789.113,472.427 790.779,473.261 792.5,474C 792.167,474.333 791.833,474.667 791.5,475C 785.975,475.52 780.642,476.353 775.5,477.5C 762.167,477.5 748.833,477.5 735.5,477.5C 735.5,471.5 735.5,465.5 735.5,459.5C 748.833,459.5 762.167,459.5 775.5,459.5 Z"/></g>
<g><path style="opacity:1" fill="#c80d05" d="M 775.5,459.5 C 779.833,459.5 784.167,459.5 788.5,459.5C 792.761,460.126 797.094,460.959 801.5,462C 800.5,463.667 799.5,465.333 798.5,467C 800.002,467.583 801.335,468.416 802.5,469.5C 801.675,470.386 800.675,470.719 799.5,470.5C 799.5,471.5 799.5,472.5 799.5,473.5C 803.29,473.008 803.956,473.841 801.5,476C 797.312,476.176 793.312,476.676 789.5,477.5C 784.833,477.5 780.167,477.5 775.5,477.5C 780.642,476.353 785.975,475.52 791.5,475C 791.833,474.667 792.167,474.333 792.5,474C 790.779,473.261 789.113,472.427 787.5,471.5C 788.325,470.614 789.325,470.281 790.5,470.5C 790.045,468.633 789.378,466.8 788.5,465C 788.585,463.893 788.919,462.893 789.5,462C 784.664,461.32 779.997,460.486 775.5,459.5 Z"/></g>
<g><path style="opacity:1" fill="#ee0f0b" d="M 736.5,460.5 C 745.521,460.401 754.521,460.734 763.5,461.5C 765.329,466.541 763.662,470.041 758.5,472C 760.286,472.196 761.619,473.029 762.5,474.5C 753.876,475.735 745.209,476.402 736.5,476.5C 736.5,471.167 736.5,465.833 736.5,460.5 Z"/></g>
<g><path style="opacity:1" fill="#d17982" d="M 567.5,481.5 C 565.883,482.038 564.216,482.371 562.5,482.5C 562.281,481.325 562.614,480.325 563.5,479.5C 565.565,478.123 567.565,476.79 569.5,475.5C 572.874,474.142 576.207,472.809 579.5,471.5C 579.719,472.675 579.386,473.675 578.5,474.5C 574.525,476.499 570.859,478.832 567.5,481.5 Z"/></g>
<g><path style="opacity:1" fill="#e01919" d="M 435.5,470.5 C 430.948,477.43 428.282,485.097 427.5,493.5C 426.076,495.515 425.41,497.848 425.5,500.5C 425.5,501.167 425.5,501.833 425.5,502.5C 424.509,508.979 424.176,515.646 424.5,522.5C 423.039,509.863 423.706,497.196 426.5,484.5C 425.382,482.429 424.382,480.262 423.5,478C 424.01,476.174 424.844,476.007 426,477.5C 426.333,476.833 426.667,476.167 427,475.5C 427.684,476.784 427.517,477.951 426.5,479C 427,479.5 427.5,480 428,480.5C 430.027,476.663 432.527,473.33 435.5,470.5 Z"/></g>
<g><path style="opacity:1" fill="#1d0706" d="M 577.5,456.5 C 583.135,461.802 587.135,468.135 589.5,475.5C 587.468,474.439 586.134,472.772 585.5,470.5C 584.483,473.028 583.316,473.028 582,470.5C 581.319,472.895 580.485,475.228 579.5,477.5C 575.595,479.142 571.595,480.476 567.5,481.5C 570.859,478.832 574.525,476.499 578.5,474.5C 579.386,473.675 579.719,472.675 579.5,471.5C 576.207,472.809 572.874,474.142 569.5,475.5C 573.589,472.066 577.922,469.066 582.5,466.5C 580.82,465.231 579.653,463.564 579,461.5C 578.667,461.833 578.333,462.167 578,462.5C 577.505,460.527 577.338,458.527 577.5,456.5 Z"/></g>
<g><path style="opacity:1" fill="#c67469" d="M 330.5,458.5 C 320.833,458.5 311.167,458.5 301.5,458.5C 275.167,458.5 248.833,458.5 222.5,458.5C 222.5,464.833 222.5,471.167 222.5,477.5C 228.5,477.5 234.5,477.5 240.5,477.5C 248.5,477.5 256.5,477.5 264.5,477.5C 276.5,477.5 288.5,477.5 300.5,477.5C 300.5,477.833 300.5,478.167 300.5,478.5C 274.67,479.663 248.67,479.83 222.5,479C 221.52,471.921 221.187,464.755 221.5,457.5C 258.004,457.168 294.337,457.502 330.5,458.5 Z"/></g>
<g><path style="opacity:0.741" fill="#525253" d="M 330.5,461.5 C 331.489,466.975 331.822,472.642 331.5,478.5C 321.5,478.5 311.5,478.5 301.5,478.5C 301.5,478.167 301.5,477.833 301.5,477.5C 311.167,477.5 320.833,477.5 330.5,477.5C 330.5,472.167 330.5,466.833 330.5,461.5 Z"/></g>
<g><path style="opacity:0.755" fill="#332120" d="M 733.5,458.5 C 734.491,464.979 734.824,471.646 734.5,478.5C 725.167,478.5 715.833,478.5 706.5,478.5C 715.318,477.507 724.318,477.173 733.5,477.5C 733.5,471.167 733.5,464.833 733.5,458.5 Z"/></g>
<g><path style="opacity:1" fill="#cc7d85" d="M 455.5,483.5 C 451.306,480.327 446.639,477.993 441.5,476.5C 441.5,475.5 441.5,474.5 441.5,473.5C 448.059,475.446 454.059,478.446 459.5,482.5C 458.311,483.429 456.978,483.762 455.5,483.5 Z"/></g>
<g><path style="opacity:1" fill="#340b10" d="M 441.5,476.5 C 446.639,477.993 451.306,480.327 455.5,483.5C 449.913,482.66 445.246,480.327 441.5,476.5 Z"/></g>
<g><path style="opacity:1" fill="#dd1f1e" d="M 388.5,389.5 C 388.5,389.167 388.5,388.833 388.5,388.5C 474.833,388.5 561.167,388.5 647.5,388.5C 647.5,469.167 647.5,549.833 647.5,630.5C 647.167,630.5 646.833,630.5 646.5,630.5C 646.5,630.167 646.5,629.833 646.5,629.5C 646.5,550.167 646.5,470.833 646.5,391.5C 560.84,389.503 474.84,388.836 388.5,389.5 Z"/></g>
<g><path style="opacity:0.49" fill="#ca7f7a" d="M 300.5,488.5 C 300.5,488.833 300.5,489.167 300.5,489.5C 274.5,489.5 248.5,489.5 222.5,489.5C 222.5,495.833 222.5,502.167 222.5,508.5C 227.833,508.5 233.167,508.5 238.5,508.5C 259.167,508.5 279.833,508.5 300.5,508.5C 300.833,508.5 301.167,508.5 301.5,508.5C 311.167,508.5 320.833,508.5 330.5,508.5C 294.336,509.664 258.002,509.831 221.5,509C 221.14,502.106 221.14,495.439 221.5,489C 242.178,488.775 262.845,488.275 283.5,487.5C 289.271,487.94 294.938,488.273 300.5,488.5 Z"/></g>
<g><path style="opacity:0.514" fill="#d0756d" d="M 812.5,508.5 C 812.5,502.167 812.5,495.833 812.5,489.5C 786.5,489.5 760.5,489.5 734.5,489.5C 734.5,489.167 734.5,488.833 734.5,488.5C 760.402,488.584 786.068,488.417 811.5,488C 812.786,491.233 813.453,494.733 813.5,498.5C 813.498,502.018 813.165,505.351 812.5,508.5 Z"/></g>
<g><path style="opacity:1" fill="#0a0808" d="M 300.5,489.5 C 300.5,489.167 300.5,488.833 300.5,488.5C 310.5,488.5 320.5,488.5 330.5,488.5C 330.693,495.377 330.693,502.043 330.5,508.5C 320.833,508.5 311.167,508.5 301.5,508.5C 301.823,501.978 301.49,495.645 300.5,489.5 Z"/></g>
<g><path style="opacity:1" fill="#f4f4f4" d="M 504.5,489.5 C 525.155,488.323 534.988,497.989 534,518.5C 527.139,535.344 515.306,540.177 498.5,533C 486.62,523.421 484.453,511.921 492,498.5C 495.651,494.609 499.818,491.609 504.5,489.5 Z"/></g>
<g><path style="opacity:1" fill="#080505" d="M 705.5,488.5 C 715.167,488.5 724.833,488.5 734.5,488.5C 734.5,488.833 734.5,489.167 734.5,489.5C 734.5,495.833 734.5,502.167 734.5,508.5C 724.833,508.5 715.167,508.5 705.5,508.5C 705.5,501.833 705.5,495.167 705.5,488.5 Z"/></g>
<g><path style="opacity:1" fill="#b11916" d="M 734.5,489.5 C 760.5,489.5 786.5,489.5 812.5,489.5C 812.5,495.833 812.5,502.167 812.5,508.5C 786.5,508.5 760.5,508.5 734.5,508.5C 734.5,502.167 734.5,495.833 734.5,489.5 Z"/></g>
<g><path style="opacity:1" fill="#e8110a" d="M 774.5,490.5 C 778.046,491.286 780.379,493.453 781.5,497C 780.167,498.333 780.167,499.667 781.5,501C 781.241,502.261 780.574,503.261 779.5,504C 779.833,504.333 780.167,504.667 780.5,505C 778.563,505.122 777.23,505.955 776.5,507.5C 762.833,507.5 749.167,507.5 735.5,507.5C 735.5,501.833 735.5,496.167 735.5,490.5C 748.5,490.5 761.5,490.5 774.5,490.5 Z"/></g>
<g><path style="opacity:1" fill="#c90e05" d="M 774.5,490.5 C 786.5,490.5 798.5,490.5 810.5,490.5C 810.5,496.167 810.5,501.833 810.5,507.5C 799.167,507.5 787.833,507.5 776.5,507.5C 777.23,505.955 778.563,505.122 780.5,505C 780.167,504.667 779.833,504.333 779.5,504C 780.574,503.261 781.241,502.261 781.5,501C 780.167,499.667 780.167,498.333 781.5,497C 780.379,493.453 778.046,491.286 774.5,490.5 Z"/></g>
<g><path style="opacity:1" fill="#5f0a0e" d="M 427.5,493.5 C 427.326,495.861 426.993,498.194 426.5,500.5C 426.167,500.5 425.833,500.5 425.5,500.5C 425.41,497.848 426.076,495.515 427.5,493.5 Z"/></g>
<g><path style="opacity:1" fill="#a0120e" d="M 300.5,489.5 C 301.49,495.645 301.823,501.978 301.5,508.5C 301.167,508.5 300.833,508.5 300.5,508.5C 300.822,502.642 300.489,496.975 299.5,491.5C 286.01,490.504 272.344,490.171 258.5,490.5C 254.167,490.5 249.833,490.5 245.5,490.5C 238.245,490.187 231.079,490.52 224,491.5C 223.333,496.5 223.333,501.5 224,506.5C 228.934,507.144 233.767,507.81 238.5,508.5C 233.167,508.5 227.833,508.5 222.5,508.5C 222.5,502.167 222.5,495.833 222.5,489.5C 248.5,489.5 274.5,489.5 300.5,489.5 Z"/></g>
<g><path style="opacity:1" fill="#ca0f06" d="M 245.5,490.5 C 249.833,490.5 254.167,490.5 258.5,490.5C 257.22,491.931 255.553,492.598 253.5,492.5C 253.703,494.39 253.037,495.89 251.5,497C 251.957,497.414 252.291,497.914 252.5,498.5C 246.807,503.512 247.807,506.512 255.5,507.5C 246.349,507.867 237.349,507.033 228.5,505C 229.167,504.333 229.833,503.667 230.5,503C 229.572,502.612 228.905,501.945 228.5,501C 229.833,499.667 229.833,498.333 228.5,497C 228.759,495.739 229.426,494.739 230.5,494C 229.833,493.667 229.167,493.333 228.5,493C 234.239,491.926 239.906,491.093 245.5,490.5 Z"/></g>
<g><path style="opacity:1" fill="#e31009" d="M 258.5,490.5 C 272.344,490.171 286.01,490.504 299.5,491.5C 299.5,496.833 299.5,502.167 299.5,507.5C 284.833,507.5 270.167,507.5 255.5,507.5C 247.807,506.512 246.807,503.512 252.5,498.5C 252.291,497.914 251.957,497.414 251.5,497C 253.037,495.89 253.703,494.39 253.5,492.5C 255.553,492.598 257.22,491.931 258.5,490.5 Z"/></g>
<g><path style="opacity:1" fill="#ba130b" d="M 245.5,490.5 C 239.906,491.093 234.239,491.926 228.5,493C 229.167,493.333 229.833,493.667 230.5,494C 229.426,494.739 228.759,495.739 228.5,497C 229.833,498.333 229.833,499.667 228.5,501C 228.905,501.945 229.572,502.612 230.5,503C 229.833,503.667 229.167,504.333 228.5,505C 237.349,507.033 246.349,507.867 255.5,507.5C 270.167,507.5 284.833,507.5 299.5,507.5C 299.5,502.167 299.5,496.833 299.5,491.5C 300.489,496.975 300.822,502.642 300.5,508.5C 279.833,508.5 259.167,508.5 238.5,508.5C 233.767,507.81 228.934,507.144 224,506.5C 223.333,501.5 223.333,496.5 224,491.5C 231.079,490.52 238.245,490.187 245.5,490.5 Z"/></g>
<g><path style="opacity:1" fill="#2b0502" d="M 425.5,500.5 C 425.833,500.5 426.167,500.5 426.5,500.5C 426.296,510.86 426.629,521.194 427.5,531.5C 426.71,530.391 426.21,529.058 426,527.5C 425.5,519.173 425.334,510.84 425.5,502.5C 425.5,501.833 425.5,501.167 425.5,500.5 Z"/></g>
<g><path style="opacity:0.267" fill="#b29596" d="M 705.5,488.5 C 705.5,495.167 705.5,501.833 705.5,508.5C 715.167,508.5 724.833,508.5 734.5,508.5C 760.5,508.5 786.5,508.5 812.5,508.5C 776.671,509.498 740.671,509.832 704.5,509.5C 704.175,502.313 704.509,495.313 705.5,488.5 Z"/></g>
<g><path style="opacity:1" fill="#480709" d="M 596.5,501.5 C 597.491,508.313 597.825,515.313 597.5,522.5C 597.204,524.403 596.537,526.07 595.5,527.5C 596.34,518.862 596.673,510.195 596.5,501.5 Z"/></g>
<g><path style="opacity:1" fill="#be2022" d="M 593.5,485.5 C 594.167,485.833 594.833,486.167 595.5,486.5C 598.498,498.506 599.165,510.506 597.5,522.5C 597.825,515.313 597.491,508.313 596.5,501.5C 596.055,496.045 595.055,490.712 593.5,485.5 Z"/></g>
<g><path style="opacity:1" fill="#ce727f" d="M 431.5,512.5 C 438.5,512.5 445.5,512.5 452.5,512.5C 452.5,513.5 452.5,514.5 452.5,515.5C 445.5,515.5 438.5,515.5 431.5,515.5C 431.5,514.5 431.5,513.5 431.5,512.5 Z"/></g>
<g><path style="opacity:1" fill="#ce727f" d="M 569.5,510.5 C 576.5,510.5 583.5,510.5 590.5,510.5C 590.5,511.5 590.5,512.5 590.5,513.5C 583.5,513.5 576.5,513.5 569.5,513.5C 569.5,512.5 569.5,511.5 569.5,510.5 Z"/></g>
<g><path style="opacity:0.506" fill="#cc6e63" d="M 300.5,518.5 C 300.5,518.833 300.5,519.167 300.5,519.5C 282.833,519.5 265.167,519.5 247.5,519.5C 239.167,519.5 230.833,519.5 222.5,519.5C 222.5,525.833 222.5,532.167 222.5,538.5C 222.167,538.5 221.833,538.5 221.5,538.5C 221.32,532.067 221.32,525.567 221.5,519C 247.831,518.5 274.165,518.333 300.5,518.5 Z"/></g>
<g><path style="opacity:1" fill="#0d0b0b" d="M 300.5,519.5 C 300.5,519.167 300.5,518.833 300.5,518.5C 310.5,518.5 320.5,518.5 330.5,518.5C 330.512,525.53 330.512,532.197 330.5,538.5C 320.833,538.5 311.167,538.5 301.5,538.5C 301.823,531.978 301.49,525.645 300.5,519.5 Z"/></g>
<g><path style="opacity:1" fill="#050000" d="M 734.5,519.5 C 734.5,525.833 734.5,532.167 734.5,538.5C 724.833,538.5 715.167,538.5 705.5,538.5C 705.5,532.167 705.5,525.833 705.5,519.5C 715.167,519.5 724.833,519.5 734.5,519.5 Z"/></g>
<g><path style="opacity:1" fill="#bd1f1d" d="M 734.5,519.5 C 747.167,519.5 759.833,519.5 772.5,519.5C 772.5,519.833 772.5,520.167 772.5,520.5C 760.167,520.5 747.833,520.5 735.5,520.5C 735.5,526.5 735.5,532.5 735.5,538.5C 735.167,538.5 734.833,538.5 734.5,538.5C 734.5,532.167 734.5,525.833 734.5,519.5 Z"/></g>
<g><path style="opacity:1" fill="#be0e03" d="M 247.5,520.5 C 250.833,520.5 254.167,520.5 257.5,520.5C 254.695,521.319 251.695,521.819 248.5,522C 247.167,522.667 246.167,523.667 245.5,525C 246.227,527.124 246.894,529.291 247.5,531.5C 246.092,532.243 244.759,533.077 243.5,534C 245.246,534.471 246.913,535.138 248.5,536C 247.584,536.278 246.918,536.778 246.5,537.5C 244.833,537.5 243.167,537.5 241.5,537.5C 235.5,537.5 229.5,537.5 223.5,537.5C 223.5,531.833 223.5,526.167 223.5,520.5C 231.5,520.5 239.5,520.5 247.5,520.5 Z"/></g>
<g><path style="opacity:1" fill="#c30d04" d="M 783.5,520.5 C 792.5,520.5 801.5,520.5 810.5,520.5C 810.5,526.167 810.5,531.833 810.5,537.5C 803.167,537.5 795.833,537.5 788.5,537.5C 787.537,535.702 788.204,534.368 790.5,533.5C 789.271,532.719 787.938,532.219 786.5,532C 789.142,531.437 789.809,529.937 788.5,527.5C 788.977,526.522 789.643,525.689 790.5,525C 789.354,524.355 788.354,523.522 787.5,522.5C 786.914,522.709 786.414,523.043 786,523.5C 785.302,522.309 784.469,521.309 783.5,520.5 Z"/></g>
<g><path style="opacity:1" fill="#db1209" d="M 772.5,520.5 C 776.167,520.5 779.833,520.5 783.5,520.5C 784.469,521.309 785.302,522.309 786,523.5C 786.414,523.043 786.914,522.709 787.5,522.5C 788.354,523.522 789.354,524.355 790.5,525C 789.643,525.689 788.977,526.522 788.5,527.5C 789.809,529.937 789.142,531.437 786.5,532C 787.938,532.219 789.271,532.719 790.5,533.5C 788.204,534.368 787.537,535.702 788.5,537.5C 782.642,537.178 776.975,537.511 771.5,538.5C 759.5,538.5 747.5,538.5 735.5,538.5C 735.5,532.5 735.5,526.5 735.5,520.5C 747.833,520.5 760.167,520.5 772.5,520.5 Z"/></g>
<g><path style="opacity:1" fill="#ef1009" d="M 737.5,521.5 C 746.582,521.086 755.582,521.586 764.5,523C 766.394,524.079 766.727,525.413 765.5,527C 766.167,529.333 766.833,531.667 767.5,534C 766.051,535.117 764.384,535.784 762.5,536C 762.833,536.333 763.167,536.667 763.5,537C 754.506,537.5 745.506,537.666 736.5,537.5C 736.267,532.105 736.6,526.772 737.5,521.5 Z"/></g>
<g><path style="opacity:1" fill="#d81108" d="M 257.5,520.5 C 271.5,520.5 285.5,520.5 299.5,520.5C 300.651,526.318 300.651,531.985 299.5,537.5C 298.902,532.187 298.569,526.854 298.5,521.5C 290.826,521.334 283.159,521.5 275.5,522C 273.5,523.333 271.5,524.667 269.5,526C 271.957,527.512 271.957,528.846 269.5,530C 274.592,531.67 274.592,532.503 269.5,532.5C 269.5,533.5 269.5,534.5 269.5,535.5C 271.857,535.337 274.19,535.503 276.5,536C 277.056,536.383 277.389,536.883 277.5,537.5C 267.167,537.5 256.833,537.5 246.5,537.5C 246.918,536.778 247.584,536.278 248.5,536C 246.913,535.138 245.246,534.471 243.5,534C 244.759,533.077 246.092,532.243 247.5,531.5C 246.894,529.291 246.227,527.124 245.5,525C 246.167,523.667 247.167,522.667 248.5,522C 251.695,521.819 254.695,521.319 257.5,520.5 Z"/></g>
<g><path style="opacity:1" fill="#e81109" d="M 299.5,537.5 C 292.167,537.5 284.833,537.5 277.5,537.5C 277.389,536.883 277.056,536.383 276.5,536C 274.19,535.503 271.857,535.337 269.5,535.5C 269.5,534.5 269.5,533.5 269.5,532.5C 274.592,532.503 274.592,531.67 269.5,530C 271.957,528.846 271.957,527.512 269.5,526C 271.5,524.667 273.5,523.333 275.5,522C 283.159,521.5 290.826,521.334 298.5,521.5C 298.569,526.854 298.902,532.187 299.5,537.5 Z"/></g>
<g><path style="opacity:1" fill="#96110b" d="M 247.5,519.5 C 247.5,519.833 247.5,520.167 247.5,520.5C 239.5,520.5 231.5,520.5 223.5,520.5C 223.5,526.167 223.5,531.833 223.5,537.5C 229.5,537.5 235.5,537.5 241.5,537.5C 241.5,537.833 241.5,538.167 241.5,538.5C 235.167,538.5 228.833,538.5 222.5,538.5C 222.5,532.167 222.5,525.833 222.5,519.5C 230.833,519.5 239.167,519.5 247.5,519.5 Z"/></g>
<g><path style="opacity:1" fill="#b91b15" d="M 247.5,520.5 C 247.5,520.167 247.5,519.833 247.5,519.5C 265.167,519.5 282.833,519.5 300.5,519.5C 301.49,525.645 301.823,531.978 301.5,538.5C 281.5,538.5 261.5,538.5 241.5,538.5C 241.5,538.167 241.5,537.833 241.5,537.5C 243.167,537.5 244.833,537.5 246.5,537.5C 256.833,537.5 267.167,537.5 277.5,537.5C 284.833,537.5 292.167,537.5 299.5,537.5C 300.651,531.985 300.651,526.318 299.5,520.5C 285.5,520.5 271.5,520.5 257.5,520.5C 254.167,520.5 250.833,520.5 247.5,520.5 Z"/></g>
<g><path style="opacity:1" fill="#a51511" d="M 772.5,520.5 C 772.5,520.167 772.5,519.833 772.5,519.5C 785.833,519.5 799.167,519.5 812.5,519.5C 812.5,525.833 812.5,532.167 812.5,538.5C 798.833,538.5 785.167,538.5 771.5,538.5C 776.975,537.511 782.642,537.178 788.5,537.5C 795.833,537.5 803.167,537.5 810.5,537.5C 810.5,531.833 810.5,526.167 810.5,520.5C 801.5,520.5 792.5,520.5 783.5,520.5C 779.833,520.5 776.167,520.5 772.5,520.5 Z"/></g>
<g><path style="opacity:0.318" fill="#c58281" d="M 221.5,538.5 C 221.833,538.5 222.167,538.5 222.5,538.5C 228.833,538.5 235.167,538.5 241.5,538.5C 261.5,538.5 281.5,538.5 301.5,538.5C 311.167,538.5 320.833,538.5 330.5,538.5C 318.765,539.176 306.931,539.843 295,540.5C 270.402,539.838 245.902,539.171 221.5,538.5 Z"/></g>
<g><path style="opacity:0.42" fill="#6d6c6e" d="M 734.5,518.5 C 734.5,518.833 734.5,519.167 734.5,519.5C 724.833,519.5 715.167,519.5 705.5,519.5C 705.5,525.833 705.5,532.167 705.5,538.5C 715.167,538.5 724.833,538.5 734.5,538.5C 734.5,538.833 734.5,539.167 734.5,539.5C 724.5,539.5 714.5,539.5 704.5,539.5C 704.5,532.5 704.5,525.5 704.5,518.5C 714.5,518.5 724.5,518.5 734.5,518.5 Z"/></g>
<g><path style="opacity:1" fill="#d58680" d="M 734.5,539.5 C 734.5,539.167 734.5,538.833 734.5,538.5C 734.833,538.5 735.167,538.5 735.5,538.5C 747.5,538.5 759.5,538.5 771.5,538.5C 785.167,538.5 798.833,538.5 812.5,538.5C 812.5,532.167 812.5,525.833 812.5,519.5C 799.167,519.5 785.833,519.5 772.5,519.5C 759.833,519.5 747.167,519.5 734.5,519.5C 734.5,519.167 734.5,518.833 734.5,518.5C 760.999,518.46 787.333,518.46 813.5,518.5C 814.108,525.948 813.441,533.115 811.5,540C 784.947,540.723 759.28,540.556 734.5,539.5 Z"/></g>
<g><path style="opacity:1" fill="#d18086" d="M 562.5,542.5 C 567.989,544.239 573.322,546.572 578.5,549.5C 579.386,550.325 579.719,551.325 579.5,552.5C 573.978,549.908 568.311,547.575 562.5,545.5C 562.5,544.5 562.5,543.5 562.5,542.5 Z"/></g>
<g><path style="opacity:1" fill="#d6848f" d="M 457.5,542.5 C 459.466,543.255 459.8,544.421 458.5,546C 453.959,548.701 449.292,551.201 444.5,553.5C 443.269,552.349 443.269,551.183 444.5,550C 449.223,547.978 453.557,545.478 457.5,542.5 Z"/></g>
<g><path style="opacity:0.243" fill="#e0a6a3" d="M 330.5,549.5 C 320.833,549.5 311.167,549.5 301.5,549.5C 274.995,549.169 248.661,549.502 222.5,550.5C 222.167,550.5 221.833,550.5 221.5,550.5C 220.262,550.19 220.262,549.69 221.5,549C 258.002,548.169 294.336,548.336 330.5,549.5 Z"/></g>
<g><path style="opacity:1" fill="#a51b1b" d="M 301.5,549.5 C 301.5,556.167 301.5,562.833 301.5,569.5C 300.833,569.5 300.5,569.167 300.5,568.5C 300.822,562.642 300.489,556.975 299.5,551.5C 289.013,550.506 278.346,550.172 267.5,550.5C 260.5,550.5 253.5,550.5 246.5,550.5C 239.159,550.334 231.826,550.5 224.5,551C 223.187,556.833 223.187,562.666 224.5,568.5C 222.547,562.926 221.88,556.926 222.5,550.5C 248.661,549.502 274.995,549.169 301.5,549.5 Z"/></g>
<g><path style="opacity:1" fill="#0e0c0c" d="M 301.5,549.5 C 311.167,549.5 320.833,549.5 330.5,549.5C 331.491,555.979 331.824,562.646 331.5,569.5C 321.5,569.5 311.5,569.5 301.5,569.5C 301.5,562.833 301.5,556.167 301.5,549.5 Z"/></g>
<g><path style="opacity:1" fill="#0d0909" d="M 705.5,549.5 C 715.167,549.5 724.833,549.5 734.5,549.5C 734.5,556.167 734.5,562.833 734.5,569.5C 724.5,569.5 714.5,569.5 704.5,569.5C 704.176,562.646 704.509,555.979 705.5,549.5 Z"/></g>
<g><path style="opacity:1" fill="#e70e08" d="M 267.5,550.5 C 278.346,550.172 289.013,550.506 299.5,551.5C 299.5,556.833 299.5,562.167 299.5,567.5C 288.162,567.667 276.828,567.5 265.5,567C 264.5,566.5 263.5,566 262.5,565.5C 261.741,562.843 261.074,560.177 260.5,557.5C 262.567,555.773 264.233,553.773 265.5,551.5C 266.492,551.672 267.158,551.338 267.5,550.5 Z"/></g>
<g><path style="opacity:1" fill="#c01617" d="M 425.5,502.5 C 425.334,510.84 425.5,519.173 426,527.5C 426.21,529.058 426.71,530.391 427.5,531.5C 428.172,535.188 429.005,538.855 430,542.5C 434.655,551.811 439.821,560.811 445.5,569.5C 445.5,570.167 445.5,570.833 445.5,571.5C 440.542,570.039 438.042,566.705 438,561.5C 436.656,559.658 435.156,557.992 433.5,556.5C 432.016,551.219 429.85,546.219 427,541.5C 425,535.346 424.167,529.013 424.5,522.5C 424.176,515.646 424.509,508.979 425.5,502.5 Z"/></g>
<g><path style="opacity:1" fill="#c1181d" d="M 593.5,540.5 C 591.702,546.116 589.868,551.783 588,557.5C 585.915,559.082 584.415,561.082 583.5,563.5C 582.14,564.18 580.807,564.847 579.5,565.5C 583.914,557.002 588.581,548.669 593.5,540.5 Z"/></g>
<g><path style="opacity:1" fill="#b60e05" d="M 246.5,550.5 C 242.316,551.166 237.982,551.833 233.5,552.5C 233.709,553.086 234.043,553.586 234.5,554C 233.13,555.441 232.13,557.108 231.5,559C 232.833,560.667 234.167,562.333 235.5,564C 231.068,564.623 230.735,565.623 234.5,567C 240.825,567.5 247.158,567.666 253.5,567.5C 254.791,567.263 255.791,567.596 256.5,568.5C 245.833,568.5 235.167,568.5 224.5,568.5C 223.187,562.666 223.187,556.833 224.5,551C 231.826,550.5 239.159,550.334 246.5,550.5 Z"/></g>
<g><path style="opacity:1" fill="#c40d04" d="M 246.5,550.5 C 253.5,550.5 260.5,550.5 267.5,550.5C 267.158,551.338 266.492,551.672 265.5,551.5C 261.116,551.174 256.783,551.508 252.5,552.5C 250.729,556.843 250.062,561.01 250.5,565C 251.571,565.852 252.571,566.685 253.5,567.5C 247.158,567.666 240.825,567.5 234.5,567C 230.735,565.623 231.068,564.623 235.5,564C 234.167,562.333 232.833,560.667 231.5,559C 232.13,557.108 233.13,555.441 234.5,554C 234.043,553.586 233.709,553.086 233.5,552.5C 237.982,551.833 242.316,551.166 246.5,550.5 Z"/></g>
<g><path style="opacity:1" fill="#d5110a" d="M 265.5,551.5 C 264.233,553.773 262.567,555.773 260.5,557.5C 261.074,560.177 261.741,562.843 262.5,565.5C 263.5,566 264.5,566.5 265.5,567C 276.828,567.5 288.162,567.667 299.5,567.5C 299.5,562.167 299.5,556.833 299.5,551.5C 300.489,556.975 300.822,562.642 300.5,568.5C 285.833,568.5 271.167,568.5 256.5,568.5C 255.791,567.596 254.791,567.263 253.5,567.5C 252.571,566.685 251.571,565.852 250.5,565C 250.062,561.01 250.729,556.843 252.5,552.5C 256.783,551.508 261.116,551.174 265.5,551.5 Z"/></g>
<g><path style="opacity:1" fill="#c66d66" d="M 221.5,550.5 C 221.833,550.5 222.167,550.5 222.5,550.5C 221.88,556.926 222.547,562.926 224.5,568.5C 235.167,568.5 245.833,568.5 256.5,568.5C 271.167,568.5 285.833,568.5 300.5,568.5C 300.5,569.167 300.833,569.5 301.5,569.5C 275.337,570.663 249.003,570.83 222.5,570C 221.707,568.915 221.04,567.748 220.5,566.5C 221.298,561.101 221.631,555.768 221.5,550.5 Z"/></g>
<g><path style="opacity:1" fill="#830f15" d="M 579.5,565.5 C 578.92,567.749 577.587,569.415 575.5,570.5C 576.08,568.251 577.413,566.585 579.5,565.5 Z"/></g>
<g><path style="opacity:1" fill="#c9665d" d="M 705.5,549.5 C 740.998,548.336 776.664,548.169 812.5,549C 813.833,556 813.833,563 812.5,570C 786.33,570.83 760.33,570.663 734.5,569.5C 734.5,562.833 734.5,556.167 734.5,549.5C 724.833,549.5 715.167,549.5 705.5,549.5 Z"/></g>
<g><path style="opacity:1" fill="#c30c04" d="M 778.5,550.5 C 789.5,550.5 800.5,550.5 811.5,550.5C 811.5,556.5 811.5,562.5 811.5,568.5C 803.167,568.5 794.833,568.5 786.5,568.5C 787.952,567.698 789.618,567.198 791.5,567C 789.285,566.612 787.952,565.612 787.5,564C 792.002,563.065 792.335,561.731 788.5,560C 790.922,558.112 790.922,556.112 788.5,554C 789.167,553.333 789.833,552.667 790.5,552C 786.312,551.824 782.312,551.324 778.5,550.5 Z"/></g>
<g><path style="opacity:1" fill="#d5110a" d="M 778.5,550.5 C 782.312,551.324 786.312,551.824 790.5,552C 789.833,552.667 789.167,553.333 788.5,554C 790.922,556.112 790.922,558.112 788.5,560C 792.335,561.731 792.002,563.065 787.5,564C 787.952,565.612 789.285,566.612 791.5,567C 789.618,567.198 787.952,567.698 786.5,568.5C 769.5,568.5 752.5,568.5 735.5,568.5C 735.5,562.5 735.5,556.5 735.5,550.5C 749.833,550.5 764.167,550.5 778.5,550.5 Z"/></g>
<g><path style="opacity:1" fill="#ea0f09" d="M 736.5,551.5 C 748.909,551.061 761.242,551.561 773.5,553C 772.273,554.587 772.606,555.921 774.5,557C 771.833,558.667 771.833,560.333 774.5,562C 771.228,562.437 769.561,564.27 769.5,567.5C 758.5,567.5 747.5,567.5 736.5,567.5C 736.5,562.167 736.5,556.833 736.5,551.5 Z"/></g>
<g><path style="opacity:1" fill="#9e1819" d="M 445.5,569.5 C 449.5,572.833 453.167,576.5 456.5,580.5C 452.562,577.902 448.895,574.902 445.5,571.5C 445.5,570.833 445.5,570.167 445.5,569.5 Z"/></g>
<g><path style="opacity:1" fill="#db8787" d="M 540.5,566.5 C 541.496,566.414 542.329,566.748 543,567.5C 545.548,572.595 548.048,577.595 550.5,582.5C 549.325,582.719 548.325,582.386 547.5,581.5C 544.32,576.812 541.987,571.812 540.5,566.5 Z"/></g>
<g><path style="opacity:1" fill="#a0161c" d="M 575.5,570.5 C 573.833,574.167 571.167,576.833 567.5,578.5C 569.833,575.5 572.5,572.833 575.5,570.5 Z"/></g>
<g><path style="opacity:1" fill="#d3828e" d="M 479.5,566.5 C 481.344,567.204 481.844,568.537 481,570.5C 478.4,574.713 475.567,578.713 472.5,582.5C 471.417,581.635 471.251,580.635 472,579.5C 474.512,575.139 477.012,570.806 479.5,566.5 Z"/></g>
<g><path style="opacity:1" fill="#c96e66" d="M 300.5,579.5 C 300.5,579.833 300.5,580.167 300.5,580.5C 282.5,580.5 264.5,580.5 246.5,580.5C 238.5,580.5 230.5,580.5 222.5,580.5C 222.5,583.833 222.5,587.167 222.5,590.5C 221.662,590.158 221.328,589.492 221.5,588.5C 220.175,585.531 220.175,582.531 221.5,579.5C 248.253,578.275 274.587,578.275 300.5,579.5 Z"/></g>
<g><path style="opacity:1" fill="#c56f69" d="M 812.5,579.5 C 812.5,579.833 812.5,580.167 812.5,580.5C 812.167,580.5 811.833,580.5 811.5,580.5C 795.167,580.5 778.833,580.5 762.5,580.5C 753.5,580.5 744.5,580.5 735.5,580.5C 735.167,580.5 734.833,580.5 734.5,580.5C 734.5,580.167 734.5,579.833 734.5,579.5C 760.627,578.181 786.627,578.181 812.5,579.5 Z"/></g>
<g><path style="opacity:1" fill="#000000" d="M 301.5,580.5 C 310.833,580.5 320.167,580.5 329.5,580.5C 329.5,627.5 329.5,674.5 329.5,721.5C 320.167,721.5 310.833,721.5 301.5,721.5C 301.5,680.833 301.5,640.167 301.5,599.5C 301.5,593.167 301.5,586.833 301.5,580.5 Z"/></g>
<g><path style="opacity:0.999" fill="#060606" d="M 734.5,579.5 C 734.5,579.833 734.5,580.167 734.5,580.5C 734.5,586.833 734.5,593.167 734.5,599.5C 734.5,640.5 734.5,681.5 734.5,722.5C 724.5,722.5 714.5,722.5 704.5,722.5C 705.798,674.738 705.798,627.071 704.5,579.5C 714.5,579.5 724.5,579.5 734.5,579.5 Z"/></g>
<g><path style="opacity:1" fill="#b70b04" d="M 246.5,580.5 C 241.044,582.653 239.711,586.32 242.5,591.5C 241.318,593.467 241.985,594.8 244.5,595.5C 243.209,596.527 243.209,597.527 244.5,598.5C 237.167,598.5 229.833,598.5 222.5,598.5C 222.5,595.833 222.5,593.167 222.5,590.5C 222.5,587.167 222.5,583.833 222.5,580.5C 230.5,580.5 238.5,580.5 246.5,580.5 Z"/></g>
<g><path style="opacity:1" fill="#9b1318" d="M 567.5,578.5 C 564.877,580.962 562.544,583.629 560.5,586.5C 559.167,586.5 557.833,586.5 556.5,586.5C 559.627,583.102 563.293,580.435 567.5,578.5 Z"/></g>
<g><path style="opacity:1" fill="#be7779" d="M 508.5,571.5 C 509.833,571.5 511.167,571.5 512.5,571.5C 512.5,578.5 512.5,585.5 512.5,592.5C 511.167,592.5 509.833,592.5 508.5,592.5C 508.5,585.5 508.5,578.5 508.5,571.5 Z"/></g>
<g><path style="opacity:1" fill="#801015" d="M 556.5,586.5 C 555.514,588.408 553.848,589.408 551.5,589.5C 552.659,587.75 554.326,586.75 556.5,586.5 Z"/></g>
<g><path style="opacity:1" fill="#700e11" d="M 551.5,589.5 C 549.967,591.245 547.967,592.245 545.5,592.5C 547.033,590.755 549.033,589.755 551.5,589.5 Z"/></g>
<g><path style="opacity:1" fill="#c90d07" d="M 246.5,580.5 C 264.5,580.5 282.5,580.5 300.5,580.5C 300.823,586.69 300.49,592.69 299.5,598.5C 299.5,592.833 299.5,587.167 299.5,581.5C 285.829,581.333 272.163,581.5 258.5,582C 256.725,583.439 254.725,584.439 252.5,585C 254.754,586.054 255.087,587.554 253.5,589.5C 260.037,590.775 260.037,592.275 253.5,594C 255.9,594.186 258.234,594.686 260.5,595.5C 259.624,596.251 258.624,596.751 257.5,597C 264.013,597.172 270.347,597.672 276.5,598.5C 265.833,598.5 255.167,598.5 244.5,598.5C 243.209,597.527 243.209,596.527 244.5,595.5C 241.985,594.8 241.318,593.467 242.5,591.5C 239.711,586.32 241.044,582.653 246.5,580.5 Z"/></g>
<g><path style="opacity:1" fill="#dd0e07" d="M 299.5,598.5 C 291.833,598.5 284.167,598.5 276.5,598.5C 270.347,597.672 264.013,597.172 257.5,597C 258.624,596.751 259.624,596.251 260.5,595.5C 258.234,594.686 255.9,594.186 253.5,594C 260.037,592.275 260.037,590.775 253.5,589.5C 255.087,587.554 254.754,586.054 252.5,585C 254.725,584.439 256.725,583.439 258.5,582C 272.163,581.5 285.829,581.333 299.5,581.5C 299.5,587.167 299.5,592.833 299.5,598.5 Z"/></g>
<g><path style="opacity:1" fill="#a41a1c" d="M 475.5,592.5 C 479.697,593.542 483.697,594.875 487.5,596.5C 488.833,597.167 490.167,597.833 491.5,598.5C 487.788,597.972 484.121,597.138 480.5,596C 478.24,595.451 476.574,594.284 475.5,592.5 Z"/></g>
<g><path style="opacity:1" fill="#ce1b20" d="M 556.5,586.5 C 557.833,586.5 559.167,586.5 560.5,586.5C 552.673,591.968 544.007,595.635 534.5,597.5C 536.5,596.5 538.5,595.5 540.5,594.5C 542.05,593.559 543.716,592.893 545.5,592.5C 547.967,592.245 549.967,591.245 551.5,589.5C 553.848,589.408 555.514,588.408 556.5,586.5 Z"/></g>
<g><path style="opacity:1" fill="#53070b" d="M 487.5,596.5 C 490.495,596.294 493.162,596.96 495.5,598.5C 494.167,598.5 492.833,598.5 491.5,598.5C 490.167,597.833 488.833,597.167 487.5,596.5 Z"/></g>
<g><path style="opacity:1" fill="#981b1f" d="M 540.5,594.5 C 538.5,595.5 536.5,596.5 534.5,597.5C 532.052,598.473 529.385,598.806 526.5,598.5C 530.903,596.592 535.57,595.259 540.5,594.5 Z"/></g>
<g><path style="opacity:1" fill="#a2211e" d="M 300.5,579.5 C 300.833,579.5 301.167,579.5 301.5,579.5C 301.5,579.833 301.5,580.167 301.5,580.5C 301.5,586.833 301.5,593.167 301.5,599.5C 274.995,599.831 248.661,599.498 222.5,598.5C 229.833,598.5 237.167,598.5 244.5,598.5C 255.167,598.5 265.833,598.5 276.5,598.5C 284.167,598.5 291.833,598.5 299.5,598.5C 300.49,592.69 300.823,586.69 300.5,580.5C 300.5,580.167 300.5,579.833 300.5,579.5 Z"/></g>
<g><path style="opacity:1" fill="#a32422" d="M 734.5,580.5 C 734.833,580.5 735.167,580.5 735.5,580.5C 735.5,586.5 735.5,592.5 735.5,598.5C 746.167,598.5 756.833,598.5 767.5,598.5C 782.167,598.5 796.833,598.5 811.5,598.5C 811.5,592.5 811.5,586.5 811.5,580.5C 811.833,580.5 812.167,580.5 812.5,580.5C 812.5,586.833 812.5,593.167 812.5,599.5C 786.5,599.5 760.5,599.5 734.5,599.5C 734.5,593.167 734.5,586.833 734.5,580.5 Z"/></g>
<g><path style="opacity:1" fill="#bb0d05" d="M 762.5,581.5 C 762.5,581.167 762.5,580.833 762.5,580.5C 778.833,580.5 795.167,580.5 811.5,580.5C 811.5,586.5 811.5,592.5 811.5,598.5C 796.833,598.5 782.167,598.5 767.5,598.5C 773.014,597.833 778.681,597.167 784.5,596.5C 786.547,594.985 788.881,594.151 791.5,594C 790.552,593.517 789.552,593.351 788.5,593.5C 788.5,592.5 788.5,591.5 788.5,590.5C 791.448,590.777 794.281,590.444 797,589.5C 796.324,587.037 796.491,584.87 797.5,583C 796.833,582.667 796.167,582.333 795.5,582C 785.506,581.5 775.506,581.334 765.5,581.5C 764.5,581.5 763.5,581.5 762.5,581.5 Z"/></g>
<g><path style="opacity:1" fill="#d00e07" d="M 735.5,580.5 C 744.5,580.5 753.5,580.5 762.5,580.5C 762.5,580.833 762.5,581.167 762.5,581.5C 753.833,581.5 745.167,581.5 736.5,581.5C 736.5,586.833 736.5,592.167 736.5,597.5C 745.525,597.832 754.525,597.498 763.5,596.5C 765.059,594.869 767.059,594.036 769.5,594C 763.042,592.178 763.042,590.845 769.5,590C 773.087,584.676 771.754,581.843 765.5,581.5C 775.506,581.334 785.506,581.5 795.5,582C 796.167,582.333 796.833,582.667 797.5,583C 796.491,584.87 796.324,587.037 797,589.5C 794.281,590.444 791.448,590.777 788.5,590.5C 788.5,591.5 788.5,592.5 788.5,593.5C 789.552,593.351 790.552,593.517 791.5,594C 788.881,594.151 786.547,594.985 784.5,596.5C 778.681,597.167 773.014,597.833 767.5,598.5C 756.833,598.5 746.167,598.5 735.5,598.5C 735.5,592.5 735.5,586.5 735.5,580.5 Z"/></g>
<g><path style="opacity:1" fill="#e40f09" d="M 762.5,581.5 C 763.5,581.5 764.5,581.5 765.5,581.5C 771.754,581.843 773.087,584.676 769.5,590C 763.042,590.845 763.042,592.178 769.5,594C 767.059,594.036 765.059,594.869 763.5,596.5C 754.525,597.498 745.525,597.832 736.5,597.5C 736.5,592.167 736.5,586.833 736.5,581.5C 745.167,581.5 753.833,581.5 762.5,581.5 Z"/></g>
<g><path style="opacity:0.256" fill="#e1b3ad" d="M 221.5,588.5 C 221.328,589.492 221.662,590.158 222.5,590.5C 222.5,593.167 222.5,595.833 222.5,598.5C 248.661,599.498 274.995,599.831 301.5,599.5C 301.5,640.167 301.5,680.833 301.5,721.5C 301.5,721.833 301.5,722.167 301.5,722.5C 300.501,682.003 300.168,641.337 300.5,600.5C 274.158,600.833 247.825,600.5 221.5,599.5C 220.599,595.527 220.599,591.861 221.5,588.5 Z"/></g>
<g><path style="opacity:1" fill="#92181c" d="M 526.5,598.5 C 521.587,600.007 516.421,600.674 511,600.5C 507.317,600.499 503.817,600.165 500.5,599.5C 509.185,599.536 517.851,599.203 526.5,598.5 Z"/></g>
<g><path style="opacity:0.221" fill="#d8afa9" d="M 812.5,579.5 C 813.491,586.313 813.825,593.313 813.5,600.5C 787.5,600.5 761.5,600.5 735.5,600.5C 735.832,641.337 735.499,682.003 734.5,722.5C 734.5,681.5 734.5,640.5 734.5,599.5C 760.5,599.5 786.5,599.5 812.5,599.5C 812.5,593.167 812.5,586.833 812.5,580.5C 812.5,580.167 812.5,579.833 812.5,579.5 Z"/></g>
<g><path style="opacity:1" fill="#cc2427" d="M 388.5,388.5 C 388.5,388.833 388.5,389.167 388.5,389.5C 388.5,469.833 388.5,550.167 388.5,630.5C 474.5,630.5 560.5,630.5 646.5,630.5C 646.833,630.5 647.167,630.5 647.5,630.5C 647.5,630.833 647.5,631.167 647.5,631.5C 560.833,631.5 474.167,631.5 387.5,631.5C 387.167,550.332 387.501,469.332 388.5,388.5 Z"/></g>
<g><path style="opacity:1" fill="#270601" d="M 648.5,388.5 C 649.833,469.902 649.833,551.402 648.5,633C 605,633.167 561.5,633.333 518,633.5C 474.162,633.5 430.662,632.833 387.5,631.5C 474.167,631.5 560.833,631.5 647.5,631.5C 648.499,550.668 648.833,469.668 648.5,388.5 Z"/></g>
<g><path style="opacity:1" fill="#eceeee" d="M 388.5,641.5 C 475.5,641.5 562.5,641.5 649.5,641.5C 649.5,679.5 649.5,717.5 649.5,755.5C 648.83,718.098 648.164,680.598 647.5,643C 561.185,643.213 474.852,642.713 388.5,641.5 Z"/></g>
<g><path style="opacity:1" fill="#e8e8e9" d="M 388.5,641.5 C 474.852,642.713 561.185,643.213 647.5,643C 648.164,680.598 648.83,718.098 649.5,755.5C 643.355,756.49 637.022,756.823 630.5,756.5C 630.5,754.833 630.5,753.167 630.5,751.5C 635.5,751.5 640.5,751.5 645.5,751.5C 645.5,716.167 645.5,680.833 645.5,645.5C 624.833,645.5 604.167,645.5 583.5,645.5C 583.5,680.833 583.5,716.167 583.5,751.5C 591.65,752.493 599.983,752.826 608.5,752.5C 608.5,753.5 608.5,754.5 608.5,755.5C 579.833,755.5 551.167,755.5 522.5,755.5C 522.5,754.167 522.5,752.833 522.5,751.5C 541.5,751.5 560.5,751.5 579.5,751.5C 579.5,716.167 579.5,680.833 579.5,645.5C 516.5,645.5 453.5,645.5 390.5,645.5C 390.5,680.833 390.5,716.167 390.5,751.5C 394.97,752.486 399.637,752.819 404.5,752.5C 404.5,753.5 404.5,754.5 404.5,755.5C 398.5,755.5 392.5,755.5 386.5,755.5C 385.839,717.152 386.506,679.152 388.5,641.5 Z"/></g>
<g><path style="opacity:1" fill="#972127" d="M 606.5,649.5 C 611.833,649.5 617.167,649.5 622.5,649.5C 622.5,652.5 622.5,655.5 622.5,658.5C 617.167,658.5 611.833,658.5 606.5,658.5C 606.5,655.5 606.5,652.5 606.5,649.5 Z"/></g>
<g><path style="opacity:1" fill="#e61a20" d="M 607.5,650.5 C 612.167,650.5 616.833,650.5 621.5,650.5C 621.5,652.833 621.5,655.167 621.5,657.5C 616.833,657.5 612.167,657.5 607.5,657.5C 607.5,655.167 607.5,652.833 607.5,650.5 Z"/></g>
<g><path style="opacity:0.658" fill="#555455" d="M 658.5,377.5 C 658.5,377.833 658.5,378.167 658.5,378.5C 564.833,378.5 471.167,378.5 377.5,378.5C 377.5,507.5 377.5,636.5 377.5,765.5C 386.833,765.5 396.167,765.5 405.5,765.5C 405.5,781.833 405.5,798.167 405.5,814.5C 404.504,798.675 404.17,782.675 404.5,766.5C 395.167,766.5 385.833,766.5 376.5,766.5C 376.5,636.833 376.5,507.167 376.5,377.5C 470.5,377.5 564.5,377.5 658.5,377.5 Z"/></g>
<g><path style="opacity:1" fill="#e7e6e7" d="M 474.5,666.5 C 488.953,667.118 493.453,674.118 488,687.5C 483.033,691.682 477.533,692.516 471.5,690C 462.83,680.859 463.83,673.026 474.5,666.5 Z"/></g>
<g><path style="opacity:1" fill="#8e1317" d="M 631.5,679.5 C 620.346,680.495 609.012,680.828 597.5,680.5C 597.5,676.833 597.5,673.167 597.5,669.5C 609.167,669.5 620.833,669.5 632.5,669.5C 632.813,673.042 632.479,676.375 631.5,679.5 Z"/></g>
<g><path style="opacity:1" fill="#080808" d="M 474.5,669.5 C 484.008,668.84 488.175,673.173 487,682.5C 484.367,687.732 480.201,689.565 474.5,688C 469.581,685.259 467.748,681.092 469,675.5C 470.36,672.977 472.193,670.977 474.5,669.5 Z"/></g>
<g><path style="opacity:1" fill="#dd1c24" d="M 631.5,679.5 C 620.5,679.5 609.5,679.5 598.5,679.5C 598.5,676.5 598.5,673.5 598.5,670.5C 609.5,670.5 620.5,670.5 631.5,670.5C 631.5,673.5 631.5,676.5 631.5,679.5 Z"/></g>
<g><path style="opacity:1" fill="#f71216" d="M 599.5,671.5 C 609.833,671.5 620.167,671.5 630.5,671.5C 630.5,673.833 630.5,676.167 630.5,678.5C 620.167,678.5 609.833,678.5 599.5,678.5C 599.5,676.167 599.5,673.833 599.5,671.5 Z"/></g>
<g><path style="opacity:1" fill="#dedede" d="M 538.5,666.5 C 551.506,665.995 556.673,671.995 554,684.5C 550.345,691.07 544.845,693.237 537.5,691C 526.541,682.285 526.875,674.118 538.5,666.5 Z"/></g>
<g><path style="opacity:1" fill="#09090a" d="M 539.5,669.5 C 548.184,669.019 552.35,673.019 552,681.5C 549.462,687.698 544.962,689.865 538.5,688C 536.333,687.167 534.833,685.667 534,683.5C 532.025,677.177 533.858,672.51 539.5,669.5 Z"/></g>
<g><path style="opacity:0.348" fill="#8a898a" d="M 658.5,377.5 C 659.5,506.999 659.833,636.666 659.5,766.5C 649.833,766.5 640.167,766.5 630.5,766.5C 639.652,765.506 648.985,765.173 658.5,765.5C 658.5,636.5 658.5,507.5 658.5,378.5C 658.5,378.167 658.5,377.833 658.5,377.5 Z"/></g>
<g><path style="opacity:1" fill="#e51c1b" d="M 411.5,680.5 C 414.5,680.5 417.5,680.5 420.5,680.5C 420.5,684.5 420.5,688.5 420.5,692.5C 417.5,692.5 414.5,692.5 411.5,692.5C 410.167,688.5 410.167,684.5 411.5,680.5 Z"/></g>
<g><path style="opacity:1" fill="#7b0e10" d="M 631.5,697.5 C 620.346,698.495 609.012,698.828 597.5,698.5C 597.5,694.833 597.5,691.167 597.5,687.5C 609.167,687.5 620.833,687.5 632.5,687.5C 632.813,691.042 632.479,694.375 631.5,697.5 Z"/></g>
<g><path style="opacity:1" fill="#831110" d="M 411.5,680.5 C 414.625,679.521 417.958,679.187 421.5,679.5C 421.5,684.167 421.5,688.833 421.5,693.5C 417.958,693.813 414.625,693.479 411.5,692.5C 414.5,692.5 417.5,692.5 420.5,692.5C 420.5,688.5 420.5,684.5 420.5,680.5C 417.5,680.5 414.5,680.5 411.5,680.5 Z"/></g>
<g><path style="opacity:1" fill="#ef1817" d="M 631.5,697.5 C 620.5,697.5 609.5,697.5 598.5,697.5C 598.5,694.5 598.5,691.5 598.5,688.5C 609.5,688.5 620.5,688.5 631.5,688.5C 631.5,691.5 631.5,694.5 631.5,697.5 Z"/></g>
<g><path style="opacity:0.918" fill="#222223" d="M 301.5,580.5 C 301.5,580.167 301.5,579.833 301.5,579.5C 311.5,579.5 321.5,579.5 331.5,579.5C 330.567,627.185 330.233,674.851 330.5,722.5C 320.833,722.5 311.167,722.5 301.5,722.5C 301.5,722.167 301.5,721.833 301.5,721.5C 310.833,721.5 320.167,721.5 329.5,721.5C 329.5,674.5 329.5,627.5 329.5,580.5C 320.167,580.5 310.833,580.5 301.5,580.5 Z"/></g>
<g><path style="opacity:1" fill="#d01f22" d="M 404.5,702.5 C 412.352,702.175 420.018,702.508 427.5,703.5C 420.167,703.5 412.833,703.5 405.5,703.5C 405.5,705.833 405.5,708.167 405.5,710.5C 412.833,710.5 420.167,710.5 427.5,710.5C 420.018,711.492 412.352,711.825 404.5,711.5C 404.5,708.5 404.5,705.5 404.5,702.5 Z"/></g>
<g><path style="opacity:1" fill="#fa1310" d="M 427.5,703.5 C 427.5,705.833 427.5,708.167 427.5,710.5C 420.167,710.5 412.833,710.5 405.5,710.5C 405.5,708.167 405.5,705.833 405.5,703.5C 412.833,703.5 420.167,703.5 427.5,703.5 Z"/></g>
<g><path style="opacity:1" fill="#7e0e0e" d="M 404.5,702.5 C 412.316,701.508 420.316,701.174 428.5,701.5C 428.815,705.371 428.482,709.038 427.5,712.5C 419.648,712.825 411.982,712.492 404.5,711.5C 412.352,711.825 420.018,711.492 427.5,710.5C 427.5,708.167 427.5,705.833 427.5,703.5C 420.018,702.508 412.352,702.175 404.5,702.5 Z"/></g>
<g><path style="opacity:1" fill="#270200" d="M 404.5,702.5 C 404.5,705.5 404.5,708.5 404.5,711.5C 411.982,712.492 419.648,712.825 427.5,712.5C 419.684,713.492 411.684,713.826 403.5,713.5C 403.185,709.629 403.518,705.962 404.5,702.5 Z"/></g>
<g><path style="opacity:1" fill="#5b070a" d="M 493.5,721.5 C 490.833,721.5 488.167,721.5 485.5,721.5C 485.5,724.167 485.5,726.833 485.5,729.5C 484.523,726.713 484.19,723.713 484.5,720.5C 487.713,720.19 490.713,720.523 493.5,721.5 Z"/></g>
<g><path style="opacity:1" fill="#7b1316" d="M 463.5,721.5 C 466.5,720.167 469.5,720.167 472.5,721.5C 472.806,724.385 472.473,727.052 471.5,729.5C 471.5,726.833 471.5,724.167 471.5,721.5C 468.833,721.5 466.167,721.5 463.5,721.5 Z"/></g>
<g><path style="opacity:1" fill="#350702" d="M 549.5,721.5 C 552.625,720.521 555.958,720.187 559.5,720.5C 559.5,723.833 559.5,727.167 559.5,730.5C 555.5,730.5 551.5,730.5 547.5,730.5C 547.336,727.813 547.503,725.146 548,722.5C 548.383,721.944 548.883,721.611 549.5,721.5 Z"/></g>
<g><path style="opacity:1" fill="#b11f22" d="M 493.5,721.5 C 496.5,729.833 493.833,732.5 485.5,729.5C 485.5,726.833 485.5,724.167 485.5,721.5C 488.167,721.5 490.833,721.5 493.5,721.5 Z"/></g>
<g><path style="opacity:1" fill="#f51d1d" d="M 486.5,722.5 C 488.5,722.5 490.5,722.5 492.5,722.5C 492.5,724.5 492.5,726.5 492.5,728.5C 490.5,728.5 488.5,728.5 486.5,728.5C 486.5,726.5 486.5,724.5 486.5,722.5 Z"/></g>
<g><path style="opacity:1" fill="#bb2729" d="M 549.5,721.5 C 552.5,721.5 555.5,721.5 558.5,721.5C 558.5,724.167 558.5,726.833 558.5,729.5C 555.5,729.5 552.5,729.5 549.5,729.5C 549.5,726.833 549.5,724.167 549.5,721.5 Z"/></g>
<g><path style="opacity:1" fill="#f1201c" d="M 550.5,722.5 C 552.833,722.5 555.167,722.5 557.5,722.5C 557.5,724.5 557.5,726.5 557.5,728.5C 555.167,728.5 552.833,728.5 550.5,728.5C 550.5,726.5 550.5,724.5 550.5,722.5 Z"/></g>
<g><path style="opacity:1" fill="#330803" d="M 463.5,721.5 C 466.167,721.5 468.833,721.5 471.5,721.5C 471.5,724.167 471.5,726.833 471.5,729.5C 472.473,727.052 472.806,724.385 472.5,721.5C 473.638,724.304 473.805,727.304 473,730.5C 469.606,731.456 466.106,731.789 462.5,731.5C 462.187,727.958 462.521,724.625 463.5,721.5 Z"/></g>
<g><path style="opacity:1" fill="#e92424" d="M 463.5,721.5 C 466.167,721.5 468.833,721.5 471.5,721.5C 471.5,724.167 471.5,726.833 471.5,729.5C 468.833,729.5 466.167,729.5 463.5,729.5C 463.5,726.833 463.5,724.167 463.5,721.5 Z"/></g>
<g><path style="opacity:1" fill="#380905" d="M 527.5,721.5 C 527.5,724.167 527.5,726.833 527.5,729.5C 530.5,729.5 533.5,729.5 536.5,729.5C 536.5,726.833 536.5,724.167 536.5,721.5C 537.479,724.625 537.813,727.958 537.5,731.5C 533.833,731.5 530.167,731.5 526.5,731.5C 526.187,727.958 526.521,724.625 527.5,721.5 Z"/></g>
<g><path style="opacity:1" fill="#cd2b2e" d="M 527.5,721.5 C 530.5,721.5 533.5,721.5 536.5,721.5C 536.5,724.167 536.5,726.833 536.5,729.5C 533.5,729.5 530.5,729.5 527.5,729.5C 527.5,726.833 527.5,724.167 527.5,721.5 Z"/></g>
<g><path style="opacity:1" fill="#f61f1e" d="M 528.5,722.5 C 530.833,722.5 533.167,722.5 535.5,722.5C 535.5,724.5 535.5,726.5 535.5,728.5C 533.167,728.5 530.833,728.5 528.5,728.5C 528.5,726.5 528.5,724.5 528.5,722.5 Z"/></g>
<g><path style="opacity:1" fill="#921515" d="M 610.5,726.5 C 613.625,725.521 616.958,725.187 620.5,725.5C 620.5,729.833 620.5,734.167 620.5,738.5C 616.833,738.5 613.167,738.5 609.5,738.5C 609.183,734.298 609.517,730.298 610.5,726.5 Z"/></g>
<g><path style="opacity:1" fill="#f01818" d="M 610.5,726.5 C 613.5,726.5 616.5,726.5 619.5,726.5C 619.5,730.167 619.5,733.833 619.5,737.5C 616.5,737.5 613.5,737.5 610.5,737.5C 610.5,733.833 610.5,730.167 610.5,726.5 Z"/></g>
<g><path style="opacity:1" fill="#7a797a" d="M 390.5,751.5 C 395.5,751.5 400.5,751.5 405.5,751.5C 405.768,753.099 405.434,754.432 404.5,755.5C 404.5,754.5 404.5,753.5 404.5,752.5C 399.637,752.819 394.97,752.486 390.5,751.5 Z"/></g>
<g><path style="opacity:1" fill="#89898a" d="M 583.5,751.5 C 592.167,751.5 600.833,751.5 609.5,751.5C 609.768,753.099 609.434,754.432 608.5,755.5C 608.5,754.5 608.5,753.5 608.5,752.5C 599.983,752.826 591.65,752.493 583.5,751.5 Z"/></g>
<g><path style="opacity:1" fill="#cfcecf" d="M 426.5,751.5 C 451.167,751.5 475.833,751.5 500.5,751.5C 500.5,753.167 500.5,754.833 500.5,756.5C 475.833,756.5 451.167,756.5 426.5,756.5C 426.5,754.833 426.5,753.167 426.5,751.5 Z"/></g>
<g><path style="opacity:0.478" fill="#6f6f6f" d="M 608.5,766.5 C 580.167,766.5 551.833,766.5 523.5,766.5C 523.83,782.675 523.496,798.675 522.5,814.5C 522.5,798.167 522.5,781.833 522.5,765.5C 551.338,765.169 580.005,765.502 608.5,766.5 Z"/></g>
<g><path style="opacity:0.999" fill="#141414" d="M 422.5,818.5 C 423.688,819.048 424.855,819.381 426,819.5C 426.816,828.412 426.65,837.245 425.5,846C 418.586,846.811 411.752,846.645 405,845.5C 404.5,836.84 404.334,828.173 404.5,819.5C 410.69,819.823 416.69,819.49 422.5,818.5 Z"/></g>
<g><path style="opacity:1" fill="#111111" d="M 500.5,819.5 C 508.167,819.5 515.833,819.5 523.5,819.5C 523.666,828.173 523.5,836.84 523,845.5C 515.555,845.469 508.055,845.802 500.5,846.5C 500.5,837.5 500.5,828.5 500.5,819.5 Z"/></g>
<g><path style="opacity:0.999" fill="#141414" d="M 626.5,818.5 C 627.688,819.048 628.855,819.381 630,819.5C 630.5,828.494 630.666,837.494 630.5,846.5C 623.245,846.813 616.079,846.48 609,845.5C 608.5,836.84 608.334,828.173 608.5,819.5C 614.69,819.823 620.69,819.49 626.5,818.5 Z"/></g>
</svg>
